<?xml version="1.0" standalone="no"?>
<!DOCTYPE svg PUBLIC "-//W3C//DTD SVG 1.1//EN" "http://www.w3.org/Graphics/SVG/1.1/DTD/svg11.dtd" >
<svg xmlns="http://www.w3.org/2000/svg">
<metadata></metadata>
<defs>
<font id="berthold_citybold" horiz-adv-x="555" >
<font-face units-per-em="2048" ascent="1638" descent="-410" />
<missing-glyph horiz-adv-x="500" />
<glyph horiz-adv-x="0" />
<glyph horiz-adv-x="682" />
<glyph unicode=" " />
<glyph unicode="!" horiz-adv-x="512" d="M133 154q0 66 47 112.5t113 46.5t113 -46.5t47 -112.5t-47 -113t-113 -47t-113 47t-47 113zM205 438v1008h174v-1008h-174z" />
<glyph unicode="&#x22;" horiz-adv-x="811" d="M66 1413q0 54 38 87.5t97 33.5q64 0 98 -47q22 -30 18 -94l-96 -531h-55l-96 506q-4 32 -4 45zM492 1413q0 52 38 86.5t97 34.5q77 0 106 -59q14 -25 10 -82l-96 -531h-55l-96 506q-4 32 -4 45z" />
<glyph unicode="#" horiz-adv-x="1366" d="M86 438v203h279l24 195h-258v204h285l55 408h213l-57 -408h200l56 408h207l-56 -408h242v-204h-268l-29 -195h252v-203h-277l-63 -440h-207l64 440h-203l-62 -440h-209l62 440h-250zM569 641h205l27 195h-203z" />
<glyph unicode="$" horiz-adv-x="1110" d="M51 922v196q0 42 1.5 68t8.5 62.5t23.5 67t42.5 56.5q33 33 78 50t74 20t81 4h66v254h268v-254h320v-424h-348v123h-222v-266h267q55 -1 83 -3t75 -13.5t79 -33.5q25 -16 44 -36t30 -43.5t18.5 -43t10.5 -47.5t4 -43.5t2 -42.5v-231q0 -101 -13 -154q-12 -43 -32 -75.5 t-47.5 -52t-51.5 -31.5t-59.5 -18t-53.5 -8t-50 -3h-56v-264h-268v264h-354v442h372v-141h222v291h-289q-44 1 -64 2.5t-59 8t-69 23t-56 42.5t-42.5 56t-23.5 68t-9 62t-3 68z" />
<glyph unicode="%" horiz-adv-x="1792" d="M70 752v501q0 102 50 147.5t146 45.5h234q38 0 66.5 -6t60.5 -25t49.5 -62.5t17.5 -109.5v-489q0 -50 -6.5 -82.5t-28 -64t-68 -47t-118.5 -15.5h-188q-114 0 -164.5 47t-50.5 160zM313 733h131v524h-131v-524zM506 0l581 1446h197l-584 -1446h-194zM1092 207v502 q0 102 50 147t146 45h234q38 0 66.5 -6t60.5 -25t49.5 -62.5t17.5 -109.5v-489q0 -50 -6.5 -82.5t-28 -64t-68 -47t-118.5 -15.5h-188q-114 0 -164.5 47t-50.5 160zM1335 188h131v525h-131v-525z" />
<glyph unicode="&#x26;" horiz-adv-x="1280" d="M31 408q0 28 7 51.5t24 45t26.5 32t32.5 32.5l207 193l-115 117q-35 37 -45.5 61t-11.5 76v280q0 93 36.5 121.5t126.5 28.5h437q93 0 131 -28.5t39 -121.5v-256q0 -40 -12 -62t-46 -56l-153 -142l131 -129l188 174l160 -174l-184 -174l266 -278l-211 -207l-268 284 l-228 -221q-23 -22 -38.5 -34t-40.5 -22.5t-52 -10.5q-39 0 -67.5 17t-67.5 54l-205 211q-33 33 -50 63t-17 75zM358 442l129 -135l146 137l-129 134zM442 1065l99 -98l100 98v158h-199v-158z" />
<glyph unicode="'" horiz-adv-x="425" d="M88 1413q0 59 41.5 90t91.5 31q63 0 101 -47q15 -20 17.5 -47.5t-1.5 -46.5l-96 -531h-56l-96 506q-2 16 -2 45z" />
<glyph unicode="(" d="M135 301v483q0 137 3.5 211t24 168t62.5 162q27 46 64.5 80t68.5 51t74.5 29.5t63.5 15t55 6.5v-127q-28 -3 -42 -5t-45 -10t-51 -20t-45 -36t-42 -56q-22 -42 -36 -96.5t-19.5 -125t-7 -118.5t-1.5 -127v-487q0 -81 3 -135.5t18.5 -129t44.5 -122.5q23 -38 53 -64 t64 -37.5t55.5 -15.5t50.5 -6v-125q-27 1 -46.5 2.5t-51.5 8.5t-59 18.5t-60.5 34t-63.5 53.5q-37 38 -62.5 89t-39 94.5t-21 112t-9 108t-3.5 116.5z" />
<glyph unicode=")" d="M0 -209q28 3 42 5t45 10t51 20t45 36t42 56q22 42 36 96.5t19.5 125t7 118.5t1.5 127v487q-1 90 -3.5 138t-18 125t-44.5 125q-23 38 -53 64t-64 37t-55.5 15t-50.5 6v125q36 -1 60.5 -4t64.5 -13.5t79.5 -35t76.5 -63.5q37 -38 62.5 -89t39 -95t21 -112t9 -108t3.5 -117 v-483q0 -137 -3.5 -211t-24 -168t-62.5 -162q-27 -46 -64.5 -80t-68.5 -51t-74.5 -29.5t-63.5 -15t-55 -6.5v127z" />
<glyph unicode="*" horiz-adv-x="681" d="M23 1024l178 102l-178 103l71 123l172 -101v195h146v-195l176 101l71 -123l-174 -103l174 -102l-71 -123l-176 103v-203h-146v203l-172 -103z" />
<glyph unicode="+" horiz-adv-x="1366" d="M86 492v208h494v494h211v-494h489v-208h-489v-492h-211v492h-494z" />
<glyph unicode="," horiz-adv-x="425" d="M-18 -199l223 500h184l-225 -500h-182z" />
<glyph unicode="-" horiz-adv-x="724" d="M49 397v201h625v-201h-625z" />
<glyph unicode="." horiz-adv-x="425" d="M57 152q0 65 46 110t112 45q65 0 110.5 -45.5t45.5 -109.5q0 -66 -45.5 -112t-110.5 -46q-66 0 -112 46t-46 112z" />
<glyph unicode="/" horiz-adv-x="811" d="M33 0l604 1446h139l-600 -1446h-143z" />
<glyph unicode="0" horiz-adv-x="1193" d="M96 315v789q1 50 3.5 80t15 75t35.5 78q26 38 61 61.5t76.5 33t70 12t70.5 2.5h332q47 0 73.5 -1.5t67.5 -11.5t74 -30q29 -19 51 -42.5t34.5 -51t20.5 -50.5t11 -53.5t3.5 -46t0.5 -41.5v-753q0 -92 -9 -145.5t-43 -104.5q-22 -31 -50 -53.5t-53 -33.5t-60 -17.5t-56 -8 t-57 -2.5h-352q-48 1 -75 3.5t-68 15t-74 36.5q-35 26 -57 59t-31 72.5t-11.5 64t-3.5 64.5zM496 301h213v844h-213v-844z" />
<glyph unicode="1" horiz-adv-x="1193" d="M152 1192l282 254h393v-1145h129v-301h-673v301h151v797l-151 -146z" />
<glyph unicode="2" horiz-adv-x="1193" d="M88 877v241q1 56 4 87t19.5 78.5t48.5 80.5q25 27 54.5 44.5t65 24.5t60.5 9.5t66 3.5h331q50 -1 77.5 -3.5t68.5 -14t75 -33.5q33 -21 56 -50.5t35 -55.5t18 -63.5t7 -60.5t1 -61v-399l-413 -404h456v-301h-1005v205l573 579v367h-229v-274h-369z" />
<glyph unicode="3" horiz-adv-x="1193" d="M82 297v178h364v-174h230v336h-232v178l250 344h-254v-155h-325v442h975v-266l-222 -291q34 -4 48 -6.5t39 -12.5t44 -26q28 -25 43.5 -58.5t18 -57t2.5 -58.5v-340q0 -43 -2 -70.5t-13 -66.5t-32 -72q-23 -35 -54.5 -59t-58.5 -36t-67.5 -18t-62.5 -7t-62 -1h-318 q-50 3 -77.5 6t-68 16.5t-73.5 38.5q-42 31 -63.5 77.5t-24.5 75t-4 83.5z" />
<glyph unicode="4" horiz-adv-x="1193" d="M53 457v319l496 672h405v-719h152v-272h-152v-156h152v-301h-674v301h156v156h-535zM332 729h256v168q0 21 2 63t2 64q0 6 4.5 60t7.5 67q-45 -96 -94 -166z" />
<glyph unicode="5" horiz-adv-x="1193" d="M102 346v156h375v-201h232v373h-586v772h956v-301h-583v-148h268q50 0 75 -1t66 -9.5t72 -25.5q34 -19 58 -48.5t36 -55.5t19 -65t8 -59.5t2 -58.5v-346q0 -48 -2 -75t-14 -68.5t-37 -75.5q-22 -31 -53.5 -53t-59.5 -32.5t-70 -16t-66.5 -6.5t-68.5 -1h-289 q-54 1 -84.5 4t-80 19t-85.5 47q-31 27 -49.5 59.5t-26 75.5t-9.5 67t-3 74z" />
<glyph unicode="6" horiz-adv-x="1193" d="M100 338v752q0 39 1 62t6.5 62t16 65.5t32 57t51.5 52.5q35 27 80.5 40t75 15t83.5 2h302q135 -4 198 -35q28 -13 50 -31t36 -35t24 -42t15 -41t7.5 -45t3 -40.5t1.5 -39.5v-142h-364v150h-219v-262h276q53 0 86.5 -2.5t82 -18.5t83.5 -47q38 -34 58 -83t23 -82.5 t3 -86.5v-223q0 -49 -2.5 -81t-15 -76.5t-37.5 -78.5q-26 -36 -60.5 -59t-73.5 -31.5t-64 -11t-60 -2.5h-361q-40 0 -62 1t-61.5 7t-65.5 17.5t-55.5 35.5t-50.5 58q-20 33 -30 74.5t-11.5 68.5t-1.5 76zM500 301h219v293h-219v-293z" />
<glyph unicode="7" horiz-adv-x="1193" d="M76 965v481h1057v-227l-437 -1219h-428l443 1145h-279v-180h-356z" />
<glyph unicode="8" horiz-adv-x="1193" d="M92 307v125q3 140 43 201.5t156 107.5q-50 20 -85.5 47.5t-53 52t-27.5 62t-12 57.5t-4 58v119q1 46 3 71.5t13 64.5t31 68q25 35 57 57.5t73 32t67.5 12t70.5 3.5h352q40 -1 65 -3.5t60.5 -9.5t65 -24.5t53.5 -44.5q27 -31 41 -72t16 -68t2 -75v-123q0 -73 -12.5 -123 t-40 -81t-55 -47.5t-72.5 -33.5q83 -33 121 -69q27 -26 44 -55t24 -63.5t9 -55.5t3 -58v-114q-1 -52 -3 -75t-12.5 -63.5t-31.5 -72.5q-22 -33 -52.5 -56t-57.5 -34.5t-68.5 -17t-65.5 -6.5t-68 -1h-309q-141 0 -215 39q-36 20 -61 48.5t-37 53t-18.5 60.5t-7.5 55t-1 51z M487 301h220v295h-220v-295zM487 883h220v262h-220v-262z" />
<glyph unicode="9" horiz-adv-x="1193" d="M82 883v223q0 49 2.5 80.5t15 76t37.5 78.5q26 36 60.5 59t73.5 32t64.5 11.5t59.5 2.5h361q40 0 62 -1t61.5 -7t65.5 -17.5t55.5 -35.5t50.5 -58q20 -33 30 -75t11.5 -69t1.5 -75v-752q0 -53 -2 -84.5t-14 -77.5t-36 -81q-28 -40 -64 -65t-81 -34.5t-73.5 -11.5 t-75.5 -2h-302q-135 4 -198 35q-28 13 -50 31t-36 35t-24 42t-15 41t-7.5 45t-3 40.5t-1.5 39.5v142h364v-150h219v262h-276q-53 0 -87 2.5t-82.5 18.5t-82.5 47q-38 34 -58 83t-23 82.5t-3 86.5zM475 852h219v293h-219v-293z" />
<glyph unicode=":" horiz-adv-x="512" d="M145 147q0 65 45.5 110.5t110.5 45.5t110.5 -45.5t45.5 -110.5q0 -64 -45.5 -109.5t-110.5 -45.5t-110.5 45.5t-45.5 109.5zM145 815q0 65 45.5 110.5t110.5 45.5t110.5 -45.5t45.5 -110.5t-45.5 -110.5t-110.5 -45.5t-110.5 45.5t-45.5 110.5z" />
<glyph unicode=";" horiz-adv-x="641" d="M68 -195l225 496h184l-225 -496h-184zM311 563q0 66 47 113t113 47t113 -47t47 -113t-47 -113t-113 -47t-113 47t-47 113z" />
<glyph unicode="&#x3c;" horiz-adv-x="1366" d="M0 614v213l1366 625v-231l-1083 -500l1083 -498v-229z" />
<glyph unicode="=" horiz-adv-x="1366" d="M0 299v211h1366v-211h-1366zM0 684v211h1366v-211h-1366z" />
<glyph unicode="&#x3e;" horiz-adv-x="1366" d="M0 -6v229l1081 498l-1081 500v231l1366 -625v-213z" />
<glyph unicode="?" horiz-adv-x="937" d="M129 1098v145q0 111 41 158q19 23 49 34.5t47.5 13t55.5 3.5h348q97 0 145 -37q21 -17 34 -39.5t18 -51.5t6 -48t1 -51v-359q-1 -54 -4 -86t-15 -65t-34.5 -49.5t-61 -27t-95.5 -11.5h-125v-199h-256v490h256v307h-156v-127h-254zM254 147q0 65 46 110.5t110 45.5 t109.5 -45.5t45.5 -110.5t-45.5 -110t-109.5 -45q-65 0 -110.5 45.5t-45.5 109.5z" />
<glyph unicode="@" horiz-adv-x="1835" d="M139 498q0 119 30 237.5t84 224.5t135 197.5t178 158t218 104.5t250 38q187 0 337.5 -87t235.5 -243t85 -352q0 -165 -66 -315.5t-170 -239t-213 -88.5q-18 0 -36.5 3.5t-41.5 14t-41.5 27.5t-34 47t-20.5 70q-31 -47 -68 -80t-72 -48.5t-62.5 -21.5t-51.5 -6 q-116 0 -199.5 96t-83.5 269q0 116 41 224.5t106 185t147 123t163 46.5q62 0 111 -24q31 -16 52.5 -39.5t29.5 -39.5t20 -46l23 94h153l-78 -356q-2 -8 -14.5 -71t-22 -109.5t-18 -98t-8.5 -67.5q0 -26 11.5 -40t20 -16t17.5 -2q34 0 79.5 37t90 101t75 165t30.5 213 q0 158 -71 285t-192.5 197.5t-267.5 70.5q-81 0 -156.5 -20t-132 -52.5t-89 -56.5t-58.5 -49q-125 -120 -197.5 -306t-72.5 -366q0 -131 44 -243.5t126 -196t207 -131t278 -47.5q76 0 151.5 13t159.5 43t169.5 86t160.5 134l74 -94q-133 -139 -303 -215q-200 -90 -439 -90 q-241 0 -424.5 90.5t-286 262t-102.5 399.5zM729 442q0 -69 29.5 -120.5t91.5 -51.5q56 0 106 45.5t83 113.5t57 145.5t34 143.5t7 105q-2 43 -16 74.5t-34 47.5t-39.5 23t-37.5 7q-59 0 -113.5 -59t-90 -144t-56.5 -174.5t-21 -155.5z" />
<glyph unicode="A" horiz-adv-x="1236" d="M0 0v301h106l199 1145h629l203 -1145h98v-301h-444l-52 352h-243l-50 -352h-446zM526 602h183l-91 606z" />
<glyph unicode="B" horiz-adv-x="1193" d="M25 0v301h96v844h-96v301h716q61 0 95.5 -1.5t86.5 -9.5t90 -28t64 -53q34 -42 45 -102.5t11 -149.5q0 -70 -4.5 -117.5t-18 -90.5t-38 -69.5t-64 -46.5t-97.5 -30q74 -20 118.5 -47t67 -68.5t29.5 -85t7 -115.5q0 -155 -14.5 -232t-55.5 -122q-34 -37 -90 -55 t-99.5 -20.5t-128.5 -2.5h-720zM510 301h229v305h-229v-305zM510 872h229v273h-229v-273z" />
<glyph unicode="C" horiz-adv-x="1067" d="M74 330v766q0 58 2 89.5t16.5 78.5t42.5 82q29 35 65 56.5t82 30.5t79 11t88 2h567v-467h-334v166h-215v-844h215v231h350v-532h-594q-117 0 -174 14q-45 12 -79 33t-54 50t-32.5 55.5t-17.5 63.5t-6 58.5t-1 55.5z" />
<glyph unicode="D" horiz-adv-x="1193" d="M29 0v301h92v844h-92v301h733q51 0 80 -1t71.5 -9.5t73.5 -24.5q38 -20 65 -52t40.5 -63t20.5 -77t8 -74.5t1 -75.5v-676q0 -172 -35 -248q-18 -41 -47 -70t-56.5 -43t-69.5 -22t-69 -9t-73 -1h-743zM514 301h215v844h-215v-844z" />
<glyph unicode="E" horiz-adv-x="1110" d="M29 0v301h94v844h-94v301h1020v-473h-330v172h-209v-275h295v-266h-295v-303h209v186h352v-487h-1042z" />
<glyph unicode="F" horiz-adv-x="1110" d="M25 0v301h96v844h-96v301h1052v-459h-344v158h-215v-273h297v-262h-297v-309h92v-301h-585z" />
<glyph unicode="G" horiz-adv-x="1150" d="M70 342v750q0 56 1.5 88t12.5 80t33 81q26 38 60 61t81 32.5t79.5 11.5t90.5 2h623v-422h-357v121h-225v-846h225v272h-119v301h492v-874h-651q-52 0 -81.5 1.5t-75 13.5t-81.5 36q-69 46 -88.5 112.5t-19.5 178.5z" />
<glyph unicode="H" horiz-adv-x="1236" d="M29 0v301h94v844h-94v301h485v-561h205v561h489v-301h-94v-844h94v-301h-489v582h-205v-582h-485z" />
<glyph unicode="I" horiz-adv-x="641" d="M27 0v301h94v844h-94v301h585v-301h-96v-844h96v-301h-585z" />
<glyph unicode="J" horiz-adv-x="1110" d="M39 328v219h379v-246h174v844h-98v301h585v-301h-94v-795q0 -48 -2 -79t-13.5 -75.5t-33.5 -78.5q-17 -28 -39.5 -48.5t-50 -33t-51.5 -20t-59 -10.5t-57.5 -4t-60.5 -1h-217q-49 0 -77 1.5t-72.5 11.5t-79.5 30q-38 20 -64 48.5t-39.5 54.5t-20.5 63t-8 59.5t-1 59.5z " />
<glyph unicode="K" horiz-adv-x="1236" d="M29 0v301h94v844h-94v301h491v-627l287 627h375v-301h-129l-183 -326h248v-518h107v-301h-494v553h-211v-553h-491z" />
<glyph unicode="L" horiz-adv-x="1110" d="M33 0v301h92v844h-92v301h577v-301h-92v-844h176v256h369v-557h-1030z" />
<glyph unicode="M" horiz-adv-x="1665" d="M27 0v301h96v844h-96v301h460l289 -528q29 -58 58 -130q49 103 63 130l283 528h452v-301h-94v-844h94v-301h-467v670q0 65 4 110l-338 -620l-348 626q4 -86 4 -100v-686h-460z" />
<glyph unicode="N" horiz-adv-x="1366" d="M31 0v301h94v844h-94v301h463l323 -635q36 -69 50 -103.5t38 -107.5q-12 123 -12 266v580h442v-301h-94v-844h94v-301h-461l-294 563q-54 108 -73 153.5t-44 123.5q5 -45 8 -135l8 -705h-448z" />
<glyph unicode="O" horiz-adv-x="1150" d="M76 348v707q0 59 1 87t8 73t21 79q15 37 36 64t49.5 43t52.5 26t60.5 13.5t57.5 4.5t58 1h282q41 0 68.5 -1t63.5 -5t62 -12t53 -21.5t48.5 -35t38.5 -50.5q20 -36 30 -86.5t11.5 -89t1.5 -115.5v-598q0 -169 -18 -239q-11 -39 -29.5 -70t-38.5 -51t-50 -34.5 t-53.5 -21.5t-59 -11t-57 -4.5t-56.5 -0.5h-262q-60 0 -99.5 2.5t-96 18.5t-93.5 47q-32 27 -51.5 60t-27.5 75.5t-9.5 69.5t-1.5 75zM471 301h215v844h-215v-844z" />
<glyph unicode="P" horiz-adv-x="1150" d="M27 0v301h98v844h-98v301h721q68 -1 103.5 -3.5t83.5 -13.5t83 -32q32 -20 54 -47t33.5 -51.5t17 -60t6.5 -56.5t1 -56v-188q0 -53 -1 -81t-9.5 -74t-25.5 -78q-16 -31 -38.5 -53.5t-51 -36t-53 -21.5t-61 -11.5t-57 -4t-57.5 -0.5h-258v-277h90v-301h-581zM518 829h223 v316h-223v-316z" />
<glyph unicode="Q" horiz-adv-x="1150" d="M76 348v707q0 59 1 87t8 73t21 79q15 37 36 64t49.5 43t52.5 26t60.5 13.5t57.5 4.5t58 1h282q42 0 64.5 -0.5t60.5 -4t63 -11.5t54.5 -21t52 -35.5t39.5 -52.5q20 -36 30 -86.5t11.5 -89t1.5 -115.5v-598q0 -88 -2 -133t-16.5 -104t-44.5 -97q-22 -28 -53 -47.5 t-58 -29.5t-69 -15t-66.5 -5.5t-69.5 -0.5v-201h-245v201q-61 0 -100.5 2.5t-96 18.5t-92.5 47q-32 27 -51.5 60t-27.5 75.5t-9.5 69.5t-1.5 75zM467 301h221v844h-221v-844z" />
<glyph unicode="R" horiz-adv-x="1236" d="M31 0v301h92v844h-92v301h753q49 -1 71.5 -2.5t65 -8t74.5 -22t60 -41.5t45 -56t23.5 -68t8 -63.5t1.5 -72.5q0 -40 -0.5 -61.5t-2 -55.5t-5.5 -53t-11 -46t-17.5 -43.5t-26 -37t-36 -34.5t-47.5 -28.5t-61 -25.5q33 -8 52 -14t46 -22t47 -40q23 -29 35.5 -64.5 t15.5 -61.5t4 -68v-156h97v-301h-273q-63 1 -97 5.5t-62 19.5t-38.5 44.5t-11.5 80.5v438h-221v-588h-489zM520 858h221v287h-221v-287z" />
<glyph unicode="S" horiz-adv-x="1150" d="M70 905v240q1 53 4 80t18.5 68t46.5 73q35 36 85 55t84 22t89 3h637v-426h-350v125h-221v-264h264q57 -1 86.5 -3t77.5 -14t82 -35q30 -20 50.5 -46.5t31 -50t16 -58t6 -53.5t0.5 -54v-231q-1 -43 -2 -63.5t-8 -62.5t-20 -67.5t-39 -55.5t-64 -50q-32 -17 -70.5 -26 t-64 -10t-72.5 -1h-647v442h373v-141h221v291h-289q-45 1 -66 2.5t-59 8.5t-67.5 23.5t-55.5 43.5q-34 34 -51.5 77.5t-21 74t-4.5 83.5z" />
<glyph unicode="T" horiz-adv-x="1280" d="M18 911v535h1242v-535h-279v234h-145v-844h94v-301h-582v301h94v844h-145v-234h-279z" />
<glyph unicode="U" horiz-adv-x="1236" d="M31 1145v301h489v-1145h203v1145h487v-301h-94v-754q0 -51 -0.5 -74t-5 -67.5t-16.5 -78.5t-31 -62q-26 -38 -60 -61.5t-76 -33t-72 -12t-75 -2.5h-338q-52 1 -82 4t-74.5 18.5t-78.5 43.5q-53 47 -67.5 108t-14.5 174v797h-94z" />
<glyph unicode="V" horiz-adv-x="1236" d="M4 1145v301h434l135 -766q26 -139 34 -197.5t16 -160.5q8 103 15 156.5t28 170.5l90 496h-94v301h571v-301h-100l-242 -1145h-555l-238 1145h-94z" />
<glyph unicode="W" horiz-adv-x="1878" d="M4 1145v301h580v-301h-121l78 -553q16 -155 24 -311q12 163 49 348l162 817h346l152 -801q33 -181 51 -342q10 158 29 299l73 543h-133v301h582v-301h-96l-183 -1145h-491l-133 682q-22 128 -31 192q-13 -86 -39 -217l-127 -657h-487l-191 1145h-94z" />
<glyph unicode="X" horiz-adv-x="1193" d="M0 0v301h102l275 426l-264 418h-95v301h369l117 -207q54 -98 92 -188q48 87 102 172v223h492v-301h-107l-256 -393l271 -451h92v-301h-363l-157 270q-36 66 -76 154l-115 -197v-227h-479z" />
<glyph unicode="Y" horiz-adv-x="1110" d="M2 1133v313h385l139 -381q21 -69 29 -119q15 76 39 139l143 361h369v-313h-109l-252 -545v-287h101v-301h-584v301h100v287l-258 545h-102z" />
<glyph unicode="Z" horiz-adv-x="1067" d="M25 0v301l532 844h-203v-109h-311v410h971v-285l-533 -860h234v156h315v-457h-1005z" />
<glyph unicode="[" horiz-adv-x="468" d="M147 -242v1653q1 35 9.5 58t25.5 33t32 13.5t38 4.5h182v-109h-158v-1659h158v-106h-182q-54 2 -79.5 23t-25.5 89z" />
<glyph unicode="\" horiz-adv-x="811" d="M33 1446h139l604 -1446h-143z" />
<glyph unicode="]" horiz-adv-x="468" d="M37 -246h158v1659h-158v107h182q54 -2 79.5 -23.5t25.5 -89.5v-1653q-1 -35 -10 -57.5t-25.5 -32.5t-31.5 -13.5t-38 -4.5h-182v108z" />
<glyph unicode="^" horiz-adv-x="1492" d="M262 664l400 782h186l383 -782h-242l-237 501l-250 -501h-240z" />
<glyph unicode="_" horiz-adv-x="1024" d="M-20 -154h1064v-102h-1064v102z" />
<glyph unicode="`" d="M82 1425h227l162 -325h-205z" />
<glyph unicode="a" horiz-adv-x="1024" d="M49 213v139q1 61 14 100t40.5 60.5t62.5 29.5t90 9h317v178h-196v-104h-301v118q0 113 45 164q24 25 59 38t59 16t64 4h383q33 -1 49 -2.5t44.5 -7t50.5 -18.5t40 -34q29 -33 37 -71.5t8 -92.5v-479h93v-260h-435v111l-122 -111h-207q-37 2 -54 3.5t-47 13t-51 34.5 q-20 22 -30 54t-11.5 52.5t-1.5 55.5zM377 233h196v142h-196v-142z" />
<glyph unicode="b" horiz-adv-x="1024" d="M16 0v260h90v926h-90v260h437v-588l112 107h193q39 -1 59 -3.5t50.5 -17t50.5 -41.5q32 -44 32 -141v-510q0 -111 -24 -158q-17 -33 -41.5 -54t-57 -28.5t-53 -9.5t-53.5 -2h-146l-122 119v-119h-437zM453 260h155v445h-155v-445z" />
<glyph unicode="c" horiz-adv-x="897" d="M70 238v393q0 48 1 76t3.5 63.5t7.5 55t13 43.5t20.5 36.5t30 26t41 19.5t54 10t68.5 4h293q111 0 160 -29q28 -17 46 -39.5t25.5 -53t9.5 -49t3 -51.5v-141h-303v100h-129v-442h129v100h303v-100v-21q0 -46 -4 -77q-4 -38 -17 -71.5t-39 -51.5t-67 -28t-103 -11h-286 q-80 0 -117 8q-34 8 -60 23t-41 36.5t-24 40t-12.5 46.5t-4.5 43t-1 41z" />
<glyph unicode="d" horiz-adv-x="1024" d="M74 211v532q0 113 43 164q33 37 73 47.5t93 10.5h180l115 -107v328h-93v260h433v-1186h90v-260h-430v123l-127 -123h-142q-39 0 -62 1.5t-57.5 12t-58.5 31.5q-26 22 -39 54t-15.5 54.5t-2.5 57.5zM420 260h158v449h-158v-449z" />
<glyph unicode="e" horiz-adv-x="980" d="M72 240v456q0 44 0.5 64.5t6 54.5t17.5 57q13 26 33 44.5t38.5 28t45.5 14.5t42.5 5.5t39.5 0.5h356q76 -1 122 -10.5t77 -35.5t43.5 -69.5t13.5 -114.5v-321h-483v-181h156v109h327v-117q0 -39 -2 -62.5t-14.5 -55.5t-36.5 -56t-54.5 -36t-50.5 -13.5t-57 -1.5h-377 q-139 0 -191 48.5t-52 191.5zM424 598h156v135h-156v-135z" />
<glyph unicode="f" horiz-adv-x="641" d="M47 0v260h98v442h-98v263h98v260q0 37 2 59.5t14 55.5t36 57q22 22 55 33t52 13t61 3h249v-260h-125v-221h95v-263h-95v-442h95v-260h-537z" />
<glyph unicode="g" horiz-adv-x="1024" d="M72 190v523q0 80 7.5 121t37.5 75q33 38 75 47t125 9h125l121 -109v109h445v-263h-93v-837q0 -46 -1.5 -71.5t-9.5 -57t-25 -53.5q-30 -41 -76 -52.5t-129 -11.5h-357h-26q-30 0 -51 1q-30 3 -60.5 13t-46 29.5t-25.5 53.5t-10 85v123h316v-92h159v285l-127 -117h-170 q-112 0 -158 40t-46 150zM414 260h159v442h-159v-442z" />
<glyph unicode="h" horiz-adv-x="1067" d="M18 0v260h91v926h-91v260h437v-588l114 107h191q114 0 160 -52q18 -21 27 -50t10 -46.5t1 -52.5v-504h89v-260h-433v702h-159v-702h-437z" />
<glyph unicode="i" d="M14 0v260h92v445h-92v260h437v-705h92v-260h-529zM106 1241q0 62 43.5 105t106.5 43q61 0 104 -43t43 -105q0 -63 -42.5 -106t-104.5 -43q-63 0 -106.5 43t-43.5 106z" />
<glyph unicode="j" d="M-2 -125h108v830h-92v260h523v-260h-86v-848q-1 -77 -14 -123.5t-44.5 -71t-71.5 -32t-108 -7.5h-215v252zM127 1241q0 63 44.5 107.5t107.5 44.5t107 -44.5t44 -107.5t-44 -107t-107 -44t-107.5 44t-44.5 107z" />
<glyph unicode="k" horiz-adv-x="1067" d="M18 0v260h91v926h-91v260h433v-932l231 451h324v-263h-170l-80 -143h184v-299h107v-260h-439v346h-157v-346h-433z" />
<glyph unicode="l" d="M14 0v260h92v926h-92v260h435v-1186h94v-260h-529z" />
<glyph unicode="m" horiz-adv-x="1536" d="M18 707v258h435v-136l141 136h139q107 0 151 -27.5t56 -108.5l121 136h115h12q136 0 186 -45q52 -47 53 -193v-467h91v-260h-437v707h-141v-707h-346v707h-141v-707h-347v707h-88z" />
<glyph unicode="n" horiz-adv-x="1067" d="M23 702v263h430v-144l147 144h119q30 0 51 -1.5t50 -7.5t53 -20.5t42 -36.5q20 -24 30 -61t11.5 -61.5t1.5 -65.5v-451h95v-260h-437v702h-163v-702h-344v702h-86z" />
<glyph unicode="o" horiz-adv-x="980" d="M70 256v434q0 44 2 72t14.5 67.5t36.5 67.5q37 41 81.5 53.5t108.5 14.5h332q32 -1 44 -1.5t42.5 -4.5t48 -11t40 -21t38.5 -34q24 -27 36 -65.5t13.5 -64t1.5 -71.5v-373q0 -4 -0.5 -28.5t-1 -31t-1.5 -27t-3 -30.5t-4.5 -26t-6.5 -28.5t-9 -24.5q-15 -35 -38 -59.5 t-45 -36.5t-54 -18.5t-51 -7.5t-50 -1h-330q-44 1 -64.5 3t-56.5 14.5t-61 37.5q-28 27 -43 64t-17.5 64.5t-2.5 72.5zM414 260h149v449h-149v-449z" />
<glyph unicode="p" horiz-adv-x="1024" d="M12 -135h92v837h-92v263h437v-129l141 129h153q40 -1 62 -4t55.5 -19t54.5 -47q35 -50 35 -193v-438q0 -142 -39 -198q-22 -31 -55 -46.5t-56 -17.5t-63 -2h-162l-126 121v-256h104v-260h-541v260zM449 260h153v442h-153v-442z" />
<glyph unicode="q" horiz-adv-x="1024" d="M70 211v541q2 122 47 167t172 46h155l125 -117v117h439v-263h-93v-835h93v-258h-531v258h92v256l-125 -123h-145q-38 0 -63 2t-59 14t-58 35q-23 22 -34.5 52.5t-13 51t-1.5 56.5zM414 260h155v442h-155v-442z" />
<glyph unicode="r" horiz-adv-x="854" d="M16 0v260h90v445h-90v260h441v-107l104 107h84q37 -1 55.5 -3t48.5 -13.5t50 -33.5q18 -19 27.5 -45t10.5 -39.5t3 -46.5v-239h-269v160h-114v-445h94v-260h-535z" />
<glyph unicode="s" horiz-adv-x="937" d="M51 0v301h338v-72h148v115l-486 117v270q2 136 49.5 184.5t186.5 49.5h575v-295h-313v63h-160v-88l492 -121v-295q-1 -72 -13 -117t-40.5 -69.5t-66 -33t-97.5 -9.5h-613z" />
<glyph unicode="t" horiz-adv-x="598" d="M29 705v260h92v309h342v-309h94v-260h-94v-445h94v-260h-436v705h-92z" />
<glyph unicode="u" horiz-adv-x="1067" d="M14 705v260h435v-705h163v705h344v-705h84v-260h-428v143l-147 -143h-109q-41 0 -65 1.5t-59.5 11t-59.5 28.5q-22 17 -36.5 40t-20.5 50.5t-7.5 48t-1.5 49.5v476h-92z" />
<glyph unicode="v" horiz-adv-x="937" d="M0 705v260h371l69 -404q25 -176 31 -311q11 144 35 305l69 410h361v-260h-86l-141 -705h-473l-146 705h-90z" />
<glyph unicode="w" horiz-adv-x="1449" d="M0 705v260h383l39 -359q20 -174 27 -295q9 94 28 191l96 463h308l84 -387q29 -131 45 -252q4 85 14 204l47 435h377v-260h-86l-117 -705h-401l-119 477l-113 -477h-405l-117 705h-90z" />
<glyph unicode="x" horiz-adv-x="897" d="M4 0v260h98l142 227l-142 215h-98v263h320l75 -136q35 -66 50 -114q23 71 59 137l61 113h320v-263h-101l-137 -215l148 -227h90v-260h-320l-77 145q-22 41 -43 93q-26 -66 -62 -134l-59 -104h-324z" />
<glyph unicode="y" horiz-adv-x="897" d="M2 705v260h356l41 -224q34 -181 50 -364q15 153 36 272l54 316h358v-260h-88l-287 -1086h-360v252h92l31 115l-195 719h-88z" />
<glyph unicode="z" horiz-adv-x="937" d="M25 0v233l479 502h-199v-98h-264v328h850v-230l-473 -502h207v103h266v-336h-866z" />
<glyph unicode="{" horiz-adv-x="724" d="M123 547v74q32 9 48 16t38.5 27.5t38.5 54.5q26 55 26 137v234q2 154 17 223t65 121q50 50 107.5 67t152.5 19v-72q-31 -8 -47 -13t-43.5 -16.5t-48.5 -30.5t-37 -45q-23 -35 -30 -85.5t-7 -153.5v-178q0 -97 -13.5 -161t-46.5 -99t-55.5 -48t-70.5 -30q-7 -3 -10 -4 q75 -27 102 -48q85 -65 93 -251q1 -23 1 -47v-177q0 -103 7 -153.5t30 -85.5q16 -26 37 -45t48.5 -30.5t43.5 -16.5t47 -13v-71q-95 2 -152.5 19t-107.5 67q-50 52 -65 121t-17 223v237q0 81 -26 136q-16 34 -38.5 54.5t-38.5 27.5t-48 16z" />
<glyph unicode="|" horiz-adv-x="468" d="M129 -512v2048h211v-2048h-211z" />
<glyph unicode="}" horiz-adv-x="724" d="M109 -283q31 8 47 13t43.5 16.5t48.5 30.5t37 45q23 35 30 85.5t7 153.5v177q0 98 14 162.5t46.5 99.5t55 48t70.5 30q7 3 10 4q-3 1 -10 4q-75 27 -107 56q-79 74 -79 282v180q0 103 -7 153.5t-30 85.5q-16 26 -37 45t-48.5 30.5t-43.5 16.5t-47 13v72q95 -2 152.5 -19 t107.5 -67q50 -52 65 -121t17 -223v-234q0 -84 26 -139q16 -34 38 -55t39 -28t48 -16v-73q-31 -9 -48 -16t-39 -28t-38 -55q-26 -55 -26 -135v-235q-2 -154 -17 -223t-65 -121q-50 -50 -107.5 -67t-152.5 -19v71z" />
<glyph unicode="~" horiz-adv-x="1492" d="M231 604q16 23 26.5 37.5t40.5 45t59.5 49.5t75.5 34.5t95 15.5q52 0 98 -14.5t122 -50.5l69 -33q103 -43 150 -43q57 0 104.5 34.5t95.5 92.5l95 -182q-27 -28 -38 -39t-46.5 -41t-63 -44.5t-69.5 -28t-84 -13.5q-49 0 -93 15t-118 50l-60 29q-99 47 -158 47 q-57 0 -92.5 -26.5t-109.5 -112.5z" />
<glyph unicode="&#xa0;" />
<glyph unicode="&#xa1;" horiz-adv-x="512" d="M53 1294q0 66 47 113t113 47t113 -47t47 -113t-47 -112.5t-113 -46.5t-113 46.5t-47 112.5zM131 0v1010h174v-1010h-174z" />
<glyph unicode="&#xa2;" horiz-adv-x="897" d="M70 236v395q0 43 1 68.5t3 58.5t5.5 52t10 42.5t15.5 36.5t22 28t30.5 22t40 14t50.5 9.5t63 2.5h33v241h260v-241q105 0 158 -29q28 -17 46 -40t25.5 -53.5t9.5 -48.5t3 -51v-141h-303v100h-129v-444h129v100h303v-100q1 -59 -3.5 -97t-17.5 -71.5t-39 -51.5t-67.5 -28 t-102.5 -10h-12v-270h-260v270h-14q-80 0 -117 8q-34 8 -60 22.5t-41 36t-24 40t-12.5 46.5t-4.5 43t-1 40z" />
<glyph unicode="&#xa3;" horiz-adv-x="1280" d="M37 0v319q91 15 128.5 56t41.5 137v43h-170v266h170v289q1 46 2.5 66.5t7 59t19.5 68t36 56.5q25 29 53.5 47.5t64.5 26t60 9.5t68 3h377q48 -1 70.5 -2.5t62 -9t69.5 -25t56 -45.5q28 -31 43 -71.5t17.5 -66t3.5 -75.5v-156h-367v150h-254v-324h293v-266h-293v-39 q-5 -93 -27 -137.5t-84 -77.5h389v158h369v-459h-1206z" />
<glyph unicode="&#xa4;" horiz-adv-x="1366" d="M49 221l164 160q-35 56 -51.5 88t-31.5 92.5t-15 134.5q0 72 15 132.5t30.5 91.5t50.5 88l-158 159l156 156l160 -158q44 26 66.5 38t64 28.5t86.5 23.5t102 7q70 0 130.5 -16t88.5 -30.5t88 -50.5l160 158l160 -158l-162 -157q25 -41 37.5 -64.5t28.5 -63t23 -83 t7 -97.5q0 -62 -8.5 -112.5t-26.5 -92t-29 -61.5t-34 -55l162 -162l-160 -158l-160 162q-57 -34 -86.5 -48.5t-90.5 -30t-132 -15.5q-59 0 -110.5 9t-92 26.5t-62.5 29.5t-50 31l-162 -160zM324 692q0 -156 106.5 -258t251.5 -102q151 0 254 102t104 260q1 160 -107 261.5 t-249 101.5q-148 0 -254 -100.5t-106 -264.5z" />
<glyph unicode="&#xa5;" horiz-adv-x="1110" d="M0 1139v307h387l139 -447q9 -32 19.5 -95t13.5 -77q4 20 4 35q4 52 29 139l145 445h369v-307h-117l-117 -254h144v-180h-230l-24 -136h252v-180h-275v-86h105v-303h-582v303h105v86h-273v180h244l-31 136h-213v180h133l-112 254h-115z" />
<glyph unicode="&#xa6;" horiz-adv-x="468" d="M129 358h211v-716h-211v716zM129 666v716h211v-716h-211z" />
<glyph unicode="&#xa7;" horiz-adv-x="1024" d="M80 344v346q1 45 7.5 73.5t24.5 52t51.5 36t86.5 18.5q-80 15 -109 53t-32 132v180q1 55 8 89.5t27.5 63.5t59.5 42.5t101 15.5h436q32 0 50 -1.5t45 -13t45 -34.5q34 -42 34 -135v-152h-282v100h-246v-231h352q33 0 54.5 -2t51 -12.5t50.5 -30.5q21 -21 31.5 -51 t12 -49.5t1.5 -53.5v-338q0 -38 -4.5 -63.5t-19 -51.5t-45.5 -41.5t-80 -21.5q79 -17 108 -55.5t31 -122.5v-209q0 -110 -36 -151.5t-138 -42.5h-480q-96 1 -131.5 39.5t-35.5 132.5v176h278v-111h266v236h-368q-36 1 -55.5 3t-49.5 12t-51 28q-22 19 -33 47.5t-13 45 t-3 52.5zM365 399h292v340h-292v-340z" />
<glyph unicode="&#xa8;" d="M-55 1257q0 59 41.5 100.5t99.5 41.5t99.5 -41.5t41.5 -100.5t-41.5 -100t-99.5 -41t-99.5 41t-41.5 100zM330 1257q0 59 41.5 100.5t99.5 41.5t99.5 -41.5t41.5 -100.5t-41 -100t-100 -41t-100 41t-41 100z" />
<glyph unicode="&#xa9;" horiz-adv-x="1705" d="M125 721q0 152 57.5 288t155.5 233t233 153.5t285 56.5q151 0 285.5 -56.5t231.5 -154t153.5 -233.5t56.5 -289q0 -146 -55.5 -279.5t-151.5 -231.5t-233 -156t-291 -58q-141 0 -273 54t-232.5 147.5t-161 231t-60.5 294.5zM190 719q0 -176 86.5 -327.5t240.5 -242 t339 -90.5q130 0 249.5 49t210.5 134t146 209.5t56 267.5q1 132 -48.5 254t-136 213t-211 145.5t-266.5 54.5q-182 0 -335 -88t-242 -241.5t-89 -337.5zM381 745q0 73 11 133.5t42.5 120.5t82.5 101t136.5 66.5t198.5 25.5q70 0 162 -10l53 -4l156 -2l12 -318h-74 q-7 37 -11.5 57.5t-15 55t-21.5 55t-30.5 46t-42.5 39.5t-56.5 24t-74.5 10q-237 0 -237 -377q0 -116 18 -217q13 -77 38.5 -129t60.5 -78t70 -36.5t79 -10.5q39 0 71.5 10t54 24t38.5 39t26.5 44.5t17 52t10.5 49.5t7 49h74v-286l-199 -17q-118 -12 -178 -12 q-147 0 -236 34.5t-145 102.5q-49 59 -73.5 155.5t-24.5 202.5z" />
<glyph unicode="&#xaa;" horiz-adv-x="768" d="M37 883v102q1 85 36 116.5t120 33.5h243v141h-160v-86h-219v90q1 97 40.5 130.5t129.5 35.5h287q94 -2 132.5 -38.5t39.5 -129.5v-360h70v-195h-320v88l-98 -88h-156q-81 1 -113 37t-32 123zM276 891h160v117h-160v-117z" />
<glyph unicode="&#xab;" horiz-adv-x="681" d="M18 496l246 335l109 -77l-191 -260l191 -271l-113 -76zM289 487l256 344l108 -77l-198 -267l182 -264l-113 -76z" />
<glyph unicode="&#xac;" horiz-adv-x="1366" d="M0 496v211h1366v-707h-211v496h-1155z" />
<glyph unicode="&#xad;" horiz-adv-x="724" d="M49 397v201h625v-201h-625z" />
<glyph unicode="&#xae;" horiz-adv-x="1705" d="M123 723q0 154 59 290.5t158 232t232.5 151t279.5 55.5q155 0 292 -58.5t233 -157.5t151.5 -233.5t54.5 -281.5q-1 -150 -57.5 -284.5t-154 -231.5t-233 -154t-288.5 -57q-141 0 -273 54t-232.5 148t-161 231.5t-60.5 295.5zM188 723q0 -183 89.5 -336t242 -240.5 t332.5 -87.5q184 0 337 88t240.5 240t88.5 334q1 179 -84.5 331.5t-239 243t-338.5 90.5q-138 0 -262 -52.5t-213 -141.5t-141 -211.5t-52 -257.5zM475 260v102q42 5 58 9.5t24 15.5q7 9 8.5 22t1.5 68v527q2 55 -11 68.5t-81 17.5v104q57 -1 117 -2.5t84 -1.5q17 0 119.5 2 t122.5 2q140 0 210 -37q57 -31 89 -82t32 -112q0 -90 -58 -146t-157 -76q25 -12 43.5 -30.5t30.5 -43.5t17 -40t12 -39l20 -78q10 -49 18.5 -68.5t24.5 -19.5q33 0 51 110l92 -14q-6 -27 -8.5 -36.5t-9.5 -37.5t-12 -41t-15.5 -37.5t-20 -37t-24 -29.5t-30 -25.5t-36.5 -15 t-44 -6.5q-31 0 -56.5 8.5t-44.5 28.5t-32.5 39.5t-26 54.5t-19.5 59.5t-18 67.5q-10 41 -15.5 60t-15 45.5t-18 37.5t-22.5 23.5t-32 17.5t-42 6h-33v-258q0 -47 17 -58.5t87 -21.5v-102q-188 4 -192 4q-69 0 -205 -4zM768 829h45q112 0 170.5 29t58.5 103q0 120 -161 120 q-31 0 -48 -0.5t-31 -6t-20 -10t-9.5 -20.5t-4 -28.5t-0.5 -42.5v-144z" />
<glyph unicode="&#xaf;" d="M-47 1143v157h651v-157h-651z" />
<glyph unicode="&#xb0;" horiz-adv-x="724" d="M10 1194q0 146 103 249t249 103t249.5 -103t103.5 -249t-103.5 -249t-249.5 -103t-249 103t-103 249zM217 1194q0 -60 42.5 -102.5t102.5 -42.5t103 42.5t43 102.5t-43 102.5t-103 42.5t-102.5 -42.5t-42.5 -102.5z" />
<glyph unicode="&#xb1;" horiz-adv-x="1366" d="M84 0v211h1196v-211h-1196zM84 766v211h496v461h211v-461h489v-211h-489v-463h-211v463h-496z" />
<glyph unicode="&#xb2;" horiz-adv-x="768" d="M61 1090v182q2 49 18.5 84.5t37 52.5t52 26.5t49.5 11t42 1.5h180q105 0 152 -25q28 -15 46.5 -36t26.5 -49.5t10.5 -46.5t4.5 -52v-258l-262 -252h287v-186h-627v129l356 360v230h-141v-172h-232z" />
<glyph unicode="&#xb3;" horiz-adv-x="768" d="M57 729v111h230v-109h139v207h-143v113l153 213h-157v-99h-205v283h610v-170l-135 -180q70 -8 94.5 -43t24.5 -99v-237q-3 -32 -5.5 -48t-16 -42.5t-38.5 -46.5q-32 -25 -63 -32t-74 -7h-238q-28 2 -47 4.5t-45.5 14t-42.5 30t-28 53.5t-13 84z" />
<glyph unicode="&#xb4;" d="M82 1098l164 323h225l-180 -323h-209z" />
<glyph unicode="&#xb6;" horiz-adv-x="1366" d="M174 1022q0 165 92 274q41 51 90 83.5t104.5 45.5t88 16.5t84.5 4.5h491v-135h-71v-1653h-146v1653h-268v-1653h-145v969q-51 12 -79.5 21t-72.5 36t-78 68q-90 106 -90 270z" />
<glyph unicode="&#xb7;" horiz-adv-x="425" d="M57 502q0 65 46 110t112 45q65 0 110.5 -45.5t45.5 -109.5q0 -66 -45.5 -112t-110.5 -46q-66 0 -112 46t-46 112z" />
<glyph unicode="&#xb8;" d="M84 -254h195v53h-123v271h168v-142h147v-282h-387v100z" />
<glyph unicode="&#xb9;" horiz-adv-x="768" d="M100 1276l189 170h241v-717h80v-186h-428v186h94v490l-90 -91z" />
<glyph unicode="&#xba;" horiz-adv-x="724" d="M47 913v326q0 109 41 156q19 22 46 33.5t45 14t50 3.5h250q34 0 56 -2t53 -14.5t51 -36.5q18 -21 27 -50t10.5 -48t1.5 -54v-278q-4 -108 -21 -148q-13 -33 -34 -53t-49.5 -27.5t-46.5 -9.5t-48 -2h-248q-94 0 -137 41q-21 20 -32 48t-13 48.5t-2 52.5zM299 911h125v349 h-125v-349z" />
<glyph unicode="&#xbb;" horiz-adv-x="681" d="M29 754l108 77l256 -344l-235 -340l-113 76l182 264zM309 223l191 271l-191 260l109 77l246 -335l-242 -349z" />
<glyph unicode="&#xbc;" horiz-adv-x="1792" d="M100 1276l189 170h241v-717h80v-186h-428v186h94v490l-90 -91zM506 0l581 1446h197l-586 -1446h-192zM1071 285v202l307 416h258v-446h97v-172h-95v-99h95v-186h-424v186h96v99h-334zM1247 457h160v235q-12 -17 -34 -52.5t-34 -53.5q-8 -13 -92 -129z" />
<glyph unicode="&#xbd;" horiz-adv-x="1792" d="M100 1276l189 170h241v-717h80v-186h-428v186h94v490l-90 -91zM475 0l582 1446h196l-583 -1446h-195zM1085 547v182q2 49 18.5 84.5t37 52.5t52 26.5t49.5 11t42 1.5h180q107 0 152 -24q28 -15 46.5 -36t26.5 -49.5t10.5 -47t4.5 -52.5v-258l-262 -252h287v-186h-629v129 l358 360v230h-141v-172h-232z" />
<glyph unicode="&#xbe;" horiz-adv-x="1792" d="M57 729v111h230v-109h139v207h-143v113l153 211h-157v-99h-205v283h610v-170l-135 -178q70 -10 94.5 -45t24.5 -99v-235q-3 -32 -5.5 -48t-16 -42.5t-38.5 -46.5q-32 -25 -63 -32t-74 -7h-238q-28 2 -47 4.5t-45.5 14t-42.5 30t-28 53.5t-13 84zM535 0l583 1446h197 l-586 -1446h-194zM1071 285v202l307 416h258v-446h97v-172h-95v-99h95v-186h-424v186h96v99h-334zM1247 457h160v235q-12 -17 -34 -52.5t-34 -53.5q-8 -13 -92 -129z" />
<glyph unicode="&#xbf;" horiz-adv-x="937" d="M59 227v359q1 45 3 73t9.5 58t21.5 47.5t37 32.5t57.5 21.5t82.5 6.5h125v197h256v-487h-256v-308h156v127h254v-145q-2 -40 -3 -56.5t-10.5 -48.5t-27.5 -53q-19 -23 -47.5 -35t-50 -14t-54.5 -2h-348q-120 1 -162.5 52t-42.5 175zM367 1298q0 65 45.5 110.5t109.5 45.5 t110 -46t46 -110t-45.5 -109.5t-110.5 -45.5q-64 0 -109.5 45.5t-45.5 109.5z" />
<glyph unicode="&#xc0;" horiz-adv-x="1236" d="M0 0v301h106l199 1145h629l203 -1145h98v-301h-444l-52 352h-243l-50 -352h-446zM215 1747h281l335 -227h-280zM526 602h183l-91 606z" />
<glyph unicode="&#xc1;" horiz-adv-x="1236" d="M0 0v301h106l199 1145h629l203 -1145h98v-301h-444l-52 352h-243l-50 -352h-446zM401 1520l338 227h283l-338 -227h-283zM526 602h183l-91 606z" />
<glyph unicode="&#xc2;" horiz-adv-x="1236" d="M0 0v301h106l199 1145h629l203 -1145h98v-301h-444l-52 352h-243l-50 -352h-446zM272 1509l195 234h309l195 -234h-236l-119 127l-118 -127h-226zM526 602h183l-91 606z" />
<glyph unicode="&#xc3;" horiz-adv-x="1236" d="M0 0v301h106l199 1145h629l203 -1145h98v-301h-444l-52 352h-243l-50 -352h-446zM295 1507q1 28 3.5 47.5t8.5 52t18.5 55t31.5 45t50.5 34.5t71.5 12q41 0 125.5 -28.5t106.5 -28.5q14 0 23.5 4.5t14.5 14t7.5 17.5t5.5 23h180q-2 -26 -4 -42.5t-8 -46t-14 -49 t-22.5 -43.5t-33 -38.5t-46.5 -24.5t-62 -10q-59 0 -164 43q-37 15 -53 15q-19 0 -31 -9.5t-15.5 -18t-7.5 -24.5h-186zM526 602h183l-91 606z" />
<glyph unicode="&#xc4;" horiz-adv-x="1236" d="M0 0v301h106l199 1145h629l203 -1145h98v-301h-444l-52 352h-243l-50 -352h-446zM262 1655q0 59 41 100t100 41t100.5 -41.5t41.5 -99.5q0 -59 -41.5 -100.5t-100.5 -41.5q-58 0 -99.5 41.5t-41.5 100.5zM526 602h183l-91 606zM694 1655q0 58 41.5 99.5t100.5 41.5 q58 0 99.5 -41t41.5 -100t-41.5 -100.5t-99.5 -41.5t-100 41.5t-42 100.5z" />
<glyph unicode="&#xc5;" horiz-adv-x="1236" d="M0 0v301h106l199 1145h629l203 -1145h98v-301h-444l-52 352h-243l-50 -352h-446zM434 1671q0 74 53 128t129 54q75 0 129 -53.5t54 -128.5t-54.5 -128.5t-128.5 -53.5t-128 54.5t-54 127.5zM526 602h183l-91 606zM541 1671q0 -31 22 -53.5t53 -22.5t53.5 22t22.5 54 q0 31 -22.5 53.5t-53.5 22.5t-53 -22.5t-22 -53.5z" />
<glyph unicode="&#xc6;" horiz-adv-x="1665" d="M10 0v301h103l260 1145h1231v-471h-330v170h-225l20 -273h291v-270h-268l24 -301h172v188h334v-489h-854l-31 354h-233l-68 -354h-426zM549 602h166l-56 590z" />
<glyph unicode="&#xc7;" horiz-adv-x="1067" d="M74 330v766q0 58 2 89.5t16.5 78.5t42.5 82q37 46 95.5 69.5t102 27t116.5 3.5h567v-467h-334v166h-215v-844h215v231h350v-532h-377v-72h150v-282h-387v100h192v53h-123v201h-49q-62 0 -98 2t-90 18t-90 48q-30 27 -49 59.5t-26.5 71.5t-9 64t-1.5 67z" />
<glyph unicode="&#xc8;" horiz-adv-x="1110" d="M29 0v301h94v844h-94v301h1020v-473h-330v172h-209v-275h295v-266h-295v-303h209v186h352v-487h-1042zM152 1747h280l336 -227h-281z" />
<glyph unicode="&#xc9;" horiz-adv-x="1110" d="M29 0v301h94v844h-94v301h1020v-473h-330v172h-209v-275h295v-266h-295v-303h209v186h352v-487h-1042zM338 1520l338 227h282l-337 -227h-283z" />
<glyph unicode="&#xca;" horiz-adv-x="1110" d="M29 0v301h94v844h-94v301h1020v-473h-330v172h-209v-275h295v-266h-295v-303h209v186h352v-487h-1042zM209 1509l194 234h310l194 -234h-235l-119 127l-119 -127h-225z" />
<glyph unicode="&#xcb;" horiz-adv-x="1110" d="M29 0v301h94v844h-94v301h1020v-473h-330v172h-209v-275h295v-266h-295v-303h209v186h352v-487h-1042zM197 1649q0 59 41.5 100t99.5 41t99.5 -41t41.5 -100t-41.5 -100.5t-99.5 -41.5t-99.5 41.5t-41.5 100.5zM629 1649q0 59 41.5 100t99.5 41t99.5 -41t41.5 -100 t-41.5 -100.5t-99.5 -41.5t-99.5 41.5t-41.5 100.5z" />
<glyph unicode="&#xcc;" horiz-adv-x="641" d="M-84 1747h281l335 -227h-280zM27 0v301h94v844h-94v301h585v-301h-96v-844h96v-301h-585z" />
<glyph unicode="&#xcd;" horiz-adv-x="641" d="M27 0v301h94v844h-94v301h585v-301h-96v-844h96v-301h-585zM102 1520l338 227h283l-338 -227h-283z" />
<glyph unicode="&#xce;" horiz-adv-x="641" d="M-27 1509l195 234h309l195 -234h-236l-119 127l-118 -127h-226zM27 0v301h94v844h-94v301h585v-301h-96v-844h96v-301h-585z" />
<glyph unicode="&#xcf;" horiz-adv-x="641" d="M-39 1649q0 59 41.5 100t99.5 41q59 0 100.5 -41.5t41.5 -99.5q0 -59 -42 -100.5t-100 -41.5t-99.5 41.5t-41.5 100.5zM27 0v301h94v844h-94v301h585v-301h-96v-844h96v-301h-585zM393 1649q0 58 41.5 99.5t100.5 41.5t100 -41t41 -100t-41.5 -100.5t-99.5 -41.5 q-59 0 -100.5 41.5t-41.5 100.5z" />
<glyph unicode="&#xd0;" horiz-adv-x="1193" d="M29 0v301h92v352h-92v176h92v316h-92v301h733q51 0 80 -1t72.5 -9.5t72.5 -24.5q38 -20 65 -52t40.5 -63t20.5 -77t8 -74.5t1 -75.5v-676q0 -172 -35 -248q-18 -41 -47 -70t-56.5 -43t-70 -22t-69.5 -9t-72 -1h-743zM514 301h215v844h-215v-316h125v-176h-125v-352z" />
<glyph unicode="&#xd1;" horiz-adv-x="1366" d="M31 0v301h94v844h-94v301h463l323 -635q36 -69 50 -103.5t38 -107.5q-12 123 -12 266v580h442v-301h-94v-844h94v-301h-461l-294 563q-54 108 -73 153.5t-44 123.5q5 -45 8 -135l8 -705h-448zM358 1507q1 27 3.5 47t8.5 52.5t19 55t32 45t50.5 34.5t71.5 12 q41 0 125 -28.5t106 -28.5q14 0 23.5 4.5t14.5 14t7.5 17.5t5.5 23h181q-3 -37 -6.5 -61.5t-16.5 -65t-31.5 -65t-54 -43.5t-82.5 -19q-59 0 -164 43q-37 15 -53 15q-19 0 -31 -9.5t-15 -17.5t-7 -25h-187z" />
<glyph unicode="&#xd2;" horiz-adv-x="1150" d="M76 348v707q0 59 1 87t8 73t21 79q15 37 36 64t49.5 43t52.5 26t60.5 13.5t57.5 4.5t58 1h282q41 0 68.5 -1t63.5 -5t62 -12t53 -21.5t48.5 -35t38.5 -50.5q20 -36 30 -86.5t11.5 -89t1.5 -115.5v-598q0 -169 -18 -239q-11 -39 -29.5 -70t-38.5 -51t-50 -34.5 t-53.5 -21.5t-59 -11t-57 -4.5t-56.5 -0.5h-262q-60 0 -99.5 2.5t-96 18.5t-93.5 47q-32 27 -51.5 60t-27.5 75.5t-9.5 69.5t-1.5 75zM172 1747h281l335 -227h-280zM471 301h215v844h-215v-844z" />
<glyph unicode="&#xd3;" horiz-adv-x="1150" d="M76 348v707q0 59 1 87t8 73t21 79q15 37 36 64t49.5 43t52.5 26t60.5 13.5t57.5 4.5t58 1h282q41 0 68.5 -1t63.5 -5t62 -12t53 -21.5t48.5 -35t38.5 -50.5q20 -36 30 -86.5t11.5 -89t1.5 -115.5v-598q0 -169 -18 -239q-11 -39 -29.5 -70t-38.5 -51t-50 -34.5 t-53.5 -21.5t-59 -11t-57 -4.5t-56.5 -0.5h-262q-60 0 -99.5 2.5t-96 18.5t-93.5 47q-32 27 -51.5 60t-27.5 75.5t-9.5 69.5t-1.5 75zM358 1520l338 227h283l-338 -227h-283zM471 301h215v844h-215v-844z" />
<glyph unicode="&#xd4;" horiz-adv-x="1150" d="M76 348v707q0 59 1 87t8 73t21 79q15 37 36 64t49.5 43t52.5 26t60.5 13.5t57.5 4.5t58 1h282q41 0 68.5 -1t63.5 -5t62 -12t53 -21.5t48.5 -35t38.5 -50.5q20 -36 30 -86.5t11.5 -89t1.5 -115.5v-598q0 -169 -18 -239q-11 -39 -29.5 -70t-38.5 -51t-50 -34.5 t-53.5 -21.5t-59 -11t-57 -4.5t-56.5 -0.5h-262q-60 0 -99.5 2.5t-96 18.5t-93.5 47q-32 27 -51.5 60t-27.5 75.5t-9.5 69.5t-1.5 75zM229 1509l195 234h309l195 -234h-236l-119 127l-118 -127h-226zM471 301h215v844h-215v-844z" />
<glyph unicode="&#xd5;" horiz-adv-x="1150" d="M76 348v707q0 59 1 87t8 73t21 79q15 37 36 64t49.5 43t52.5 26t60.5 13.5t57.5 4.5t58 1h282q41 0 68.5 -1t63.5 -5t62 -12t53 -21.5t48.5 -35t38.5 -50.5q20 -36 30 -86.5t11.5 -89t1.5 -115.5v-598q0 -169 -18 -239q-11 -39 -29.5 -70t-38.5 -51t-50 -34.5 t-53.5 -21.5t-59 -11t-57 -4.5t-56.5 -0.5h-262q-60 0 -99.5 2.5t-96 18.5t-93.5 47q-32 27 -51.5 60t-27.5 75.5t-9.5 69.5t-1.5 75zM252 1507q1 28 3.5 47.5t8.5 52t18.5 55t31.5 45t50.5 34.5t71.5 12q41 0 125.5 -28.5t106.5 -28.5q14 0 23.5 4.5t14.5 14t7.5 17.5 t5.5 23h180q-2 -26 -4 -42.5t-8 -46t-14 -49t-22.5 -43.5t-33 -38.5t-46.5 -24.5t-62 -10q-59 0 -164 43q-37 15 -53 15q-19 0 -31 -9.5t-15.5 -18t-7.5 -24.5h-186zM471 301h215v844h-215v-844z" />
<glyph unicode="&#xd6;" horiz-adv-x="1150" d="M76 348v707q0 59 1 87t8 73t21 79q15 37 36 64t49.5 43t52.5 26t60.5 13.5t57.5 4.5t58 1h282q41 0 68.5 -1t63.5 -5t62 -12t53 -21.5t48.5 -35t38.5 -50.5q20 -36 30 -86.5t11.5 -89t1.5 -115.5v-598q0 -169 -18 -239q-11 -39 -29.5 -70t-38.5 -51t-50 -34.5 t-53.5 -21.5t-59 -11t-57 -4.5t-56.5 -0.5h-262q-60 0 -99.5 2.5t-96 18.5t-93.5 47q-32 27 -51.5 60t-27.5 75.5t-9.5 69.5t-1.5 75zM215 1651q0 59 41.5 100t99.5 41q59 0 100.5 -41.5t41.5 -99.5q0 -59 -42 -100.5t-100 -41.5t-99.5 41.5t-41.5 100.5zM471 301h215v844 h-215v-844zM647 1651q0 59 41.5 100t99.5 41q59 0 100.5 -41.5t41.5 -99.5q0 -59 -42 -100.5t-100 -41.5t-99.5 41.5t-41.5 100.5z" />
<glyph unicode="&#xd7;" horiz-adv-x="1366" d="M139 205l391 393l-391 393l152 152l391 -393l393 393l152 -152l-393 -393l393 -393l-152 -152l-393 393l-391 -393z" />
<glyph unicode="&#xd8;" horiz-adv-x="1150" d="M10 29l90 127q-16 44 -20 76t-6 106v727q0 56 1.5 89t11.5 83t30 86q21 35 51.5 60t58 37t68.5 18t63.5 7t61.5 1h285q121 -1 172.5 -13.5t101.5 -46.5l68 93l102 -72l-94 -133q14 -53 18 -89t4 -120v-629q-2 -136 -11 -204t-44 -121q-17 -26 -39 -46t-49 -31.5 t-50.5 -19t-56.5 -10.5t-53.5 -3.5t-54.5 -0.5h-295q-95 3 -137.5 11.5t-98.5 37.5l-71 -98zM459 301h233v461l-233 -330v-131zM459 653l233 328v164h-233v-492z" />
<glyph unicode="&#xd9;" horiz-adv-x="1236" d="M31 1145v301h489v-1145h203v1145h487v-301h-94v-754q0 -51 -0.5 -74t-5 -67.5t-16.5 -78.5t-31 -62q-26 -38 -60 -61.5t-76 -33t-72 -12t-75 -2.5h-338q-52 1 -82 4t-74.5 18.5t-78.5 43.5q-53 47 -67.5 108t-14.5 174v797h-94zM215 1747h281l335 -227h-280z" />
<glyph unicode="&#xda;" horiz-adv-x="1236" d="M31 1145v301h489v-1145h203v1145h487v-301h-94v-754q0 -51 -0.5 -74t-5 -67.5t-16.5 -78.5t-31 -62q-26 -38 -60 -61.5t-76 -33t-72 -12t-75 -2.5h-338q-52 1 -82 4t-74.5 18.5t-78.5 43.5q-53 47 -67.5 108t-14.5 174v797h-94zM401 1520l338 227h283l-338 -227h-283z " />
<glyph unicode="&#xdb;" horiz-adv-x="1236" d="M31 1145v301h489v-1145h203v1145h487v-301h-94v-754q0 -51 -0.5 -74t-5 -67.5t-16.5 -78.5t-31 -62q-26 -38 -60 -61.5t-76 -33t-72 -12t-75 -2.5h-338q-52 1 -82 4t-74.5 18.5t-78.5 43.5q-53 47 -67.5 108t-14.5 174v797h-94zM272 1509l195 234h309l195 -234h-236 l-119 127l-118 -127h-226z" />
<glyph unicode="&#xdc;" horiz-adv-x="1236" d="M31 1145v301h489v-1145h203v1145h487v-301h-94v-754q0 -51 -0.5 -74t-5 -67.5t-16.5 -78.5t-31 -62q-26 -38 -60 -61.5t-76 -33t-72 -12t-75 -2.5h-338q-52 1 -82 4t-74.5 18.5t-78.5 43.5q-53 47 -67.5 108t-14.5 174v797h-94zM264 1655q0 58 41.5 99.5t100.5 41.5 q58 0 99.5 -41t41.5 -100t-41.5 -100.5t-99.5 -41.5t-100 41.5t-42 100.5zM696 1655q0 58 41.5 99.5t100.5 41.5q58 0 99.5 -41t41.5 -100t-41.5 -100.5t-99.5 -41.5t-100 41.5t-42 100.5z" />
<glyph unicode="&#xdd;" horiz-adv-x="1110" d="M2 1133v313h385l139 -381q21 -69 29 -119q15 76 39 139l143 361h369v-313h-109l-252 -545v-287h101v-301h-584v301h100v287l-258 545h-102zM338 1520l338 227h282l-337 -227h-283z" />
<glyph unicode="&#xde;" horiz-adv-x="1150" d="M27 0v301h98v844h-98v301h581v-301h-90v-62h230q73 -1 103.5 -2.5t81 -10.5t85.5 -26q31 -16 53 -38t33 -41t17 -49t7 -45t2 -46v-151q0 -44 -1 -66t-9.5 -59.5t-25.5 -63.5q-24 -36 -60.5 -58.5t-87 -31t-83 -10.5t-87.5 -2h-258v-82h90v-301h-581zM518 623h283v221 h-283v-221z" />
<glyph unicode="&#xdf;" horiz-adv-x="980" d="M14 0v260h99v977q0 29 1 45.5t6 42t17.5 46.5t32.5 38q21 18 47.5 27t44 10.5t47.5 1.5h342v-260h-207v-223h322q32 -1 50.5 -3.5t45 -14.5t45.5 -34q16 -20 24.5 -47.5t9.5 -45.5t1 -50v-207q-2 -127 -38.5 -176.5t-151.5 -69.5q86 -8 129 -45q61 -53 61 -186v-309 q0 -98 -43.5 -139t-165.5 -41h-299v253h170v336h-160v-186h-430zM444 430h160v266h-160v-266z" />
<glyph unicode="&#xe0;" horiz-adv-x="1024" d="M49 213v139q1 61 14 100t40.5 60.5t62.5 29.5t90 9h317v178h-196v-104h-301v118q0 113 45 164q24 25 59 38t59 16t64 4h383q33 -1 49 -2.5t44.5 -7t50.5 -18.5t40 -34q29 -33 37 -71.5t8 -92.5v-479h93v-260h-435v111l-122 -111h-207q-37 2 -54 3.5t-47 13t-51 34.5 q-20 22 -30 54t-11.5 52.5t-1.5 55.5zM231 1425h228l162 -325h-205zM377 233h196v142h-196v-142z" />
<glyph unicode="&#xe1;" horiz-adv-x="1024" d="M49 213v139q1 61 14 100t40.5 60.5t62.5 29.5t90 9h317v178h-196v-104h-301v118q0 113 45 164q24 25 59 38t59 16t64 4h383q33 -1 49 -2.5t44.5 -7t50.5 -18.5t40 -34q29 -33 37 -71.5t8 -92.5v-479h93v-260h-435v111l-122 -111h-207q-37 2 -54 3.5t-47 13t-51 34.5 q-20 22 -30 54t-11.5 52.5t-1.5 55.5zM377 233h196v142h-196v-142zM401 1098l164 323h226l-181 -323h-209z" />
<glyph unicode="&#xe2;" horiz-adv-x="1024" d="M49 213v139q1 61 14 100t40.5 60.5t62.5 29.5t90 9h317v178h-196v-104h-301v118q0 113 45 164q24 25 59 38t59 16t64 4h383q33 -1 49 -2.5t44.5 -7t50.5 -18.5t40 -34q29 -33 37 -71.5t8 -92.5v-479h93v-260h-435v111l-122 -111h-207q-37 2 -54 3.5t-47 13t-51 34.5 q-20 22 -30 54t-11.5 52.5t-1.5 55.5zM236 1096l161 325h224l165 -325h-190l-84 174l-84 -174h-192zM377 233h196v142h-196v-142z" />
<glyph unicode="&#xe3;" horiz-adv-x="1024" d="M49 213v139q1 61 14 100t40.5 60.5t62.5 29.5t90 9h317v178h-196v-104h-301v118q0 113 45 164q24 25 59 38t59 16t64 4h383q33 -1 49 -2.5t44.5 -7t50.5 -18.5t40 -34q29 -33 37 -71.5t8 -92.5v-479h93v-260h-435v111l-122 -111h-207q-37 2 -54 3.5t-47 13t-51 34.5 q-20 22 -30 54t-11.5 52.5t-1.5 55.5zM188 1130q1 21 2.5 35t6.5 42t12 47.5t21 44t32 39.5t46 25.5t63 10.5q57 0 166 -41q48 -16 67 -16q18 0 29 9.5t14 20t6 27.5h185q-3 -36 -6.5 -59.5t-16.5 -64t-31.5 -65t-54.5 -44t-84 -19.5q-51 0 -153 41q-48 19 -64 19 q-45 0 -51 -52h-189zM377 233h196v142h-196v-142z" />
<glyph unicode="&#xe4;" horiz-adv-x="1024" d="M49 213v139q1 61 14 100t40.5 60.5t62.5 29.5t90 9h317v178h-196v-104h-301v118q0 113 45 164q24 25 59 38t59 16t64 4h383q33 -1 49 -2.5t44.5 -7t50.5 -18.5t40 -34q29 -33 37 -71.5t8 -92.5v-479h93v-260h-435v111l-122 -111h-207q-37 2 -54 3.5t-47 13t-51 34.5 q-20 22 -30 54t-11.5 52.5t-1.5 55.5zM201 1253q0 59 41.5 100.5t99.5 41.5t99.5 -41.5t41.5 -100.5t-41.5 -100t-99.5 -41t-99.5 41t-41.5 100zM377 233h196v142h-196v-142zM586 1253q0 59 41.5 100.5t99.5 41.5t99.5 -41.5t41.5 -100.5t-41 -100t-100 -41t-100 41t-41 100 z" />
<glyph unicode="&#xe5;" horiz-adv-x="1024" d="M49 213v139q1 61 14 100t40.5 60.5t62.5 29.5t90 9h317v178h-196v-104h-301v118q0 113 45 164q24 25 59 38t59 16t64 4h383q33 -1 49 -2.5t44.5 -7t50.5 -18.5t40 -34q29 -33 37 -71.5t8 -92.5v-479h93v-260h-435v111l-122 -111h-207q-37 2 -54 3.5t-47 13t-51 34.5 q-20 22 -30 54t-11.5 52.5t-1.5 55.5zM330 1255q0 74 53 128.5t129 54.5q75 0 128.5 -54t53.5 -129t-54 -128.5t-128 -53.5t-128 54.5t-54 127.5zM377 233h196v142h-196v-142zM436 1255q0 -31 22.5 -53t53.5 -22t53.5 21.5t22.5 53.5q0 31 -22.5 53.5t-53.5 22.5 t-53.5 -22.5t-22.5 -53.5z" />
<glyph unicode="&#xe6;" horiz-adv-x="1492" d="M51 213v131q2 118 47 163t166 46h299v180h-188v-102h-293v112q1 33 2 46t6 42t16 49.5t29 37.5q21 21 51 32t52 13t55 2h219q111 0 151.5 -18.5t69.5 -94.5q21 69 62 91t131 22h280q35 0 59 -2.5t55.5 -16t53.5 -39.5q43 -49 43 -166v-323h-508v-182h187v104h321v-96 q-1 -72 -10.5 -116t-35.5 -74.5t-69 -42t-112 -11.5h-223q-61 1 -91 3.5t-60.5 14t-48 33.5t-34.5 62q-25 -67 -62.5 -90t-125.5 -23h-295q-39 1 -56.5 3t-48 14t-51.5 36q-20 22 -30 52t-11.5 50.5t-1.5 57.5zM375 236h188v145h-188v-145zM909 596h187v137h-187v-137z" />
<glyph unicode="&#xe7;" horiz-adv-x="897" d="M70 236v395q0 48 1 76t3.5 63.5t7.5 55t13 43.5t20.5 36.5t30 26t41 19.5t54 10t68.5 4h293q111 0 160 -29q28 -17 46 -39.5t25.5 -53t9.5 -49t3 -51.5v-141h-303v100h-129v-444h129v100h303v-100q1 -59 -3.5 -97t-17.5 -71.5t-39 -51.5t-67.5 -28t-102.5 -10h-90v-72 h150v-282h-389v100h194v53h-123v201h-26q-80 0 -119 8q-34 8 -60 22.5t-41 36t-24 40t-12.5 46.5t-4.5 43t-1 40z" />
<glyph unicode="&#xe8;" horiz-adv-x="980" d="M72 240v456q0 44 0.5 64.5t6 54.5t17.5 57q13 26 33 44.5t38.5 28t45.5 14.5t42.5 5.5t39.5 0.5h356q76 -1 122 -10.5t77 -35.5t43.5 -69.5t13.5 -114.5v-321h-483v-181h156v109h327v-117q0 -39 -2 -62.5t-14.5 -55.5t-36.5 -56t-54.5 -36t-50.5 -13.5t-57 -1.5h-377 q-139 0 -191 48.5t-52 191.5zM207 1425h227l162 -325h-205zM424 598h156v135h-156v-135z" />
<glyph unicode="&#xe9;" horiz-adv-x="980" d="M72 240v456q0 44 0.5 64.5t6 54.5t17.5 57q13 26 33 44.5t38.5 28t45.5 14.5t42.5 5.5t39.5 0.5h356q76 -1 122 -10.5t77 -35.5t43.5 -69.5t13.5 -114.5v-321h-483v-181h156v109h327v-117q0 -39 -2 -62.5t-14.5 -55.5t-36.5 -56t-54.5 -36t-50.5 -13.5t-57 -1.5h-377 q-139 0 -191 48.5t-52 191.5zM377 1098l164 323h225l-180 -323h-209zM424 598h156v135h-156v-135z" />
<glyph unicode="&#xea;" horiz-adv-x="980" d="M72 240v456q0 44 0.5 64.5t6 54.5t17.5 57q13 26 33 44.5t38.5 28t45.5 14.5t42.5 5.5t39.5 0.5h356q76 -1 122 -10.5t77 -35.5t43.5 -69.5t13.5 -114.5v-321h-483v-181h156v109h327v-117q0 -39 -2 -62.5t-14.5 -55.5t-36.5 -56t-54.5 -36t-50.5 -13.5t-57 -1.5h-377 q-139 0 -191 48.5t-52 191.5zM211 1096l162 325h223l166 -325h-191l-84 174l-84 -174h-192zM424 598h156v135h-156v-135z" />
<glyph unicode="&#xeb;" horiz-adv-x="980" d="M72 240v456q0 44 0.5 64.5t6 54.5t17.5 57q13 26 33 44.5t38.5 28t45.5 14.5t42.5 5.5t39.5 0.5h356q76 -1 122 -10.5t77 -35.5t43.5 -69.5t13.5 -114.5v-321h-483v-181h156v109h327v-117q0 -39 -2 -62.5t-14.5 -55.5t-36.5 -56t-54.5 -36t-50.5 -13.5t-57 -1.5h-377 q-139 0 -191 48.5t-52 191.5zM152 1257q0 59 41.5 100.5t99.5 41.5t99.5 -41.5t41.5 -100.5t-41 -100t-100 -41t-100 41t-41 100zM424 598h156v135h-156v-135zM537 1257q0 59 41.5 100.5t99.5 41.5t99.5 -41.5t41.5 -100.5t-41.5 -100t-99.5 -41t-99.5 41t-41.5 100z" />
<glyph unicode="&#xec;" d="M-6 1425h227l162 -325h-205zM12 0v260h92v442h-92v263h439v-705h90v-260h-529z" />
<glyph unicode="&#xed;" d="M12 0v260h92v442h-92v263h439v-705h90v-260h-529zM164 1098l164 323h225l-180 -323h-209z" />
<glyph unicode="&#xee;" d="M-2 1096l162 325h223l166 -325h-191l-84 174l-84 -174h-192zM12 0v260h92v442h-92v263h439v-705h90v-260h-529z" />
<glyph unicode="&#xef;" d="M-61 1257q0 59 41.5 100.5t99.5 41.5t99.5 -41.5t41.5 -100.5t-41.5 -100t-99.5 -41t-99.5 41t-41.5 100zM12 0v260h92v442h-92v263h439v-705h90v-260h-529zM324 1257q0 59 41.5 100.5t99.5 41.5t99.5 -41.5t41.5 -100.5t-41 -100t-100 -41t-100 41t-41 100z" />
<glyph unicode="&#xf0;" horiz-adv-x="980" d="M74 215v530q0 101 63 164q60 58 168 58h242l-70 131h-239l-86 162h241l-98 186h305l100 -186h154l84 -162h-152l13 -23q63 -121 85 -191.5t25 -172.5v-467q-3 -36 -6 -59t-15.5 -54.5t-33.5 -56.5q-33 -40 -82.5 -57t-93.5 -17h-385q-97 0 -168 68q-22 22 -33.5 49 t-14 45.5t-3.5 52.5zM416 258h149v457h-149v-457z" />
<glyph unicode="&#xf1;" horiz-adv-x="1067" d="M23 702v263h430v-144l147 144h119q30 0 51 -1.5t50 -7.5t53 -20.5t42 -36.5q20 -24 30 -61t11.5 -61.5t1.5 -65.5v-451h95v-260h-437v702h-163v-702h-344v702h-86zM207 1130q1 22 2.5 35t6 41.5t11.5 48t21 44t32 39.5t46 25.5t63 10.5q57 0 166 -41q48 -16 68 -16 q18 0 29 9.5t14 20t6 27.5h184q-3 -30 -5.5 -48.5t-10 -53t-20.5 -57t-33 -46t-51.5 -35.5t-71.5 -12q-52 0 -154 41q-48 19 -64 19q-45 0 -51 -52h-188z" />
<glyph unicode="&#xf2;" horiz-adv-x="980" d="M70 256v434q0 44 2 72t14.5 67.5t36.5 67.5q37 41 81.5 53.5t108.5 14.5h332q32 -1 44 -1.5t42.5 -4.5t48 -11t40 -21t38.5 -34q24 -27 36 -65.5t13.5 -64t1.5 -71.5v-373q0 -4 -0.5 -28.5t-1 -31t-1.5 -27t-3 -30.5t-4.5 -26t-6.5 -28.5t-9 -24.5q-15 -35 -38 -59.5 t-45 -36.5t-54 -18.5t-51 -7.5t-50 -1h-330q-44 1 -64.5 3t-56.5 14.5t-61 37.5q-28 27 -43 64t-17.5 64.5t-2.5 72.5zM207 1425h227l162 -325h-205zM414 260h149v449h-149v-449z" />
<glyph unicode="&#xf3;" horiz-adv-x="980" d="M70 256v434q0 44 2 72t14.5 67.5t36.5 67.5q37 41 81.5 53.5t108.5 14.5h332q32 -1 44 -1.5t42.5 -4.5t48 -11t40 -21t38.5 -34q24 -27 36 -65.5t13.5 -64t1.5 -71.5v-373q0 -4 -0.5 -28.5t-1 -31t-1.5 -27t-3 -30.5t-4.5 -26t-6.5 -28.5t-9 -24.5q-15 -35 -38 -59.5 t-45 -36.5t-54 -18.5t-51 -7.5t-50 -1h-330q-44 1 -64.5 3t-56.5 14.5t-61 37.5q-28 27 -43 64t-17.5 64.5t-2.5 72.5zM377 1098l164 323h225l-180 -323h-209zM414 260h149v449h-149v-449z" />
<glyph unicode="&#xf4;" horiz-adv-x="980" d="M70 256v434q0 44 2 72t14.5 67.5t36.5 67.5q37 41 81.5 53.5t108.5 14.5h332q32 -1 44 -1.5t42.5 -4.5t48 -11t40 -21t38.5 -34q24 -27 36 -65.5t13.5 -64t1.5 -71.5v-373q0 -4 -0.5 -28.5t-1 -31t-1.5 -27t-3 -30.5t-4.5 -26t-6.5 -28.5t-9 -24.5q-15 -35 -38 -59.5 t-45 -36.5t-54 -18.5t-51 -7.5t-50 -1h-330q-44 1 -64.5 3t-56.5 14.5t-61 37.5q-28 27 -43 64t-17.5 64.5t-2.5 72.5zM211 1096l162 325h223l166 -325h-191l-84 174l-84 -174h-192zM414 260h149v449h-149v-449z" />
<glyph unicode="&#xf5;" horiz-adv-x="980" d="M70 256v434q0 44 2 72t14.5 67.5t36.5 67.5q37 41 81.5 53.5t108.5 14.5h332q32 -1 44 -1.5t42.5 -4.5t48 -11t40 -21t38.5 -34q24 -27 36 -65.5t13.5 -64t1.5 -71.5v-373q0 -4 -0.5 -28.5t-1 -31t-1.5 -27t-3 -30.5t-4.5 -26t-6.5 -28.5t-9 -24.5q-15 -35 -38 -59.5 t-45 -36.5t-54 -18.5t-51 -7.5t-50 -1h-330q-44 1 -64.5 3t-56.5 14.5t-61 37.5q-28 27 -43 64t-17.5 64.5t-2.5 72.5zM164 1130q1 22 2.5 35t6 41.5t11.5 48t21 44t32 39.5t46 25.5t63 10.5q57 0 166 -41q48 -16 68 -16q18 0 29 9.5t14 20t6 27.5h184q-3 -30 -5.5 -48.5 t-10 -53t-20.5 -57t-33 -46t-51.5 -35.5t-71.5 -12q-52 0 -154 41q-48 19 -64 19q-45 0 -51 -52h-188zM414 260h149v449h-149v-449z" />
<glyph unicode="&#xf6;" horiz-adv-x="980" d="M70 256v434q0 44 2 72t14.5 67.5t36.5 67.5q37 41 81.5 53.5t108.5 14.5h332q32 -1 44 -1.5t42.5 -4.5t48 -11t40 -21t38.5 -34q24 -27 36 -65.5t13.5 -64t1.5 -71.5v-373q0 -4 -0.5 -28.5t-1 -31t-1.5 -27t-3 -30.5t-4.5 -26t-6.5 -28.5t-9 -24.5q-15 -35 -38 -59.5 t-45 -36.5t-54 -18.5t-51 -7.5t-50 -1h-330q-44 1 -64.5 3t-56.5 14.5t-61 37.5q-28 27 -43 64t-17.5 64.5t-2.5 72.5zM154 1255q0 59 41.5 100.5t99.5 41.5t99.5 -41.5t41.5 -100.5t-41 -100t-100 -41t-100 41t-41 100zM414 260h149v449h-149v-449zM539 1255 q0 59 41.5 100.5t99.5 41.5t99.5 -41.5t41.5 -100.5t-41.5 -100t-99.5 -41t-99.5 41t-41.5 100z" />
<glyph unicode="&#xf7;" horiz-adv-x="1366" d="M0 465v260h1366v-260h-1366zM518 227q0 68 48.5 117t117.5 49q67 0 115.5 -49t48.5 -117q0 -67 -48 -115.5t-116 -48.5q-69 0 -117.5 48t-48.5 116zM518 963q0 68 48.5 115.5t117.5 47.5q68 0 116 -48t48 -115q0 -69 -48 -117.5t-116 -48.5q-69 0 -117.5 48.5 t-48.5 117.5z" />
<glyph unicode="&#xf8;" horiz-adv-x="980" d="M2 47l80 88q-12 47 -12 101v469q1 45 3.5 69.5t15 61t36.5 63.5q26 28 62 42.5t60 17.5t72 6h326q76 -2 113.5 -10.5t70.5 -34.5l64 67l80 -80l-80 -82q16 -60 16 -120v-416q-4 -126 -28 -174q-16 -32 -40.5 -54.5t-46 -33.5t-55.5 -17.5t-52.5 -7.5t-53.5 -2h-297 q-77 2 -112 10.5t-72 36.5l-70 -74zM397 260h185v238l-185 -195v-43zM397 463l185 194v48h-185v-242z" />
<glyph unicode="&#xf9;" horiz-adv-x="1067" d="M14 705v260h435v-705h163v705h344v-705h84v-260h-428v143l-147 -143h-109q-41 0 -65 1.5t-59.5 11t-59.5 28.5q-22 17 -36.5 40t-20.5 50.5t-7.5 48t-1.5 49.5v476h-92zM250 1425h227l162 -325h-205z" />
<glyph unicode="&#xfa;" horiz-adv-x="1067" d="M14 705v260h435v-705h163v705h344v-705h84v-260h-428v143l-147 -143h-109q-41 0 -65 1.5t-59.5 11t-59.5 28.5q-22 17 -36.5 40t-20.5 50.5t-7.5 48t-1.5 49.5v476h-92zM420 1098l164 323h225l-180 -323h-209z" />
<glyph unicode="&#xfb;" horiz-adv-x="1067" d="M14 705v260h435v-705h163v705h344v-705h84v-260h-428v143l-147 -143h-109q-41 0 -65 1.5t-59.5 11t-59.5 28.5q-22 17 -36.5 40t-20.5 50.5t-7.5 48t-1.5 49.5v476h-92zM254 1096l162 325h223l166 -325h-191l-84 174l-84 -174h-192z" />
<glyph unicode="&#xfc;" horiz-adv-x="1067" d="M14 705v260h435v-705h163v705h344v-705h84v-260h-428v143l-147 -143h-109q-41 0 -65 1.5t-59.5 11t-59.5 28.5q-22 17 -36.5 40t-20.5 50.5t-7.5 48t-1.5 49.5v476h-92zM195 1257q0 59 41.5 100.5t99.5 41.5t99.5 -41.5t41.5 -100.5t-41.5 -100t-99.5 -41t-99.5 41 t-41.5 100zM580 1257q0 59 41.5 100.5t99.5 41.5t99.5 -41.5t41.5 -100.5t-41 -100t-100 -41t-100 41t-41 100z" />
<glyph unicode="&#xfd;" horiz-adv-x="897" d="M2 705v260h356l41 -224q34 -181 50 -364q15 153 36 272l54 316h358v-260h-88l-287 -1086h-360v252h92l31 115l-195 719h-88zM338 1098l164 323h225l-180 -323h-209z" />
<glyph unicode="&#xfe;" horiz-adv-x="1024" d="M14 -135h92v1319h-92v262h445v-604l141 125h152q198 0 198 -205v-551q0 -101 -45 -154q-46 -57 -131 -57h-194l-121 113v-248h86v-260h-531v260zM459 260h145v445h-145v-445z" />
<glyph unicode="&#xff;" horiz-adv-x="897" d="M2 705v260h356l41 -224q34 -181 50 -364q15 153 36 272l54 316h358v-260h-88l-287 -1086h-360v252h92l31 115l-195 719h-88zM113 1257q0 59 41.5 100.5t99.5 41.5t99.5 -41.5t41.5 -100.5t-41.5 -100t-99.5 -41t-99.5 41t-41.5 100zM498 1257q0 59 41.5 100.5t99.5 41.5 t99.5 -41.5t41.5 -100.5t-41 -100t-100 -41t-100 41t-41 100z" />
<glyph unicode="&#x152;" horiz-adv-x="1665" d="M72 369v671q1 72 2.5 104t7 74.5t16.5 71.5q11 32 29.5 57t36 41t45.5 27.5t46 17t50.5 8.5t46 3.5t45.5 1.5h1207v-471h-332v170h-199v-275h287v-266h-287v-303h199v188h352v-489h-1108q-89 0 -139 2.5t-109.5 16t-97.5 40.5q-34 25 -55.5 59t-30 80t-10.5 80t-2 91z M471 301h209v844h-209v-844z" />
<glyph unicode="&#x153;" horiz-adv-x="1492" d="M70 240v479q1 36 2.5 51t7 46t18.5 54t35 43q26 24 60.5 36t58 14t61.5 2h230q86 2 126.5 -19.5t65.5 -89.5q13 36 30.5 58.5t42 33t48 14t59.5 3.5h279q39 0 63 -2t58 -15t57 -39q45 -51 45 -164v-327h-508v-185h183v109h325v-94q-2 -45 -3 -64.5t-11.5 -55t-30.5 -60.5 q-23 -29 -56.5 -45t-57.5 -19t-66 -4h-270q-81 3 -116.5 25t-53.5 84q-21 -67 -60 -88t-117 -21h-260q-45 2 -66 3.5t-59 15t-63 38.5q-25 24 -38 59t-15.5 58.5t-3.5 65.5zM406 260h163v451h-163v-451zM909 596h183v139h-183v-139z" />
<glyph unicode="&#x178;" horiz-adv-x="1110" d="M2 1133v313h385l139 -381q21 -69 29 -119q15 76 39 139l143 361h369v-313h-109l-252 -545v-287h101v-301h-584v301h100v287l-258 545h-102zM197 1649q0 59 41.5 100t99.5 41t99.5 -41t41.5 -100t-41.5 -100.5t-99.5 -41.5t-99.5 41.5t-41.5 100.5zM629 1649 q0 59 41.5 100t99.5 41t99.5 -41t41.5 -100t-41.5 -100.5t-99.5 -41.5t-99.5 41.5t-41.5 100.5z" />
<glyph unicode="&#x2c6;" d="M2 1096l162 325h223l166 -325h-191l-83 174l-84 -174h-193z" />
<glyph unicode="&#x2dc;" d="M-47 1130q1 22 2.5 35t6 41.5t11.5 48t21 44t32 39.5t46 25.5t63 10.5q57 0 166 -41q48 -16 68 -16q18 0 29 9.5t14 20t6 27.5h184q-3 -30 -5.5 -48.5t-10 -53t-20.5 -57t-33 -46t-51.5 -35.5t-71.5 -12q-52 0 -154 41q-47 19 -63 19q-46 0 -52 -52h-188z" />
<glyph unicode="&#x2000;" horiz-adv-x="926" />
<glyph unicode="&#x2001;" horiz-adv-x="1853" />
<glyph unicode="&#x2002;" horiz-adv-x="926" />
<glyph unicode="&#x2003;" horiz-adv-x="1853" />
<glyph unicode="&#x2004;" horiz-adv-x="617" />
<glyph unicode="&#x2005;" horiz-adv-x="463" />
<glyph unicode="&#x2006;" horiz-adv-x="308" />
<glyph unicode="&#x2007;" horiz-adv-x="308" />
<glyph unicode="&#x2008;" horiz-adv-x="231" />
<glyph unicode="&#x2009;" horiz-adv-x="370" />
<glyph unicode="&#x200a;" horiz-adv-x="102" />
<glyph unicode="&#x2010;" horiz-adv-x="724" d="M49 397v201h625v-201h-625z" />
<glyph unicode="&#x2011;" horiz-adv-x="724" d="M49 397v201h625v-201h-625z" />
<glyph unicode="&#x2012;" horiz-adv-x="724" d="M49 397v201h625v-201h-625z" />
<glyph unicode="&#x2013;" horiz-adv-x="1193" d="M51 401v203h1090v-203h-1090z" />
<glyph unicode="&#x2014;" horiz-adv-x="1366" d="M51 401v203h1260v-203h-1260z" />
<glyph unicode="&#x2018;" horiz-adv-x="425" d="M2 948l207 498h180l-207 -498h-180z" />
<glyph unicode="&#x2019;" horiz-adv-x="425" d="M0 948l209 498h180l-207 -498h-182z" />
<glyph unicode="&#x201a;" horiz-adv-x="425" d="M0 -219l209 498h180l-207 -498h-182z" />
<glyph unicode="&#x201c;" horiz-adv-x="681" d="M41 944l219 502h146l-218 -502h-147zM301 944l213 502h148l-216 -502h-145z" />
<glyph unicode="&#x201d;" horiz-adv-x="681" d="M41 944l219 502h146l-218 -502h-147zM301 944l213 502h148l-216 -502h-145z" />
<glyph unicode="&#x201e;" horiz-adv-x="681" d="M0 -227l223 506h148l-221 -506h-150zM256 -227l221 506h150l-221 -506h-150z" />
<glyph unicode="&#x2022;" horiz-adv-x="681" d="M49 723q0 120 86 205.5t207 85.5q120 0 205.5 -85.5t85.5 -205.5q0 -121 -85.5 -207t-205.5 -86q-122 0 -207.5 86t-85.5 207z" />
<glyph unicode="&#x2026;" horiz-adv-x="2048" d="M176 152q0 67 48 115t116 48t116 -48t48 -115q0 -68 -48 -116t-116 -48t-116 48t-48 116zM860 152q0 67 48 115t116 48t116 -48t48 -115q0 -68 -48 -116t-116 -48t-116 48t-48 116zM1544 152q0 67 48 115t116 48t116 -48t48 -115q0 -68 -48 -116t-116 -48t-116 48 t-48 116z" />
<glyph unicode="&#x202f;" horiz-adv-x="370" />
<glyph unicode="&#x2039;" horiz-adv-x="425" d="M27 487l256 344l106 -77l-196 -267l180 -264l-111 -76z" />
<glyph unicode="&#x203a;" horiz-adv-x="425" d="M37 754l108 77l254 -344l-235 -340l-111 76l183 264z" />
<glyph unicode="&#x205f;" horiz-adv-x="463" />
<glyph unicode="&#x2122;" horiz-adv-x="1579" d="M53 1257q5 74 8 191q196 -4 293 -4q95 0 291 4q2 -114 8 -191h-82q-9 31 -17.5 50t-15.5 31t-18 17t-20 6.5t-27 2.5h-45v-467q0 -27 11 -35.5t40 -11.5l39 -2v-82q-98 4 -166 4q-62 0 -164 -4v82l33 2q29 3 39 8t15 21.5t4 56.5v428h-46q-45 -3 -60.5 -20t-37.5 -87h-82 zM686 766v78l29 6q31 4 37 18.5t8 67.5v416q-25 16 -64 14v82q37 -2 107 -2q67 0 100 2l193 -473l196 473q100 -2 209 0v-82h-16q-45 -1 -53.5 -16t-8.5 -82v-371q0 -30 12 -38t54 -13v-80q-90 4 -139 4q-46 0 -136 -4v80l13 2q38 0 45.5 13.5t7.5 74.5v258l-176 -426h-62 l-176 430v-262q0 -18 1 -30t1.5 -21.5t5 -15.5t6 -9.5t11.5 -6t13 -3t19 -2t23 -2.5v-80q-43 2 -127 2q-88 0 -133 -2z" />
<glyph unicode="&#x25fc;" horiz-adv-x="962" d="M0 0v963h963v-963h-963z" />
<glyph unicode="&#xfb01;" horiz-adv-x="1193" d="M45 0v260h98v442h-98v263h98v260q0 37 2 59.5t14 55.5t36 57q22 22 54 33t51 13t62 3h252v-260h-127v-221h95v-263h-95v-442h95v-260h-537zM653 0v260h95v445h-95v260h439v-705h92v-260h-531zM745 1241q0 62 43.5 105t106.5 43q61 0 104 -43t43 -105q0 -63 -42.5 -106 t-104.5 -43q-63 0 -106.5 43t-43.5 106z" />
<glyph unicode="&#xfb02;" horiz-adv-x="1193" d="M45 0v260h98v442h-98v263h98v260q0 37 2 59.5t14 55.5t36 57q22 22 54 33t51 13t62 3h725v-1186h95v-260h-529v260h92v926h-258v-221h95v-263h-95v-442h95v-260h-537z" />
</font>
</defs>
</svg>
