<?xml version="1.0" standalone="no"?>
<!DOCTYPE svg PUBLIC "-//W3C//DTD SVG 1.1//EN" "http://www.w3.org/Graphics/SVG/1.1/DTD/svg11.dtd" >
<svg xmlns="http://www.w3.org/2000/svg">
<metadata></metadata>
<defs>
<font id="berthold_citymedium" horiz-adv-x="1110" >
<font-face units-per-em="2048" ascent="1638" descent="-410" />
<missing-glyph horiz-adv-x="555" />
<glyph horiz-adv-x="0" />
<glyph horiz-adv-x="682" />
<glyph unicode=" "  horiz-adv-x="555" />
<glyph unicode="&#x09;" horiz-adv-x="555" />
<glyph unicode="&#xa0;" horiz-adv-x="555" />
<glyph unicode="!" horiz-adv-x="468" d="M168 104q0 46 32.5 78.5t78.5 32.5t78 -32.5t32 -78.5q0 -45 -32.5 -77.5t-77.5 -32.5t-78 33t-33 77zM215 352v1094h129v-1094h-129z" />
<glyph unicode="&#x22;" horiz-adv-x="811" d="M66 1413q0 54 38 87.5t97 33.5q64 0 98 -47q22 -30 18 -94l-96 -531h-55l-96 506q-4 32 -4 45zM492 1413q0 52 38 86.5t97 34.5q77 0 106 -59q14 -25 10 -82l-96 -531h-55l-96 506q-4 32 -4 45z" />
<glyph unicode="#" horiz-adv-x="1366" d="M86 438v203h279l24 195h-258v204h285l55 408h213l-57 -408h200l56 408h207l-56 -408h242v-204h-268l-29 -195h252v-203h-277l-63 -440h-207l64 440h-203l-62 -440h-209l62 440h-250zM569 641h205l27 195h-203z" />
<glyph unicode="$" horiz-adv-x="1067" d="M100 948v148q0 53 2 84.5t13.5 77t34.5 79.5q70 104 249 109h80v127h101v-127h376v-406h-211v213h-165v-417h102q35 -2 55.5 -5t54 -12t62 -29.5t53.5 -52.5q30 -41 43 -92t13 -145v-160q-5 -93 -12 -130t-31 -77q-26 -45 -63 -73.5t-81.5 -40t-70.5 -15t-64 -4.5h-61 v-135h-101v135h-373v410h218v-217h155v425h-73q-129 5 -199 54q-37 26 -60.5 59t-32.5 73.5t-11.5 69.5t-2.5 74zM324 999q3 -94 22.5 -127t91.5 -36h41v417h-41q-38 -5 -60 -14.5t-33.5 -33.5t-14.5 -50t-6 -80v-76zM580 193h55q21 1 34.5 3.5t30 12.5t25.5 29t15 53.5 t5 83.5v71q-3 97 -22.5 131t-87.5 41h-55v-425z" />
<glyph unicode="%" horiz-adv-x="1622" d="M51 760v411q0 77 6.5 121.5t30 85.5t72.5 58.5t129 17.5h119q59 0 101 -14t65 -34t36.5 -52t17 -59.5t3.5 -63.5v-463q0 -133 -48.5 -183t-183.5 -50h-133q-50 0 -85 8t-66.5 31t-47.5 69.5t-16 116.5zM205 786q1 -78 15 -96.5t73 -23.5h80q72 0 89 22.5t17 102.5v426 q0 64 -21.5 85t-70.5 21h-65q-70 0 -93.5 -21t-23.5 -92v-424zM395 0l684 1446h148l-688 -1446h-144zM991 217v412q0 43 1.5 72.5t7 61.5t16 53t28 40.5t42.5 30.5t61 17.5t82 6.5h119q59 0 101 -14t65 -34t36.5 -52t17 -59.5t3.5 -63.5v-463q0 -133 -48.5 -183t-183.5 -50 h-133q-50 0 -85 8t-66.5 31t-47.5 69.5t-16 116.5zM1145 244q1 -78 15 -97.5t73 -23.5h80q72 0 89 22.5t17 102.5v426q0 64 -21.5 85t-70.5 21h-65q-70 0 -93.5 -20.5t-23.5 -91.5v-424z" />
<glyph unicode="&#x26;" horiz-adv-x="1280" d="M61 414q0 29 16.5 60.5t30 47t46.5 49.5l227 226l-174 176v235q-2 126 57.5 181.5t206.5 56.5h139q82 -3 113 -8t63 -23q31 -18 49.5 -39.5t26 -53t9 -54t1.5 -68.5v-227l-184 -176l195 -197l141 137l143 -151l-135 -137l287 -293l-152 -156l-295 299l-227 -225 q-89 -86 -153 -86q-34 0 -76 26q-48 26 -119 101l-160 164q-40 46 -58 75t-18 60zM301 424l197 -199l229 224l-197 196zM422 1067l117 -119l123 119v186h-240v-186z" />
<glyph unicode="'" horiz-adv-x="425" d="M88 1413q0 59 41.5 90t91.5 31q63 0 101 -47q15 -20 17.5 -47.5t-1.5 -46.5l-96 -531h-56l-96 506q-2 16 -2 45z" />
<glyph unicode="(" horiz-adv-x="425" d="M109 217v635q1 87 2.5 123.5t10.5 91t28 102.5q71 183 243 283v-145q-27 -20 -43 -34t-40.5 -47t-41.5 -75q-28 -65 -34.5 -131.5t-8.5 -233.5v-569q3 -145 8 -190.5t27 -100.5q51 -127 133 -182v-145q-26 17 -38.5 25.5t-43 34t-58.5 59.5t-54 77q-51 81 -70.5 174 t-19.5 248z" />
<glyph unicode=")" horiz-adv-x="425" d="M35 -256q82 55 133 182q22 55 27 100.5t8 190.5v569q-1 142 -4 182.5t-13 92.5q-11 56 -28.5 98.5t-42.5 72t-39.5 43t-40.5 32.5v145q111 -62 182 -168q36 -52 57.5 -101.5t30.5 -111t11 -99.5t3 -120v-635q0 -196 -32 -299q-64 -202 -252 -319v145z" />
<glyph unicode="*" horiz-adv-x="598" d="M31 1059l188 104l-186 111l39 61l188 -106v217h78v-217l184 106l37 -69l-184 -103l184 -104l-37 -68l-184 105v-215h-78v215l-188 -105z" />
<glyph unicode="+" horiz-adv-x="1366" d="M86 492v208h494v494h211v-494h489v-208h-489v-492h-211v492h-494z" />
<glyph unicode="," horiz-adv-x="382" d="M-18 -391l213 600h129l-213 -600h-129z" />
<glyph unicode="-" horiz-adv-x="681" d="M59 444v113h572v-113h-572z" />
<glyph unicode="." horiz-adv-x="382" d="M80 106q0 46 33 78.5t80 32.5q46 0 78 -32.5t32 -78.5q0 -47 -32 -79.5t-78 -32.5q-47 0 -80 32.5t-33 79.5z" />
<glyph unicode="/" horiz-adv-x="724" d="M-6 0l641 1446h96l-643 -1446h-94z" />
<glyph unicode="0" d="M88 422v579q0 148 13 225.5t63 133.5q48 53 120 71.5t181 20.5h194q55 -3 84.5 -6t73 -13t75.5 -30.5t58 -52.5q43 -56 53.5 -123.5t10.5 -198.5v-647q-5 -154 -22 -219.5t-83 -112.5q-46 -33 -98 -42.5t-164 -12.5h-219q-63 0 -93.5 2t-75 17.5t-79.5 47.5 q-62 56 -79 139.5t-13 221.5zM317 377q0 -66 8 -103t32.5 -57t56.5 -25.5t94 -5.5h96q106 0 146 32q22 18 28 46q8 36 8 129v684q0 103 -36.5 142.5t-122.5 37.5h-131q-42 0 -72 -5.5t-50 -19t-31.5 -29t-17 -43.5t-7 -53t-1.5 -67v-663z" />
<glyph unicode="1" d="M256 1047v196l455 234v-1284h120v-193h-473v193h123v970z" />
<glyph unicode="2" d="M115 0v496l645 403v182q1 40 -1 66.5t-11 45.5t-18 29.5t-31 17t-41 9t-56 4.5h-96q-102 0 -133 -36.5t-29 -135.5v-100h-229v147q1 46 4.5 74t17.5 66.5t41 70.5q50 61 124.5 83t184.5 24h142q155 0 231 -37q36 -17 61.5 -44.5t37.5 -51.5t19.5 -60t8.5 -53t2 -47v-360 l-645 -400v-200h416v186h229v-379h-874z" />
<glyph unicode="3" d="M109 307v80h223v-61q0 -77 29 -102.5t118 -30.5h129q89 0 119 32q16 16 20 35.5t9 91.5v117q0 70 -6 88q-7 24 -20.5 38.5t-36 21t-38.5 8t-47 2.5h-270v192l381 434h-387v-184h-223v377h878v-176l-379 -451h111q80 -4 134.5 -29.5t82.5 -70t39 -96t10 -121.5v-185 q-1 -44 -4 -71.5t-15.5 -65.5t-35.5 -69q-26 -36 -58.5 -59t-73 -33t-69 -13.5t-72.5 -5.5h-239q-41 1 -68.5 4t-69.5 16t-73 37q-42 32 -64.5 80.5t-26.5 80.5t-7 89z" />
<glyph unicode="4" d="M61 416v225l582 807h242v-840h157v-192h-157v-416h-226v416h-598zM274 608h385l17 586z" />
<glyph unicode="5" d="M125 301v145h229v-137q0 -32 9 -53.5t20.5 -33t36.5 -18t42 -8t52 -3.5h82q34 1 52.5 2t41 5t33 13t22 23.5t16 38t7 55t2.5 76.5v141q0 42 -2 64t-11 45.5t-27.5 34t-50 17.5t-79.5 7h-446v731h802v-193h-575v-342h285q62 0 111 -9.5t83 -24.5t58 -40t38 -50t22.5 -61 t11 -66.5t3.5 -73.5v-273q-2 -60 -9.5 -100t-31.5 -82q-20 -36 -49 -61.5t-55 -38.5t-63.5 -20t-59.5 -8.5t-59 -2.5h-209q-55 3 -79 5t-58.5 10t-63.5 24q-43 23 -71.5 56.5t-40 74t-15 67t-4.5 64.5z" />
<glyph unicode="6" d="M121 354v695q0 74 3 118.5t23 105.5t58 99q52 51 123.5 65.5t214.5 14.5h86q126 0 203.5 -26.5t117.5 -86.5q32 -47 39.5 -87.5t7.5 -145.5v-57h-225v65q0 49 -9 77.5t-33.5 42.5t-51.5 18t-78 5h-86q-25 0 -37 -0.5t-32 -3t-30 -7.5t-23.5 -14.5t-20 -24t-11.5 -36.5 t-6 -51q0 -7 -1 -49.5t-1 -48.5v-207h316q46 0 75 -2t69 -12.5t71 -30.5q25 -17 44 -36.5t30.5 -46.5t19 -47.5t11.5 -58t5.5 -57.5t3.5 -65v-154q-1 -42 -4 -69t-17 -68.5t-40 -73.5q-43 -57 -114 -78.5t-177 -21.5h-192q-81 0 -134 11t-94 44q-62 47 -83 119.5t-21 185.5z M352 315q2 -44 9 -69t28 -38.5t46.5 -17t76.5 -4.5h117q83 3 113 36t30 134v101q-2 42 -7 70t-15 46.5t-25 28.5t-35.5 14.5t-46.5 4.5h-59h-232v-306z" />
<glyph unicode="7" d="M109 1063v383h897v-193l-527 -1253h-250l537 1253h-430v-190h-227z" />
<glyph unicode="8" d="M117 328v161q1 65 7 101t27.5 67.5t62 48t110.5 27.5q-47 4 -76.5 10.5t-57.5 22.5t-42.5 43.5t-23 72.5t-7.5 111v150q1 43 4 71t15.5 68.5t35.5 69.5q26 34 60 55t77.5 30t74.5 11.5t83 3.5h143q51 0 86 -1.5t78 -8.5t71 -19t57.5 -34.5t46.5 -54.5t27.5 -79t10.5 -108 v-166q-3 -42 -4.5 -60.5t-6 -49t-12.5 -45.5t-20.5 -33.5t-32.5 -29t-47 -18.5q-27 -6 -88 -14q71 -9 92 -16q38 -11 61.5 -29t35.5 -48t16 -59.5t6 -78.5v-203q-1 -30 -2.5 -45t-5.5 -45t-12 -49t-20.5 -44t-33 -45t-47.5 -36q-31 -19 -72.5 -28t-64.5 -10t-76 -1h-180 q-66 0 -103.5 3t-87 21t-87.5 54q-53 51 -66.5 110t-11.5 146zM342 350q-2 -34 3 -60t11.5 -43t22.5 -29t26.5 -18t33.5 -9t34 -3.5t37 -1.5h80q99 -1 131.5 30t38.5 130v123l-1.5 42t-4 35.5t-9.5 32t-17 24t-27.5 20t-41 12t-57.5 6.5h-102q-91 0 -125.5 -39.5 t-32.5 -128.5v-123zM342 991q-1 -39 3 -67.5t15.5 -46t22.5 -27.5t33.5 -14.5t38.5 -5.5t47 -1h108q50 1 79.5 9t44.5 29.5t19.5 46.5t6.5 73v137q1 39 -7 65.5t-19 41t-35.5 22.5t-43.5 10.5t-57 4.5h-88q-30 0 -51.5 -1t-38.5 -5.5t-28 -8t-20 -14t-13.5 -18.5t-8 -25.5 t-5 -30.5t-3.5 -39v-135z" />
<glyph unicode="9" d="M109 340v57h225v-65q-1 -39 6.5 -65.5t19 -42t35.5 -23.5t47 -10t64 -3h86q30 0 52 2t39.5 8.5t29 13.5t19.5 23t12 30t6.5 42t3 51.5t0.5 65.5v207h-316q-46 0 -72.5 1.5t-68.5 12t-74 31.5q-25 17 -44 36.5t-30.5 46.5t-19 47.5t-11.5 58t-5.5 57.5t-3.5 65v154 q3 50 6 77t16.5 65t38.5 69q26 33 56 53.5t72 30t73 12t90 4.5h219q49 -3 71 -5.5t60 -14.5t70 -35q35 -27 56.5 -57t31 -71.5t12 -68t4.5 -82.5v-741q0 -172 -39 -248q-38 -77 -118.5 -106t-202.5 -29h-148q-64 0 -137 11.5t-115 37.5q-41 26 -66 58t-35 76t-12.5 75 t-2.5 88zM334 989q3 -39 4.5 -54.5t7 -37.5t15.5 -33.5t26 -21.5q33 -20 135 -17h232v305q-1 81 -32.5 104.5t-127.5 25.5h-117q-29 -1 -49.5 -5t-35.5 -9t-25 -17.5t-16 -22.5t-9.5 -31.5t-4.5 -37.5t-3 -47v-101z" />
<glyph unicode=":" horiz-adv-x="468" d="M166 102q0 46 32 78.5t78 32.5t78.5 -32.5t32.5 -78.5t-32.5 -78t-78.5 -32t-78 32t-32 78zM166 834q0 46 32 78t78 32t78.5 -32t32.5 -78t-32.5 -78.5t-78.5 -32.5t-78 32.5t-32 78.5z" />
<glyph unicode=";" horiz-adv-x="468" d="M16 -389l211 598h131l-215 -598h-127zM221 461q0 46 32.5 78t78.5 32t78 -32t32 -78t-32 -78.5t-78 -32.5t-78.5 32.5t-32.5 78.5z" />
<glyph unicode="&#x3c;" horiz-adv-x="1366" d="M0 614v213l1366 625v-231l-1083 -500l1083 -498v-229z" />
<glyph unicode="=" horiz-adv-x="1366" d="M0 299v211h1366v-211h-1366zM0 684v211h1366v-211h-1366z" />
<glyph unicode="&#x3e;" horiz-adv-x="1366" d="M0 -6v229l1081 498l-1081 500v231l1366 -625v-213z" />
<glyph unicode="?" horiz-adv-x="854" d="M125 1087v205q-1 52 10 84.5t37 47t53.5 19t71.5 3.5h328q32 0 52 -1.5t49 -14.5t44 -37q12 -21 16 -44t7 -96v-430q-4 -66 -11 -86q-9 -26 -24 -42.5t-38 -24.5t-40 -10.5t-45 -4.5h-205v-303h-149v436h366v523h-379v-224h-143zM254 104q0 46 32.5 78.5t78.5 32.5 t78 -32.5t32 -78.5t-32 -78t-78 -32t-78.5 32t-32.5 78z" />
<glyph unicode="@" horiz-adv-x="1835" d="M139 498q0 119 30 237.5t84 224.5t135 197.5t178 158t218 104.5t250 38q187 0 337.5 -87t235.5 -243t85 -352q0 -165 -66 -315.5t-170 -239t-213 -88.5q-18 0 -36.5 3.5t-41.5 14t-41.5 27.5t-34 47t-20.5 70q-31 -47 -68 -80t-72 -48.5t-62.5 -21.5t-51.5 -6 q-116 0 -199.5 96t-83.5 269q0 116 41 224.5t106 185t147 123t163 46.5q62 0 111 -24q31 -16 52.5 -39.5t29.5 -39.5t20 -46l23 94h153l-78 -356q-2 -8 -14.5 -71t-22 -109.5t-18 -98t-8.5 -67.5q0 -26 11.5 -40t20 -16t17.5 -2q34 0 79.5 37t90 101t75 165t30.5 213 q0 158 -71 285t-192.5 197.5t-267.5 70.5q-81 0 -156.5 -20t-132 -52.5t-89 -56.5t-58.5 -49q-125 -120 -197.5 -306t-72.5 -366q0 -131 44 -243.5t126 -196t207 -131t278 -47.5q76 0 151.5 13t159.5 43t169.5 86t160.5 134l74 -94q-133 -139 -303 -215q-200 -90 -439 -90 q-241 0 -424.5 90.5t-286 262t-102.5 399.5zM729 442q0 -69 29.5 -120.5t91.5 -51.5q56 0 106 45.5t83 113.5t57 145.5t34 143.5t7 105q-2 43 -16 74.5t-34 47.5t-39.5 23t-37.5 7q-59 0 -113.5 -59t-90 -144t-56.5 -174.5t-21 -155.5z" />
<glyph unicode="A" horiz-adv-x="1150" d="M0 0v193h115l303 1253h346l274 -1253h113v-193h-322l-90 461h-329l-95 -461h-315zM446 649h259l-123 647z" />
<glyph unicode="B" horiz-adv-x="1150" d="M45 0v193h121v1060h-121v193h637h6q204 0 286 -68q83 -70 89 -239v-95q0 -126 -39 -188t-152 -92q65 -27 98 -46t56 -50.5t29 -71t6 -109.5v-143q0 -102 -18.5 -167.5t-63.5 -105.5t-111.5 -55.5t-169.5 -15.5h-653zM393 193h277q103 0 134.5 33t31.5 139v108 q0 67 -7.5 106t-30.5 59.5t-52 26t-84 5.5h-269v-477zM393 856h262q106 0 142.5 31.5t36.5 126.5v94q0 95 -37.5 120t-173.5 25h-230v-397z" />
<glyph unicode="C" horiz-adv-x="1024" d="M94 358v693q0 46 1 72t6.5 68.5t15.5 71.5t31 62.5t51 58.5q32 26 71 39.5t66.5 16.5t81.5 6h524v-426h-223v233h-234q-38 -1 -60.5 -3.5t-41.5 -11t-27.5 -18.5t-15 -33t-8.5 -47.5t-4 -68.5v-696q0 -6 1 -42.5t1 -43.5q6 -60 40 -78t111 -18h252v258h221v-451h-536 q-49 1 -78.5 4.5t-72.5 15.5t-76.5 42t-59.5 77q-17 34 -26 75.5t-10 68.5t-1 75z" />
<glyph unicode="D" horiz-adv-x="1150" d="M43 0v193h121v1060h-121v193h674q39 0 57 -1t54.5 -5t66 -16.5t55.5 -32.5q30 -24 51.5 -56.5t32 -61.5t16 -70.5t6.5 -66.5t1 -67v-711q0 -116 -22 -181.5t-74 -108.5q-37 -32 -88.5 -47.5t-88 -18t-106.5 -2.5h-635zM391 193h277q29 0 50.5 1t38 7.5t27 11.5t18.5 19.5 t12 24t6.5 34t3 40t1.5 50.5v672q0 37 -0.5 54t-3 42t-6.5 35t-12 25t-19 20.5t-28.5 12t-39.5 8.5t-52 3h-273v-1060z" />
<glyph unicode="E" horiz-adv-x="1067" d="M45 0v193h119v1060h-119v193h959v-424h-213v231h-398v-419h428v-195h-428v-446h412v266h211v-459h-971z" />
<glyph unicode="F" horiz-adv-x="937" d="M41 0v193h121v1060h-121v193h897v-428h-211v235h-334v-430h416v-196h-416v-434h121v-193h-473z" />
<glyph unicode="G" d="M94 375v649q2 120 9.5 176t35.5 107q49 87 130 113t220 26h498v-422h-209v229h-276q-32 1 -56.5 -1.5t-43 -10.5t-31 -15.5t-21 -25.5t-13 -31t-7 -41t-3.5 -47t-1 -57v-614q0 -53 1 -81t7.5 -56.5t16.5 -40.5t31 -23t48.5 -13.5t71.5 -2.5h276v430h-239v200h462v-823 h-552q-50 1 -77 3t-67.5 12.5t-73.5 29.5q-37 21 -62.5 51.5t-39.5 58.5t-22 71.5t-9.5 71.5t-3.5 77z" />
<glyph unicode="H" horiz-adv-x="1193" d="M45 0v193h121v1060h-121v193h348v-625h412v625h350v-193h-123v-1060h123v-193h-350v625h-412v-625h-348z" />
<glyph unicode="I" horiz-adv-x="555" d="M43 0v193h123v1060h-123v193h471v-193h-121v-1060h121v-193h-471z" />
<glyph unicode="J" horiz-adv-x="681" d="M0 0v193h137q44 1 66 2.5t45.5 9.5t32 20.5t16.5 39.5t9 61q1 21 1 50v42v835h-121v193h476v-193h-125v-915q0 -42 -1 -67.5t-7 -61.5t-17 -60.5t-32 -51.5t-52 -48q-35 -23 -75.5 -34.5t-68 -13t-79.5 -1.5h-205z" />
<glyph unicode="K" horiz-adv-x="1150" d="M43 0v193h119v1060h-119v193h344v-660l389 660h283v-193h-150l-280 -444h137q37 -1 58 -3.5t54 -15.5t58 -38q21 -22 33.5 -47.5t17 -60t5.5 -53t1 -59.5v-339h119v-193h-346v506v10q0 66 -25 84q-26 18 -121 18h-10h-223v-618h-344z" />
<glyph unicode="L" horiz-adv-x="980" d="M45 0v193h123v1060h-123v193h471v-193h-123v-1060h326v286h211v-479h-885z" />
<glyph unicode="M" horiz-adv-x="1536" d="M39 0v193h123v1060h-123v193h375l348 -784l354 784h375v-193h-119v-1060h119v-193h-330v1100l-325 -699h-166l-299 699v-1100h-332z" />
<glyph unicode="N" horiz-adv-x="1280" d="M43 0v193h121v1048h-121v205h371q42 -91 254 -525t260 -554v1079h325v-193h-120v-1253h-215q-41 72 -90.5 166t-85 164.5t-92 183t-83.5 164.5q-51 99 -83.5 167t-51 110t-65.5 153v-1108h-324z" />
<glyph unicode="O" d="M96 414v604q3 161 8 204.5t27 88.5q25 50 63 81.5t87 43t75.5 14t69.5 2.5h244h20q52 0 90 -4q45 -6 92 -26.5t75 -57.5t45.5 -102t17.5 -158v-770q0 -43 -2 -69.5t-10 -67.5t-29 -75.5t-54 -62.5q-27 -24 -55 -38t-63.5 -19.5t-58 -6.5t-68.5 -1h-221h-50.5t-49 2.5 t-52.5 7.5t-47 15.5t-46.5 25t-38.5 37.5t-34 53q-19 41 -24.5 87.5t-10.5 191.5zM330 344q0 -18 2 -45.5t5.5 -37.5t11 -25.5t17.5 -20t26 -11.5t36 -8.5t49 -2.5h158q35 0 59 4t40.5 16.5t25.5 26t13.5 41.5t5.5 52.5t1 69.5v631v34q0 39 -2 65q-2 36 -11 64.5t-30 40.5 t-50.5 18.5t-80.5 7.5h-88q-45 0 -70.5 -2t-50 -10.5t-35 -22t-19.5 -41.5t-11 -63.5t-2 -92.5v-629v-59z" />
<glyph unicode="P" horiz-adv-x="1024" d="M43 0v193h119v1060h-119v193h633q84 0 144.5 -15.5t96.5 -40.5t56.5 -64.5t27.5 -80.5t7 -96v-193v-9q0 -92 -19 -155q-20 -66 -63 -103.5t-101 -52.5t-141 -15h-295v-428h121v-193h-467zM389 817h252q87 2 114.5 32t28.5 134v121q-3 86 -30.5 111t-120.5 28h-244v-426z " />
<glyph unicode="Q" d="M96 369v702q0 79 12.5 140t30 101t52.5 67.5t62.5 42t79 21.5t83.5 8t94 1h170q54 -2 82 -4.5t65 -11.5t64.5 -28t52.5 -50q32 -40 48 -92.5t18.5 -89.5t3.5 -117v-707q0 -85 -8.5 -139t-34.5 -98q-20 -33 -48 -57t-50.5 -35.5t-54.5 -18.5t-46 -8t-39 -2h-69v-242h-218 v242h-65q-36 1 -57.5 3.5t-52.5 10.5t-58 26.5t-51 47.5q-41 50 -52 103.5t-14 183.5zM324 393q0 -53 2 -80t8.5 -55t21.5 -39.5t39.5 -19.5t63.5 -9h186q61 5 88.5 21.5t39 55.5t13.5 126v639q-1 120 -13 154q-18 50 -81 61q-24 4 -59 4h-146q-36 -2 -52.5 -4t-40 -8.5 t-33.5 -18.5t-21 -34t-14 -56q-2 -25 -2 -58v-23v-656z" />
<glyph unicode="R" horiz-adv-x="1193" d="M45 0v193h121v1060h-121v193h637q64 -2 111 -10t91 -29t71.5 -56t44 -93t16.5 -138v-145q-4 -108 -35 -160.5t-111 -87.5q47 -9 79 -25t49.5 -34t26.5 -49t11 -57t2 -70v-299h123v-193h-354v479q0 87 -36 116.5t-132 29.5h-244v-625h-350zM395 819h232q54 0 86 7t48 27 t20.5 44t4.5 68v145q0 75 -31.5 109t-121.5 34h-238v-434z" />
<glyph unicode="S" horiz-adv-x="1067" d="M96 0v414h219v-221h246q29 0 40 0.5t33.5 2t31 4.5t24 8t21 12.5t14 18.5t11.5 26.5t5 35.5t2 45v125q-2 69 -13 98t-42 41t-102 13h-183q-107 0 -174 39q-32 19 -56.5 42.5t-38 52.5t-21.5 51t-11 55.5t-3.5 46t-0.5 42.5v176q0 36 2.5 61.5t12.5 66.5t36 77.5t66 65.5 q33 23 73 34t64.5 12t79.5 1h510v-399h-217v206h-256q-34 -1 -50 -2.5t-37.5 -9.5t-31 -23t-16.5 -44q-6 -25 -6 -61v-11v-113v-11q0 -42 7 -68q8 -30 30.5 -44t48.5 -18.5t75 -5.5h160q43 0 68 -1.5t67 -12t74 -31.5q33 -21 56 -50t34.5 -53t17.5 -63.5t7 -59.5t2 -63v-180 q0 -71 -7.5 -113.5t-35.5 -87.5q-27 -40 -58 -65t-72 -37.5t-69.5 -16.5t-81.5 -8h-555z" />
<glyph unicode="T" horiz-adv-x="1067" d="M0 1040v406h1067v-406h-213v213h-207v-1060h119v-193h-469v193h123v1060h-207v-213h-213z" />
<glyph unicode="U" horiz-adv-x="1193" d="M39 1253v193h348v-1008q1 -133 13 -170q16 -49 70 -64q37 -9 105 -11h95q38 3 61.5 7t41.5 17t26 26t13 45.5t6 61.5t1 88v1008h350v-193h-120v-913q-3 -56 -6 -85t-17.5 -72.5t-42.5 -78.5q-31 -37 -70 -60.5t-84.5 -31.5t-69.5 -10t-63 -2h-211q-55 3 -79.5 5t-63.5 13 t-70 31q-30 19 -50.5 44.5t-31.5 46.5t-18 59.5t-9 60.5t-5 74v919h-119z" />
<glyph unicode="V" d="M0 1253v193h303l260 -1266q32 154 127 631t129 635h289v-193h-113l-268 -1253h-354l-260 1253h-113z" />
<glyph unicode="W" horiz-adv-x="1705" d="M2 1253v193h307q99 -598 125.5 -763t54.5 -370q27 216 98 529.5t150 603.5h226q156 -615 195 -775t83 -368q37 467 166 1143h299v-193h-127l-217 -1253h-219q-97 341 -182 674q-48 178 -64.5 256t-42.5 229q-111 -521 -272 -1159h-224l-231 1253h-125z" />
<glyph unicode="X" horiz-adv-x="1024" d="M0 0v193h115l272 540l-260 520h-113v193h275l223 -496l240 496h260v-193h-115l-258 -520l270 -540h113v-193h-270l-240 520l-250 -520h-262z" />
<glyph unicode="Y" d="M2 1253v193h260l297 -610l297 610h254v-193h-109l-333 -614v-446h120v-193h-469v193h125v446l-331 614h-111z" />
<glyph unicode="Z" horiz-adv-x="1067" d="M68 0v193l667 1060h-456v-258h-211v451h921v-193l-674 -1060h484v253h215v-446h-946z" />
<glyph unicode="[" horiz-adv-x="425" d="M131 -252v1583q-1 72 27.5 93.5t101.5 21.5h152l-2 -115h-160v-1614h162v-110h-154q-37 0 -60.5 6.5t-36.5 15t-19.5 29.5t-8 37.5t-2.5 52.5z" />
<glyph unicode="\" horiz-adv-x="724" d="M-6 1446h98l639 -1446h-94z" />
<glyph unicode="]" horiz-adv-x="425" d="M25 -283h161v1614h-159l-2 115h151q73 0 101.5 -21.5t27.5 -93.5v-1583q-1 -36 -2.5 -52.5t-8 -37.5t-19.5 -29.5t-36.5 -15t-60.5 -6.5h-153v110z" />
<glyph unicode="^" horiz-adv-x="1492" d="M262 664l400 782h186l383 -782h-242l-237 501l-250 -501h-240z" />
<glyph unicode="_" horiz-adv-x="1024" d="M-20 -154h1064v-102h-1064v102z" />
<glyph unicode="`" horiz-adv-x="555" d="M125 1358h135l168 -299h-131z" />
<glyph unicode="a" horiz-adv-x="937" d="M57 238q0 37 1 59t4 53t9.5 50t18 41.5t29.5 36t42.5 26.5t59 19.5t78.5 8.5h285v238h-308v-141h-204v102q2 22 2.5 30.5t4 31t7.5 34t13 31.5t20 30.5t29 24.5t40 21t52 12q25 4 55 4h12h260q121 0 175.5 -53t54.5 -190v-527h112v-180h-559q-97 0 -133 6.5t-72 30.5 q-51 33 -69.5 81.5t-18.5 119.5zM276 170h308v197h-308v-197z" />
<glyph unicode="b" horiz-adv-x="937" d="M2 1266v180h328v-496h258h11q74 0 122 -13q52 -14 79 -47t36.5 -72.5t11.5 -102.5v-492q0 -38 -9 -73.5t-31.5 -71t-68 -57t-110.5 -21.5h-514v1266h-113zM330 180h299v590h-299v-590z" />
<glyph unicode="c" horiz-adv-x="854" d="M88 246v442q5 141 57.5 201.5t194.5 60.5h446v-336h-206v156h-275v-590h275v164h206v-344h-417q-124 0 -183 33q-25 15 -43 34.5t-27.5 36.5t-15.5 46t-8 45t-4 51z" />
<glyph unicode="d" horiz-adv-x="980" d="M88 274v414q0 42 1.5 66.5t12 62.5t31.5 64q33 41 86.5 55t136.5 14h269v316h-115v180h332v-1266h112v-180h-579q-48 0 -72.5 1t-58 7.5t-58.5 20.5q-33 18 -53.5 44t-29.5 62t-11.5 63.5t-3.5 75.5zM305 180h320v590h-320v-590z" />
<glyph unicode="e" horiz-adv-x="894" d="M90 266v414q0 42 1.5 67t11 64t28.5 66q15 22 35 37t35.5 22.5t45 11.5t42.5 4.5t49 1.5h240q40 0 66.5 -2.5t63 -14t58.5 -33.5t38 -64.5t17 -102.5v-327h-520v-236h317v137h203v-110q-2 -33 -5 -55.5t-17 -54t-37.5 -51t-68.5 -33.5q-42 -13 -99 -13h-8h-258h-28h-34 q-26 2 -64.5 18.5t-64.5 48.5q-21 25 -30.5 55t-11.5 55t-5 95zM301 567h317v209h-317v-209z" />
<glyph unicode="f" horiz-adv-x="555" d="M37 0v180h117v588h-117v180h117v293q0 97 63.5 151t179.5 54h123v-193h-151v-305h151v-180h-151v-588h114v-180h-446z" />
<glyph unicode="g" horiz-adv-x="980" d="M92 236v460q0 78 17 127.5t56.5 77.5t95 38.5t142.5 10.5h555v-180h-116v-891q0 -71 -8.5 -115.5t-34 -82t-76.5 -54t-131 -16.5h-250q-37 0 -60 2t-60 17t-60 44q-16 21 -25 47t-11 44.5t-3 52.5v80h219v-107h287v209h-260q-32 0 -49 0.5t-47 3t-49 9t-42 17.5t-40 29 t-29 43q-21 41 -21 134zM305 180h324v590h-324v-590z" />
<glyph unicode="h" horiz-adv-x="1024" d="M35 0v180h117v1086h-117v180h332v-496h247h17.5h20t19 -0.5t21 -1t19.5 -2t21 -3.5t19 -5t21 -7t19 -9q31 -17 50.5 -40.5t28 -54t11 -54.5t2.5 -58v-535h112v-180h-329v770h-299v-590h106v-180h-438z" />
<glyph unicode="i" horiz-adv-x="512" d="M39 0v180h117v590h-117v180h330v-770h116v-180h-446zM147 1212q0 47 34 81t81 34t81 -34t34 -81t-34 -80.5t-81 -33.5t-81 33.5t-34 80.5z" />
<glyph unicode="j" horiz-adv-x="468" d="M-16 -213h159v981h-114v180h329v-1108q0 -72 -17 -119t-53 -71t-78.5 -32.5t-107.5 -8.5h-118v178zM137 1219q0 47 34 80.5t81 33.5t81 -33.5t34 -80.5t-34 -81t-81 -34t-81 34t-34 81z" />
<glyph unicode="k" horiz-adv-x="980" d="M41 0v180h117v1086h-117v180h328v-905l286 409h244v-180h-133l-193 -266l291 -324h117v-180h-254l-358 428v-428h-328z" />
<glyph unicode="l" horiz-adv-x="512" d="M39 0v180h117v1082l-117 4v180h332v-1266h112v-180h-444z" />
<glyph unicode="m" horiz-adv-x="1536" d="M37 0v180h117v590h-117v180h1110q37 -1 60 -3t54 -9.5t55 -24.5t42 -43q17 -23 25.5 -54t9 -48.5t0.5 -60.5v-527h116v-180h-329v770h-301v-590h114v-180h-325v770h-301v-590h114v-180h-444z" />
<glyph unicode="n" horiz-adv-x="1024" d="M43 0v180h115v590h-115v180h612q56 0 87 -5.5t63 -26.5q28 -20 45 -43.5t24 -53.5t9 -52t2 -58v-531h112v-180h-331v770h-295v-590h116v-180h-444z" />
<glyph unicode="o" horiz-adv-x="937" d="M94 227v465q0 29 1 49t6.5 51t15.5 53t30 45t48 38q23 13 52.5 19t47 6.5t55.5 0.5h254q48 0 86 -8.5t63 -21t42.5 -33.5t27 -40t14.5 -47.5t6 -48.5t1 -50v-424q0 -110 -10 -150q-10 -37 -30 -63.5t-40 -40t-49.5 -21.5t-46 -9.5t-41.5 -2.5h-258q-42 0 -62 0.5t-53 6 t-57 17.5q-34 18 -56.5 44.5t-31.5 60t-11.5 53t-3.5 51.5zM311 174h316v600h-316v-600z" />
<glyph unicode="p" horiz-adv-x="980" d="M25 770v180h608q120 0 182 -49q46 -36 60 -85.5t16 -129.5v-414q-2 -43 -3 -61.5t-5.5 -51t-12.5 -50t-23.5 -38.5t-37.5 -36q-30 -22 -58.5 -27t-113.5 -8h-281v-393h-215v1163h-116zM356 180h318v590h-318v-590z" />
<glyph unicode="q" horiz-adv-x="980" d="M90 252v434q2 55 4.5 79.5t11.5 52.5t27 52q62 80 213 80h604v-180h-114v-1165h-218v395h-311q-57 2 -88.5 10t-62.5 39q-39 37 -50.5 81.5t-15.5 121.5zM307 180h311v590h-311v-590z" />
<glyph unicode="r" horiz-adv-x="768" d="M39 0v180h115v590h-115v180h465q47 -1 78.5 -5t68 -18t57.5 -38t35 -68q13 -41 13 -98v-8v-148h-203v203h-186v-590h112v-180h-440z" />
<glyph unicode="s" horiz-adv-x="854" d="M61 0v289h215v-117h304v219h-287q-132 0 -180.5 50.5t-51.5 170.5v131q3 35 7 56t19.5 53.5t41 51t74 32.5t116.5 14h461v-276h-200v106h-304v-207h285q39 -1 60.5 -3t52 -11.5t53.5 -26.5q41 -31 54.5 -74t13.5 -104v-135q-4 -80 -25 -119q-32 -60 -80.5 -77t-140.5 -23 h-488z" />
<glyph unicode="t" horiz-adv-x="555" d="M27 770v180h116v291h217v-291h148v-180h-148v-590h148v-180h-139q-37 1 -57 3t-48.5 11.5t-50.5 26.5q-31 24 -48 62.5t-19.5 66t-2.5 70.5v530h-116z" />
<glyph unicode="u" horiz-adv-x="1024" d="M29 770v180h329v-770h308v590h-115v180h330v-770h116v-180h-571q-65 2 -87 4t-47.5 8.5t-49.5 20.5q-63 38 -81 99.5t-20 162.5v475h-112z" />
<glyph unicode="v" horiz-adv-x="894" d="M0 770v180h293l156 -784l167 784h279v-180h-107l-186 -770h-309l-180 770h-113z" />
<glyph unicode="w" horiz-adv-x="1366" d="M2 770v180h293l96 -766l182 766h222l186 -776l96 776h289v-180h-115l-123 -770h-280l-164 698l-168 -698h-276l-125 770h-113z" />
<glyph unicode="x" horiz-adv-x="854" d="M2 0v180h117l188 295l-188 295h-117v180h242l180 -309l188 309h230v-180h-115l-186 -283l198 -307h113v-180h-240l-188 322l-195 -322h-227z" />
<glyph unicode="y" horiz-adv-x="937" d="M0 768v180h260l209 -542l213 542h256v-180h-119l-483 -1161h-219l245 586l-245 575h-117z" />
<glyph unicode="z" horiz-adv-x="854" d="M49 0v172l479 610h-278v-131h-201v299h731v-155l-491 -625h323v133h203v-303h-766z" />
<glyph unicode="{" horiz-adv-x="724" d="M133 471v78q32 9 48 16t38.5 27.5t38.5 54.5q17 37 22 81t5 120v168q2 154 17 223t65 121q49 49 105.5 66.5t143.5 19.5v-76q-32 -8 -47 -12.5t-43.5 -16.5t-49 -30.5t-36.5 -44.5q-37 -55 -37 -154v-135q0 -121 -2 -180q-3 -75 -17.5 -127t-42.5 -82.5t-58 -47 t-76 -30.5q30 -10 46.5 -17t42.5 -22t44.5 -37t32.5 -53q21 -42 27 -95t6 -157v-100q0 -72 4 -115.5t15.5 -84t35 -65t60.5 -45t95 -36.5v-76q-163 4 -241 78q-14 13 -25.5 27t-20 28t-15 27t-11 27.5t-7.5 25.5t-4.5 23.5t-2.5 19t-1.5 16t-0.5 10.5v338q-2 53 -13 93.5 t-24.5 64.5t-36 42.5t-38.5 26.5t-42 17z" />
<glyph unicode="|" horiz-adv-x="468" d="M129 -512v2048h211v-2048h-211z" />
<glyph unicode="}" horiz-adv-x="724" d="M109 -317q58 15 95 35t60.5 44.5t35 65t15.5 84t4 115.5v100q0 106 6 159t27 95q14 31 32.5 53t44.5 37t42.5 22t46.5 17q-46 14 -76 30.5t-58 47t-42.5 82.5t-17.5 127q-2 59 -2 180v135q0 99 -37 154q-16 26 -36.5 44.5t-49 30.5t-43.5 16.5t-47 12.5v76 q87 -2 143.5 -19.5t105.5 -66.5q50 -52 65 -121t17 -223v-168q0 -76 5 -120t22 -81q16 -34 38.5 -54.5t38.5 -27.5t48 -16v-78q-26 -9 -42 -17t-38.5 -26.5t-36 -42.5t-24.5 -64.5t-13 -93.5v-338q0 -1 -0.5 -10.5t-1.5 -16t-2.5 -19t-4.5 -23.5t-7.5 -25.5t-11 -27.5 t-15 -27t-20 -28t-25.5 -27q-78 -74 -241 -78v76z" />
<glyph unicode="~" horiz-adv-x="1492" d="M231 604q16 23 26.5 37.5t40.5 45t59.5 49.5t75.5 34.5t95 15.5q52 0 98 -14.5t122 -50.5l69 -33q103 -43 150 -43q57 0 104.5 34.5t95.5 92.5l95 -182q-27 -28 -38 -39t-46.5 -41t-63 -44.5t-69.5 -28t-84 -13.5q-49 0 -93 15t-118 50l-60 29q-99 47 -158 47 q-57 0 -92.5 -26.5t-109.5 -112.5z" />
<glyph unicode="&#xa1;" horiz-adv-x="468" d="M82 1341q0 45 33 78t78 33q46 0 78 -32.5t32 -78.5q0 -45 -32.5 -77.5t-77.5 -32.5q-44 0 -77.5 33t-33.5 77zM131 0v1094h129v-1094h-129z" />
<glyph unicode="&#xa2;" horiz-adv-x="854" d="M88 246v442q5 141 57.5 201.5t194.5 60.5h68v133h92v-133h286v-336h-206v156h-80v-590h80v164h206v-344h-286v-145h-92v145h-39q-124 0 -183 33q-25 15 -43 34.5t-27.5 36.5t-15.5 46t-8 45t-4 51zM305 180h103v590h-103v-590z" />
<glyph unicode="&#xa3;" horiz-adv-x="1067" d="M68 0v193h120v489h-120v111h120v297q0 35 0.5 50t2 46.5t4.5 46t8.5 40t13 39.5t19.5 33.5t27.5 31.5t36 24.5t46.5 21.5q67 23 201 23h385v-461h-225v268h-164q-33 -1 -54.5 -4t-37 -14.5t-23 -22t-12 -38t-5 -49.5t-1.5 -70v-262h297v-111h-297v-489h411v268h217v-461 h-970z" />
<glyph unicode="&#xa4;" horiz-adv-x="1366" d="M49 221l164 160q-35 56 -51.5 88t-31.5 92.5t-15 134.5q0 72 15 132.5t30.5 91.5t50.5 88l-158 159l156 156l160 -158q44 26 66.5 38t64 28.5t86.5 23.5t102 7q70 0 130.5 -16t88.5 -30.5t88 -50.5l160 158l160 -158l-162 -157q25 -41 37.5 -64.5t28.5 -63t23 -83 t7 -97.5q0 -62 -8.5 -112.5t-26.5 -92t-29 -61.5t-34 -55l162 -162l-160 -158l-160 162q-57 -34 -86.5 -48.5t-90.5 -30t-132 -15.5q-59 0 -110.5 9t-92 26.5t-62.5 29.5t-50 31l-162 -160zM324 692q0 -156 106.5 -258t251.5 -102q151 0 254 102t104 260q1 160 -107 261.5 t-249 101.5q-148 0 -254 -100.5t-106 -264.5z" />
<glyph unicode="&#xa5;" d="M2 1253v193h260l297 -610l297 610h254v-193h-109l-200 -370h192v-162h-280l-45 -82v-57h325v-162h-325v-227h123v-193h-472v193h125v227h-338v162h338v57l-43 82h-295v162h207l-198 370h-113z" />
<glyph unicode="&#xa6;" horiz-adv-x="468" d="M129 358h211v-716h-211v716zM129 666v716h211v-716h-211z" />
<glyph unicode="&#xa7;" horiz-adv-x="980" d="M96 -51h219v-156h344v348h-323q-131 0 -182.5 56t-57.5 180v313q1 93 32 127t103 47q-84 17 -108 50.5t-27 127.5v181q0 96 37 149q15 22 34.5 36.5t37 22t47.5 11t49 4t59 0.5h318q107 -8 152 -53.5t47 -167.5v-90h-218v131h-344v-318h344q45 0 80.5 -7.5t58 -19.5 t39 -31.5t24 -37t12 -41.5t5 -39.5t-0.5 -36.5v-336q0 -99 -28 -129t-120 -41q92 -8 120 -46t28 -120v-256q0 -48 -12 -84t-32 -56t-45 -33.5t-51 -16t-51.5 -5t-44.5 0.5h-326q-76 0 -114.5 13.5t-63.5 47.5q-19 25 -28.5 61t-11 62t-1.5 76v76zM315 317h344v451h-344v-451 z" />
<glyph unicode="&#xa8;" horiz-adv-x="555" d="M-6 1217q0 49 34.5 83.5t84.5 34.5q49 0 83.5 -34.5t34.5 -83.5q0 -50 -34.5 -84.5t-83.5 -34.5t-84 35t-35 84zM324 1217q0 49 34 83.5t84 34.5t84.5 -34.5t34.5 -83.5t-34.5 -84t-84.5 -35q-49 0 -83.5 34.5t-34.5 84.5z" />
<glyph unicode="&#xa9;" horiz-adv-x="1705" d="M125 721q0 152 57.5 288t155.5 233t233 153.5t285 56.5q151 0 285.5 -56.5t231.5 -154t153.5 -233.5t56.5 -289q0 -146 -55.5 -279.5t-151.5 -231.5t-233 -156t-291 -58q-141 0 -273 54t-232.5 147.5t-161 231t-60.5 294.5zM190 719q0 -176 86.5 -327.5t240.5 -242 t339 -90.5q130 0 249.5 49t210.5 134t146 209.5t56 267.5q1 132 -48.5 254t-136 213t-211 145.5t-266.5 54.5q-182 0 -335 -88t-242 -241.5t-89 -337.5zM381 745q0 73 11 133.5t42.5 120.5t82.5 101t136.5 66.5t198.5 25.5q70 0 162 -10l53 -4l156 -2l12 -318h-74 q-7 37 -11.5 57.5t-15 55t-21.5 55t-30.5 46t-42.5 39.5t-56.5 24t-74.5 10q-237 0 -237 -377q0 -116 18 -217q13 -77 38.5 -129t60.5 -78t70 -36.5t79 -10.5q39 0 71.5 10t54 24t38.5 39t26.5 44.5t17 52t10.5 49.5t7 49h74v-286l-199 -17q-118 -12 -178 -12 q-147 0 -236 34.5t-145 102.5q-49 59 -73.5 155.5t-24.5 202.5z" />
<glyph unicode="&#xaa;" horiz-adv-x="598" d="M41 1010q0 48 4 76t19 54.5t47 39.5t84 16h172v139h-183v-86h-133v66q1 22 3 37t10.5 36t23 34t43 22.5t68.5 9.5h161q23 0 37 -1t37.5 -9t37 -23t24 -46t10.5 -75v-323h69v-119h-350q-62 2 -83.5 5.5t-45.5 17.5q-55 38 -55 129zM184 971h183v114h-183v-114z" />
<glyph unicode="&#xab;" horiz-adv-x="641" d="M23 496l245 348l86 -62l-200 -286l200 -285l-86 -57zM268 496l254 348l88 -58l-209 -290l209 -285l-88 -57z" />
<glyph unicode="&#xac;" horiz-adv-x="1366" d="M0 496v211h1366v-707h-211v496h-1155z" />
<glyph unicode="&#xad;" horiz-adv-x="681" d="M59 444v113h572v-113h-572z" />
<glyph unicode="&#xae;" horiz-adv-x="1705" d="M123 723q0 154 59 290.5t158 232t232.5 151t279.5 55.5q155 0 292 -58.5t233 -157.5t151.5 -233.5t54.5 -281.5q-1 -150 -57.5 -284.5t-154 -231.5t-233 -154t-288.5 -57q-141 0 -273 54t-232.5 148t-161 231.5t-60.5 295.5zM188 723q0 -183 89.5 -336t242 -240.5 t332.5 -87.5q184 0 337 88t240.5 240t88.5 334q1 179 -84.5 331.5t-239 243t-338.5 90.5q-138 0 -262 -52.5t-213 -141.5t-141 -211.5t-52 -257.5zM475 260v102q42 5 58 9.5t24 15.5q7 9 8.5 22t1.5 68v527q2 55 -11 68.5t-81 17.5v104q57 -1 117 -2.5t84 -1.5q17 0 119.5 2 t122.5 2q140 0 210 -37q57 -31 89 -82t32 -112q0 -90 -58 -146t-157 -76q25 -12 43.5 -30.5t30.5 -43.5t17 -40t12 -39l20 -78q10 -49 18.5 -68.5t24.5 -19.5q33 0 51 110l92 -14q-6 -27 -8.5 -36.5t-9.5 -37.5t-12 -41t-15.5 -37.5t-20 -37t-24 -29.5t-30 -25.5t-36.5 -15 t-44 -6.5q-31 0 -56.5 8.5t-44.5 28.5t-32.5 39.5t-26 54.5t-19.5 59.5t-18 67.5q-10 41 -15.5 60t-15 45.5t-18 37.5t-22.5 23.5t-32 17.5t-42 6h-33v-258q0 -47 17 -58.5t87 -21.5v-102q-188 4 -192 4q-69 0 -205 -4zM768 829h45q112 0 170.5 29t58.5 103q0 120 -161 120 q-31 0 -48 -0.5t-31 -6t-20 -10t-9.5 -20.5t-4 -28.5t-0.5 -42.5v-144z" />
<glyph unicode="&#xaf;" horiz-adv-x="555" d="M-8 1147v125h573v-125h-573z" />
<glyph unicode="&#xb0;" horiz-adv-x="724" d="M10 1196q0 146 103.5 249t251.5 103q146 0 249 -103t103 -249q0 -148 -103 -251t-249 -103q-148 0 -251.5 103t-103.5 251zM217 1194q0 -61 43 -104t105 -43q60 0 102.5 43t42.5 104q0 60 -42.5 102.5t-102.5 42.5q-61 0 -104.5 -42.5t-43.5 -102.5z" />
<glyph unicode="&#xb1;" horiz-adv-x="1366" d="M84 0v211h1196v-211h-1196zM84 766v211h496v461h211v-461h489v-211h-489v-463h-211v463h-496z" />
<glyph unicode="&#xb2;" horiz-adv-x="681" d="M68 543v315l397 250v109q1 66 -15 81.5t-77 18.5h-58q-61 0 -77.5 -20t-16.5 -80v-68h-153v98q1 34 5.5 57.5t18.5 52.5t38 47t68 30.5t105 13.5h88q116 0 171 -39t56 -147v-228l-397 -246v-114h244v114h153v-245h-550z" />
<glyph unicode="&#xb3;" horiz-adv-x="681" d="M63 739v54h150v-43q1 -45 17 -59t69 -17h78q56 0 68.5 17t15.5 75v74q0 56 -13.5 72.5t-70.5 17.5h-172v127l225 260h-217v-115h-150v246h551v-117l-225 -270h55q46 -2 79.5 -17t50.5 -34t26.5 -49t11.5 -51.5t2 -51.5v-113q-1 -32 -2.5 -47t-9.5 -40.5t-22 -45.5 q-22 -29 -55.5 -45t-57 -19.5t-59.5 -4.5h-148q-112 6 -153 52.5t-44 143.5z" />
<glyph unicode="&#xb4;" horiz-adv-x="555" d="M123 1059l176 299h131l-172 -299h-135z" />
<glyph unicode="&#xb6;" horiz-adv-x="1366" d="M174 1022q0 165 92 274q41 51 90 83.5t104.5 45.5t88 16.5t84.5 4.5h491v-135h-71v-1653h-146v1653h-268v-1653h-145v969q-51 12 -79.5 21t-72.5 36t-78 68q-90 106 -90 270z" />
<glyph unicode="&#xb7;" horiz-adv-x="382" d="M82 512q0 46 33 78.5t80 32.5q46 0 78 -32.5t32 -78.5q0 -47 -32 -80t-78 -33q-47 0 -80 33t-33 80z" />
<glyph unicode="&#xb8;" horiz-adv-x="555" d="M111 -258h178v113h-88v178h118v-127h123v-248h-331v84z" />
<glyph unicode="&#xb9;" horiz-adv-x="681" d="M143 1184v135l291 151v-796h74v-131h-301v131h76v581z" />
<glyph unicode="&#xba;" horiz-adv-x="598" d="M61 997v291q0 90 35 128.5t127 37.5h160q44 0 74 -11t45 -24.5t23 -39t9 -41t1 -44.5v-262q-1 -28 -1.5 -41t-3.5 -36t-8 -34.5t-15 -27t-24 -22.5t-36 -13.5t-50 -7.5h-161q-31 0 -51 1.5t-45.5 9.5t-40.5 23t-26 43.5t-12 69.5zM203 969h190v366h-190v-366z" />
<glyph unicode="&#xbb;" horiz-adv-x="641" d="M25 211l208 285l-208 290l88 58l254 -348l-254 -342zM281 211l200 285l-200 286l86 62l245 -348l-245 -342z" />
<glyph unicode="&#xbc;" horiz-adv-x="1622" d="M143 1184v135l291 151v-796h74v-131h-301v131h76v581zM395 0l682 1448h148l-686 -1448h-144zM973 256v147l360 502h158v-518h98v-131h-98v-256h-150v256h-368zM1122 387h219l9 334z" />
<glyph unicode="&#xbd;" horiz-adv-x="1622" d="M143 1186v133l291 151v-796h74v-131h-301v131h76v583zM360 0l680 1448h148l-684 -1448h-144zM1006 0v315l397 248v111q1 66 -15 81.5t-77 18.5h-58q-61 0 -77.5 -21t-16.5 -79v-68h-153v96q1 34 5.5 58t18.5 53.5t38 47.5t68 30.5t105 13.5h88q116 0 171 -39.5t56 -148.5 v-225l-397 -246v-115h244v115h153v-246h-550z" />
<glyph unicode="&#xbe;" horiz-adv-x="1622" d="M61 739v54h150v-43q1 -45 17 -59t69 -17h78q56 0 68.5 17t15.5 75v74q0 56 -13.5 72.5t-70.5 17.5h-172v127l225 260h-217v-115h-150v246h551v-117l-225 -270h55q46 -2 79.5 -17t50.5 -34t26.5 -49t11.5 -51.5t2 -51.5v-113q-1 -32 -2.5 -47t-9.5 -40.5t-22 -45.5 q-22 -29 -55.5 -45t-57 -19.5t-59.5 -4.5h-148q-112 6 -153 52.5t-44 143.5zM430 0l684 1448h148l-689 -1448h-143zM973 256v147l360 502h158v-518h98v-131h-98v-256h-150v256h-368zM1122 387h219l9 334z" />
<glyph unicode="&#xbf;" horiz-adv-x="854" d="M125 193v430q5 70 10 86q9 26 24.5 42.5t38 24.5t39.5 10.5t46 4.5h202v303h150v-437h-365v-522h379v223h144v-204q1 -44 -8 -73.5t-22.5 -45.5t-40 -24t-47 -9.5t-57.5 -1.5h-325q-33 0 -52.5 1.5t-49 14.5t-44.5 37q-13 19 -16 39.5t-6 100.5zM440 1339q0 46 32.5 78.5 t78.5 32.5t78.5 -32.5t32.5 -78.5t-32.5 -78t-78.5 -32t-78.5 32t-32.5 78z" />
<glyph unicode="&#xc0;" horiz-adv-x="1150" d="M0 0v193h115l303 1253h346l274 -1253h113v-193h-322l-90 461h-329l-95 -461h-315zM395 1825h131l168 -299h-129zM446 649h259l-123 647z" />
<glyph unicode="&#xc1;" horiz-adv-x="1150" d="M0 0v193h115l303 1253h346l274 -1253h113v-193h-322l-90 461h-329l-95 -461h-315zM446 649h259l-123 647zM453 1526l172 301h133l-170 -301h-135z" />
<glyph unicode="&#xc2;" horiz-adv-x="1150" d="M0 0v193h115l303 1253h346l274 -1253h113v-193h-322l-90 461h-329l-95 -461h-315zM324 1526l186 297h143l176 -297h-127l-124 203l-125 -203h-129zM446 649h259l-123 647z" />
<glyph unicode="&#xc3;" horiz-adv-x="1150" d="M0 0v193h115l303 1253h346l274 -1253h113v-193h-322l-90 461h-329l-95 -461h-315zM301 1657q29 48 72 82.5t90 34.5t158 -52q32 -16 53 -16q26 0 42.5 13.5t51.5 54.5l90 -56q-80 -121 -170 -121q-42 0 -141 39q-72 27 -80 27q-19 0 -32.5 -11t-45.5 -48zM446 649h259 l-123 647z" />
<glyph unicode="&#xc4;" horiz-adv-x="1150" d="M0 0v193h115l303 1253h346l274 -1253h113v-193h-322l-90 461h-329l-95 -461h-315zM305 1683q0 49 34.5 84t84.5 35t84.5 -35t34.5 -84t-34.5 -83.5t-84.5 -34.5t-84.5 34.5t-34.5 83.5zM446 649h259l-123 647zM635 1683q0 49 34.5 84t84.5 35q49 0 83.5 -34.5t34.5 -84.5 q0 -49 -34 -83.5t-84 -34.5t-84.5 34.5t-34.5 83.5z" />
<glyph unicode="&#xc5;" horiz-adv-x="1150" d="M0 0v193h115l303 1253h346l274 -1253h113v-193h-322l-90 461h-329l-95 -461h-315zM436 1679q0 65 46 111.5t112 46.5t112 -46.5t46 -111.5q0 -64 -46.5 -110.5t-111.5 -46.5t-111.5 45.5t-46.5 111.5zM446 649h259l-123 647zM532 1679q0 -26 19 -44.5t45 -18.5 q27 0 45 19t18 44q0 28 -18.5 47t-44.5 19q-25 0 -44.5 -19.5t-19.5 -46.5z" />
<glyph unicode="&#xc6;" horiz-adv-x="1748" d="M0 0v193h129l557 1253h1000v-428h-211v235h-400v-413h430v-201h-430v-446h412v268h209v-461h-850v461h-359l-206 -461h-281zM567 639h279v659z" />
<glyph unicode="&#xc7;" horiz-adv-x="1024" d="M94 360v693q0 46 1 72t6.5 68.5t15.5 71.5t31 62.5t51 58.5q32 26 71 39.5t66.5 16.5t81.5 6h524v-426h-223v233h-234q-38 -1 -60.5 -3.5t-41.5 -11t-27.5 -18.5t-15 -33t-8.5 -47.5t-4 -68.5v-696q0 -6 1 -42.5t1 -43.5q6 -60 40.5 -78t110.5 -18h252v258h221v-451h-338 v-90h123v-248h-331v84h178v113h-88v141h-80q-49 1 -78.5 4.5t-72.5 15.5t-76.5 42t-59.5 77q-17 34 -26 75.5t-10 68.5t-1 75z" />
<glyph unicode="&#xc8;" horiz-adv-x="1067" d="M45 0v193h119v1060h-119v193h959v-424h-213v231h-398v-419h428v-195h-428v-446h412v266h211v-459h-971zM352 1825h131l168 -299h-129z" />
<glyph unicode="&#xc9;" horiz-adv-x="1067" d="M45 0v193h119v1060h-119v193h959v-424h-213v231h-398v-419h428v-195h-428v-446h412v266h211v-459h-971zM410 1526l172 301h133l-170 -301h-135z" />
<glyph unicode="&#xca;" horiz-adv-x="1067" d="M45 0v193h119v1060h-119v193h959v-424h-213v231h-398v-419h428v-195h-428v-446h412v266h211v-459h-971zM281 1526l186 297h143l176 -297h-127l-124 203l-125 -203h-129z" />
<glyph unicode="&#xcb;" horiz-adv-x="1067" d="M45 0v193h119v1060h-119v193h959v-424h-213v231h-398v-419h428v-195h-428v-446h412v266h211v-459h-971zM250 1677q0 49 35 84t84 35t83.5 -34.5t34.5 -84.5q0 -49 -34.5 -83.5t-83.5 -34.5q-50 0 -84.5 34.5t-34.5 83.5zM580 1677q0 50 34.5 84.5t83.5 34.5 q50 0 84.5 -35t34.5 -84t-34.5 -83.5t-84.5 -34.5t-84 34.5t-34 83.5z" />
<glyph unicode="&#xcc;" horiz-adv-x="555" d="M43 0v193h123v1060h-123v193h471v-193h-121v-1060h121v-193h-471zM96 1825h131l168 -299h-129z" />
<glyph unicode="&#xcd;" horiz-adv-x="555" d="M43 0v193h123v1060h-123v193h471v-193h-121v-1060h121v-193h-471zM154 1526l172 301h133l-170 -301h-135z" />
<glyph unicode="&#xce;" horiz-adv-x="555" d="M25 1526l186 297h143l176 -297h-127l-124 203l-125 -203h-129zM43 0v193h123v1060h-123v193h471v-193h-121v-1060h121v-193h-471z" />
<glyph unicode="&#xcf;" horiz-adv-x="555" d="M-6 1677q0 49 35 84t84 35t83.5 -34.5t34.5 -84.5q0 -49 -34.5 -83.5t-83.5 -34.5q-50 0 -84.5 34.5t-34.5 83.5zM43 0v193h123v1060h-123v193h471v-193h-121v-1060h121v-193h-471zM324 1677q0 50 34.5 84.5t83.5 34.5q50 0 84.5 -35t34.5 -84t-34.5 -83.5t-84.5 -34.5 t-84 34.5t-34 83.5z" />
<glyph unicode="&#xd0;" horiz-adv-x="1150" d="M43 0v193h121v524h-121v174h121v362h-121v193h674q39 0 57 -1t54.5 -5t66 -16.5t55.5 -32.5q30 -24 51.5 -56.5t32 -61t16 -70.5t6.5 -67.5t1 -68.5v-711q0 -114 -22 -179.5t-74 -108.5q-37 -32 -88.5 -47.5t-88 -18t-106.5 -2.5h-635zM391 193h277q29 0 50.5 1t38 7.5 t27 11.5t18.5 19.5t12 24t6.5 34t3 40t1.5 50.5v672q0 37 -0.5 54t-3 42t-6.5 35t-12 25t-19 20.5t-28.5 12t-39.5 8.5t-52 3h-273v-362h227v-174h-227v-524z" />
<glyph unicode="&#xd1;" horiz-adv-x="1280" d="M43 0v193h121v1048h-121v205h371q42 -91 254 -525t260 -554v1079h325v-193h-120v-1253h-215q-41 72 -90.5 166t-85 164.5t-92 183t-83.5 164.5q-51 99 -83.5 167t-51 110t-65.5 153v-1108h-324zM365 1657q29 48 71.5 82.5t89.5 34.5t158 -52q32 -16 53 -16 q26 0 42.5 13.5t51.5 54.5l91 -56q-80 -121 -170 -121q-43 0 -142 39q-72 27 -80 27q-13 0 -24.5 -6.5t-20 -15.5t-32.5 -37z" />
<glyph unicode="&#xd2;" d="M96 414v604q3 161 8 204.5t27 88.5q25 50 63 81.5t87 43t75.5 14t69.5 2.5h244q65 1 110 -4.5t92 -26t75 -57.5t45.5 -102t17.5 -158v-770q0 -43 -2 -69.5t-10 -67.5t-29 -75.5t-54 -62.5q-27 -24 -55 -38t-63.5 -19.5t-58 -6.5t-68.5 -1h-221h-50.5t-49 2.5t-52.5 7.5 t-47 15.5t-46.5 25t-38.5 37.5t-34 53q-19 41 -24.5 87.5t-10.5 191.5zM330 344q0 -18 2 -45.5t5.5 -37.5t11 -25.5t17.5 -20t26 -11.5t36 -8.5t49 -2.5h158q35 0 59 4t40.5 16.5t25.5 26t13.5 41.5t5.5 52.5t1 69.5v631q1 63 -1.5 99t-11.5 64.5t-30 40.5t-50.5 18.5 t-80.5 7.5h-88q-45 0 -70.5 -2t-50 -10.5t-35 -22t-19.5 -41.5t-11 -63.5t-2 -92.5v-629v-59zM375 1825h131l168 -299h-129z" />
<glyph unicode="&#xd3;" d="M96 414v604q3 161 8 204.5t27 88.5q25 50 63 81.5t87 43t75.5 14t69.5 2.5h244q65 1 110 -4.5t92 -26t75 -57.5t45.5 -102t17.5 -158v-770q0 -43 -2 -69.5t-10 -67.5t-29 -75.5t-54 -62.5q-27 -24 -55 -38t-63.5 -19.5t-58 -6.5t-68.5 -1h-221h-50.5t-49 2.5t-52.5 7.5 t-47 15.5t-46.5 25t-38.5 37.5t-34 53q-19 41 -24.5 87.5t-10.5 191.5zM330 344q0 -18 2 -45.5t5.5 -37.5t11 -25.5t17.5 -20t26 -11.5t36 -8.5t49 -2.5h158q35 0 59 4t40.5 16.5t25.5 26t13.5 41.5t5.5 52.5t1 69.5v631q1 63 -1.5 99t-11.5 64.5t-30 40.5t-50.5 18.5 t-80.5 7.5h-88q-45 0 -70.5 -2t-50 -10.5t-35 -22t-19.5 -41.5t-11 -63.5t-2 -92.5v-629v-59zM432 1526l172 301h133l-170 -301h-135z" />
<glyph unicode="&#xd4;" d="M96 414v604q3 161 8 204.5t27 88.5q25 50 63 81.5t87 43t75.5 14t69.5 2.5h244q65 1 110 -4.5t92 -26t75 -57.5t45.5 -102t17.5 -158v-770q0 -43 -2 -69.5t-10 -67.5t-29 -75.5t-54 -62.5q-27 -24 -55 -38t-63.5 -19.5t-58 -6.5t-68.5 -1h-221h-50.5t-49 2.5t-52.5 7.5 t-47 15.5t-46.5 25t-38.5 37.5t-34 53q-19 41 -24.5 87.5t-10.5 191.5zM303 1526l186 297h144l176 -297h-127l-125 203l-125 -203h-129zM330 344q0 -18 2 -45.5t5.5 -37.5t11 -25.5t17.5 -20t26 -11.5t36 -8.5t49 -2.5h158q35 0 59 4t40.5 16.5t25.5 26t13.5 41.5t5.5 52.5 t1 69.5v631q1 63 -1.5 99t-11.5 64.5t-30 40.5t-50.5 18.5t-80.5 7.5h-88q-45 0 -70.5 -2t-50 -10.5t-35 -22t-19.5 -41.5t-11 -63.5t-2 -92.5v-629v-59z" />
<glyph unicode="&#xd5;" d="M96 414v604q3 161 8 204.5t27 88.5q25 50 63 81.5t87 43t75.5 14t69.5 2.5h244q65 1 110 -4.5t92 -26t75 -57.5t45.5 -102t17.5 -158v-770q0 -43 -2 -69.5t-10 -67.5t-29 -75.5t-54 -62.5q-27 -24 -55 -38t-63.5 -19.5t-58 -6.5t-68.5 -1h-221h-50.5t-49 2.5t-52.5 7.5 t-47 15.5t-46.5 25t-38.5 37.5t-34 53q-19 41 -24.5 87.5t-10.5 191.5zM281 1657q29 48 71.5 82.5t89.5 34.5t158 -52q32 -16 53 -16q26 0 43.5 13.5t51.5 54.5l90 -56q-80 -121 -170 -121q-43 0 -142 39q-72 27 -80 27q-13 0 -24.5 -6.5t-20 -15.5t-32.5 -37zM330 344 q0 -18 2 -45.5t5.5 -37.5t11 -25.5t17.5 -20t26 -11.5t36 -8.5t49 -2.5h158q35 0 59 4t40.5 16.5t25.5 26t13.5 41.5t5.5 52.5t1 69.5v631q1 63 -1.5 99t-11.5 64.5t-30 40.5t-50.5 18.5t-80.5 7.5h-88q-45 0 -70.5 -2t-50 -10.5t-35 -22t-19.5 -41.5t-11 -63.5t-2 -92.5 v-629v-59z" />
<glyph unicode="&#xd6;" d="M96 414v604q3 161 8 204.5t27 88.5q25 50 63 81.5t87 43t75.5 14t69.5 2.5h244q65 1 110 -4.5t92 -26t75 -57.5t45.5 -102t17.5 -158v-770q0 -43 -2 -69.5t-10 -67.5t-29 -75.5t-54 -62.5q-27 -24 -55 -38t-63.5 -19.5t-58 -6.5t-68.5 -1h-221h-50.5t-49 2.5t-52.5 7.5 t-47 15.5t-46.5 25t-38.5 37.5t-34 53q-19 41 -24.5 87.5t-10.5 191.5zM281 1683q0 50 34.5 84.5t83.5 34.5t84 -35t35 -84t-34.5 -83.5t-84.5 -34.5q-49 0 -83.5 34.5t-34.5 83.5zM330 344q0 -18 2 -45.5t5.5 -37.5t11 -25.5t17.5 -20t26 -11.5t36 -8.5t49 -2.5h158 q35 0 59 4t40.5 16.5t25.5 26t13.5 41.5t5.5 52.5t1 69.5v631q1 63 -1.5 99t-11.5 64.5t-30 40.5t-50.5 18.5t-80.5 7.5h-88q-45 0 -70.5 -2t-50 -10.5t-35 -22t-19.5 -41.5t-11 -63.5t-2 -92.5v-629v-59zM610 1683q0 49 35 84t84 35t84 -35t35 -84t-34.5 -83.5t-84.5 -34.5 t-84.5 34.5t-34.5 83.5z" />
<glyph unicode="&#xd7;" horiz-adv-x="1366" d="M139 205l391 393l-391 393l152 152l391 -393l393 393l152 -152l-393 -393l393 -393l-152 -152l-393 393l-391 -393z" />
<glyph unicode="&#xd8;" d="M63 -35l80 144q-28 57 -35 104t-12 201v604q3 161 8 204.5t27 88.5q25 50 63 81.5t87 43t75.5 14t69.5 2.5h270q62 0 98 -6.5t87 -26.5l67 117l76 -47l-72 -131q37 -65 46 -107.5t12 -146.5v-770q0 -43 -2 -69.5t-10 -67.5t-29 -75.5t-54 -62.5q-27 -24 -55 -38 t-63.5 -19.5t-58 -6.5t-68.5 -1h-269q-63 1 -104.5 9t-54 14.5t-33.5 21.5l-64 -117zM330 438l434 772q-30 33 -64 43.5t-94 10.5h-114q-42 0 -65 -3.5t-44.5 -15.5t-31.5 -38t-15.5 -67.5t-5.5 -107.5v-594zM336 258q19 -42 45.5 -52.5t95.5 -12.5h158q35 0 59 4t40.5 16.5 t25.5 26t13.5 41.5t5.5 52.5t1 69.5v631z" />
<glyph unicode="&#xd9;" horiz-adv-x="1193" d="M39 1253v193h348v-1008q1 -133 13 -170q16 -49 70 -64q37 -9 105 -11h95q38 3 61.5 7t41.5 17t26 26t13 45.5t6 61.5t1 88v1008h350v-193h-120v-913q-3 -56 -6 -85t-17.5 -72.5t-42.5 -78.5q-31 -37 -70 -60.5t-84.5 -31.5t-69.5 -10t-63 -2h-211q-55 3 -79.5 5t-63.5 13 t-70 31q-30 19 -50.5 44.5t-31.5 46.5t-18 59.5t-9 60.5t-5 74v919h-119zM418 1825h131l168 -299h-129z" />
<glyph unicode="&#xda;" horiz-adv-x="1193" d="M39 1253v193h348v-1008q1 -133 13 -170q16 -49 70 -64q37 -9 105 -11h95q38 3 61.5 7t41.5 17t26 26t13 45.5t6 61.5t1 88v1008h350v-193h-120v-913q-3 -56 -6 -85t-17.5 -72.5t-42.5 -78.5q-31 -37 -70 -60.5t-84.5 -31.5t-69.5 -10t-63 -2h-211q-55 3 -79.5 5t-63.5 13 t-70 31q-30 19 -50.5 44.5t-31.5 46.5t-18 59.5t-9 60.5t-5 74v919h-119zM475 1526l172 301h133l-170 -301h-135z" />
<glyph unicode="&#xdb;" horiz-adv-x="1193" d="M39 1253v193h348v-1008q1 -133 13 -170q16 -49 70 -64q37 -9 105 -11h95q38 3 61.5 7t41.5 17t26 26t13 45.5t6 61.5t1 88v1008h350v-193h-120v-913q-3 -56 -6 -85t-17.5 -72.5t-42.5 -78.5q-31 -37 -70 -60.5t-84.5 -31.5t-69.5 -10t-63 -2h-211q-55 3 -79.5 5t-63.5 13 t-70 31q-30 19 -50.5 44.5t-31.5 46.5t-18 59.5t-9 60.5t-5 74v919h-119zM346 1526l186 297h144l176 -297h-127l-125 203l-125 -203h-129z" />
<glyph unicode="&#xdc;" horiz-adv-x="1193" d="M39 1253v193h348v-1008q1 -133 13 -170q16 -49 70 -64q37 -9 105 -11h95q38 3 61.5 7t41.5 17t26 26t13 45.5t6 61.5t1 88v1008h350v-193h-120v-913q-3 -56 -6 -85t-17.5 -72.5t-42.5 -78.5q-31 -37 -70 -60.5t-84.5 -31.5t-69.5 -10t-63 -2h-211q-55 3 -79.5 5t-63.5 13 t-70 31q-30 19 -50.5 44.5t-31.5 46.5t-18 59.5t-9 60.5t-5 74v919h-119zM324 1683q0 50 34.5 84.5t83.5 34.5q50 0 84.5 -35t34.5 -84t-34.5 -83.5t-84.5 -34.5t-84 34.5t-34 83.5zM653 1683q0 49 34.5 84t84.5 35t84.5 -35t34.5 -84t-34.5 -83.5t-84.5 -34.5t-84.5 34.5 t-34.5 83.5z" />
<glyph unicode="&#xdd;" d="M2 1253v193h260l297 -610l297 610h254v-193h-109l-333 -614v-446h120v-193h-469v193h125v446l-331 614h-111zM432 1526l172 301h133l-170 -301h-135z" />
<glyph unicode="&#xde;" horiz-adv-x="1024" d="M43 0v193h123v1060h-123v193h473v-193h-123v-104h285q152 0 231 -51q99 -62 99 -246v-195q1 -98 -19 -164t-63 -103.5t-101 -52.5t-141 -15h-291v-129h123v-193h-473zM393 518h248q86 2 114 32.5t29 133.5v123q-3 86 -30.5 111t-120.5 28h-240v-428z" />
<glyph unicode="&#xdf;" horiz-adv-x="894" d="M109 0v1196q0 24 0.5 40t6 45t14.5 49t28 44t45.5 38.5t68.5 24t95 9.5h165v-193h-204v-305h280q38 -1 58.5 -3t51.5 -11t54 -25q32 -24 49 -60.5t19 -61t2 -64.5v-238q1 -92 -26 -132t-91 -58q45 -13 68.5 -29t36.5 -52t12 -97v-283q0 -46 -9.5 -82.5t-22.5 -60 t-35.5 -40.5t-40.5 -25.5t-46.5 -13.5t-44 -5.5t-41.5 -1.5h-289v182h312v418h-158v178h158v385h-297v-768h-219z" />
<glyph unicode="&#xe0;" horiz-adv-x="937" d="M57 238q0 37 1 59t4 53t9.5 50t18 41.5t29.5 36t42.5 26.5t59 19.5t78.5 8.5h285v238h-308v-141h-204v102q2 22 2.5 30.5t4 31t7.5 34t13 31.5t20 30.5t29 24.5t40 21t52.5 12t66.5 4h260q121 0 175.5 -53t54.5 -190v-527h112v-180h-559q-97 0 -133 6.5t-72 30.5 q-51 33 -69.5 81.5t-18.5 119.5zM276 170h308v197h-308v-197zM287 1358h135l168 -299h-131z" />
<glyph unicode="&#xe1;" horiz-adv-x="937" d="M57 238q0 37 1 59t4 53t9.5 50t18 41.5t29.5 36t42.5 26.5t59 19.5t78.5 8.5h285v238h-308v-141h-204v102q2 22 2.5 30.5t4 31t7.5 34t13 31.5t20 30.5t29 24.5t40 21t52.5 12t66.5 4h260q121 0 175.5 -53t54.5 -190v-527h112v-180h-559q-97 0 -133 6.5t-72 30.5 q-51 33 -69.5 81.5t-18.5 119.5zM276 170h308v197h-308v-197zM344 1059l176 299h131l-172 -299h-135z" />
<glyph unicode="&#xe2;" horiz-adv-x="937" d="M57 238q0 37 1 59t4 53t9.5 50t18 41.5t29.5 36t42.5 26.5t59 19.5t78.5 8.5h285v238h-308v-141h-204v102q2 22 2.5 30.5t4 31t7.5 34t13 31.5t20 30.5t29 24.5t40 21t52.5 12t66.5 4h260q121 0 175.5 -53t54.5 -190v-527h112v-180h-559q-97 0 -133 6.5t-72 30.5 q-51 33 -69.5 81.5t-18.5 119.5zM217 1061l186 297h140l180 -297h-129l-123 205l-125 -205h-129zM276 170h308v197h-308v-197z" />
<glyph unicode="&#xe3;" horiz-adv-x="937" d="M57 238q0 37 1 59t4 53t9.5 50t18 41.5t29.5 36t42.5 26.5t59 19.5t78.5 8.5h285v238h-308v-141h-204v102q2 22 2.5 30.5t4 31t7.5 34t13 31.5t20 30.5t29 24.5t40 21t52.5 12t66.5 4h260q121 0 175.5 -53t54.5 -190v-527h112v-180h-559q-97 0 -133 6.5t-72 30.5 q-51 33 -69.5 81.5t-18.5 119.5zM197 1188q32 49 77.5 84t79.5 35q44 0 164 -52q31 -14 57 -14q20 0 36.5 9.5t26 20t30.5 36.5l88 -56q-9 -18 -28.5 -43t-60 -51.5t-83.5 -26.5q-23 0 -43.5 6t-98.5 35q-69 23 -80 23q-19 0 -29.5 -9t-45.5 -50zM276 170h308v197h-308v-197 z" />
<glyph unicode="&#xe4;" horiz-adv-x="937" d="M57 238q0 37 1 59t4 53t9.5 50t18 41.5t29.5 36t42.5 26.5t59 19.5t78.5 8.5h285v238h-308v-141h-204v102q2 22 2.5 30.5t4 31t7.5 34t13 31.5t20 30.5t29 24.5t40 21t52.5 12t66.5 4h260q121 0 175.5 -53t54.5 -190v-527h112v-180h-559q-97 0 -133 6.5t-72 30.5 q-51 33 -69.5 81.5t-18.5 119.5zM166 1219q0 49 34.5 83.5t84.5 34.5q49 0 83.5 -34.5t34.5 -83.5q0 -50 -34.5 -84.5t-83.5 -34.5t-84 35t-35 84zM276 170h308v197h-308v-197zM496 1219q0 49 34 83.5t84 34.5t84.5 -34.5t34.5 -83.5t-34.5 -84t-84.5 -35q-49 0 -83.5 34.5 t-34.5 84.5z" />
<glyph unicode="&#xe5;" horiz-adv-x="937" d="M57 238q0 37 1 59t4 53t9.5 50t18 41.5t29.5 36t42.5 26.5t59 19.5t78.5 8.5h285v238h-308v-141h-204v102q2 22 2.5 30.5t4 31t7.5 34t13 31.5t20 30.5t29 24.5t40 21t52.5 12t66.5 4h260q121 0 175.5 -53t54.5 -190v-527h112v-180h-559q-97 0 -133 6.5t-72 30.5 q-51 33 -69.5 81.5t-18.5 119.5zM276 170h308v197h-308v-197zM291 1212q0 66 46.5 113t111.5 47q66 0 112.5 -47t46.5 -113q0 -65 -46.5 -111t-112.5 -46q-65 0 -111.5 46.5t-46.5 110.5zM389 1214q0 -28 18.5 -46.5t45.5 -18.5q26 0 44.5 18.5t18.5 46.5q0 26 -18.5 45 t-44.5 19t-45 -19t-19 -45z" />
<glyph unicode="&#xe6;" horiz-adv-x="1409" d="M63 219v109q0 110 63.5 160.5t168.5 50.5h303v231h-317v-137h-199v104q1 40 2 55t7 35.5t18 38.5q17 28 38 45.5t46.5 25t43 10t44.5 3.5h237q49 -1 67.5 -2.5t46 -8t42 -21.5t28.5 -41q11 18 18.5 27t25.5 22.5t47.5 19t70.5 4.5h246q26 -2 41.5 -3.5t41.5 -7t42 -14 t36 -25t31 -38.5t19 -55.5t8 -75.5v-323h-524v-228h321v121h203v-100q0 -73 -31 -119q-24 -37 -59.5 -56.5t-58 -22.5t-54.5 -3h-266q-67 2 -98 14t-60 56q-18 -25 -30 -36.5t-44.5 -23t-82.5 -10.5h-250q-32 0 -57.5 3t-60.5 15.5t-58 34.5t-39.5 64.5t-16.5 101.5z M281 180h317v197h-317v-197zM805 569h321v201h-321v-201z" />
<glyph unicode="&#xe7;" horiz-adv-x="854" d="M88 248v442q2 70 14 115.5t40 79.5t76.5 49.5t121.5 15.5h446v-336h-206v156h-275v-588h275v164h206v-344h-280v-90h125v-248h-332v84h176v113h-86v141h-20q-124 0 -183 33q-25 15 -43 34.5t-27.5 36.5t-15.5 46t-8 45t-4 51z" />
<glyph unicode="&#xe8;" horiz-adv-x="894" d="M90 266v414q0 42 1.5 67t11 64t28.5 66q15 22 35 37t35.5 22.5t45 11.5t42.5 4.5t49 1.5h240q40 0 66.5 -2.5t63 -14t58.5 -33.5t38 -64.5t17 -102.5v-327h-520v-236h317v137h203v-110q-2 -33 -5 -55.5t-17 -54t-37.5 -51t-68.5 -33.5t-107 -13h-258q-37 -1 -62.5 0.5 t-64 18t-64.5 48.5q-21 25 -30.5 55t-11.5 55t-5 95zM264 1358h135l168 -299h-131zM301 567h317v209h-317v-209z" />
<glyph unicode="&#xe9;" horiz-adv-x="894" d="M90 266v414q0 42 1.5 67t11 64t28.5 66q15 22 35 37t35.5 22.5t45 11.5t42.5 4.5t49 1.5h240q40 0 66.5 -2.5t63 -14t58.5 -33.5t38 -64.5t17 -102.5v-327h-520v-236h317v137h203v-110q-2 -33 -5 -55.5t-17 -54t-37.5 -51t-68.5 -33.5t-107 -13h-258q-37 -1 -62.5 0.5 t-64 18t-64.5 48.5q-21 25 -30.5 55t-11.5 55t-5 95zM301 567h317v209h-317v-209zM322 1059l176 299h131l-172 -299h-135z" />
<glyph unicode="&#xea;" horiz-adv-x="894" d="M90 266v414q0 42 1.5 67t11 64t28.5 66q15 22 35 37t35.5 22.5t45 11.5t42.5 4.5t49 1.5h240q40 0 66.5 -2.5t63 -14t58.5 -33.5t38 -64.5t17 -102.5v-327h-520v-236h317v137h203v-110q-2 -33 -5 -55.5t-17 -54t-37.5 -51t-68.5 -33.5t-107 -13h-258q-37 -1 -62.5 0.5 t-64 18t-64.5 48.5q-21 25 -30.5 55t-11.5 55t-5 95zM215 1061l186 297h140l180 -297h-129l-123 205l-125 -205h-129zM301 567h317v209h-317v-209z" />
<glyph unicode="&#xeb;" horiz-adv-x="894" d="M90 266v414q0 42 1.5 67t11 64t28.5 66q15 22 35 37t35.5 22.5t45 11.5t42.5 4.5t49 1.5h240q40 0 66.5 -2.5t63 -14t58.5 -33.5t38 -64.5t17 -102.5v-327h-520v-236h317v137h203v-110q-2 -33 -5 -55.5t-17 -54t-37.5 -51t-68.5 -33.5t-107 -13h-258q-37 -1 -62.5 0.5 t-64 18t-64.5 48.5q-21 25 -30.5 55t-11.5 55t-5 95zM186 1217q0 49 34.5 83.5t84.5 34.5t84.5 -34.5t34.5 -83.5t-35 -84t-84 -35t-84 35t-35 84zM301 567h317v209h-317v-209zM516 1217q0 49 34.5 83.5t84.5 34.5t84.5 -34.5t34.5 -83.5t-35 -84t-84 -35t-84 35t-35 84z " />
<glyph unicode="&#xec;" horiz-adv-x="512" d="M39 0v180h117v590h-117v180h330v-770h116v-180h-446zM72 1358h135l168 -299h-131z" />
<glyph unicode="&#xed;" horiz-adv-x="512" d="M39 0v180h117v590h-117v180h330v-770h116v-180h-446zM129 1059l176 299h131l-172 -299h-135z" />
<glyph unicode="&#xee;" horiz-adv-x="512" d="M2 1061l186 297h140l180 -297h-129l-123 205l-125 -205h-129zM39 0v180h117v590h-117v180h330v-770h116v-180h-446z" />
<glyph unicode="&#xef;" horiz-adv-x="512" d="M-27 1217q0 49 34.5 83.5t84.5 34.5t84.5 -34.5t34.5 -83.5t-34.5 -84t-84.5 -35t-84.5 35t-34.5 84zM39 0v180h117v590h-117v180h330v-770h116v-180h-446zM303 1217q0 49 34.5 83.5t84.5 34.5t84.5 -34.5t34.5 -83.5t-34.5 -84t-84.5 -35t-84.5 35t-34.5 84z" />
<glyph unicode="&#xf0;" horiz-adv-x="937" d="M55 1253h240l-162 193h236l159 -193h174l115 -137h-174l6 -8q74 -84 103.5 -120.5t55 -84.5t30.5 -87.5t6 -110.5v-424q0 -110 -10 -150q-10 -37 -30 -63.5t-40 -40t-49.5 -21.5t-46 -9.5t-41.5 -2.5h-258q-42 0 -62 0.5t-53 6t-57 17.5q-34 18 -56.5 44.5t-31.5 60 t-11.5 53t-3.5 51.5v465q0 29 1 49t6.5 51t15.5 53t30 45t48 38q23 13 52.5 19t47 6.5t55.5 0.5h197l-135 162h-236zM311 174h316v600h-316v-600z" />
<glyph unicode="&#xf1;" horiz-adv-x="1024" d="M43 0v180h115v590h-115v180h612q56 0 87 -5.5t63 -26.5q28 -20 45 -43.5t24 -53.5t9 -52t2 -58v-531h112v-180h-331v770h-295v-590h116v-180h-444zM240 1188q32 49 77.5 84t79.5 35q44 0 164 -52q31 -14 57 -14q20 0 36.5 9.5t26 20t30.5 36.5l88 -56q-9 -18 -28.5 -43 t-60 -51.5t-83.5 -26.5q-23 0 -43.5 6t-98.5 35q-69 23 -79 23q-19 0 -30.5 -9t-45.5 -50z" />
<glyph unicode="&#xf2;" horiz-adv-x="937" d="M94 227v465q0 29 1 49t6.5 51t15.5 53t30 45t48 38q23 13 52.5 19t47 6.5t55.5 0.5h254q48 0 86 -8.5t63 -21t42.5 -33.5t27 -40t14.5 -47.5t6 -48.5t1 -50v-424q0 -110 -10 -150q-10 -37 -30 -63.5t-40 -40t-49.5 -21.5t-46 -9.5t-41.5 -2.5h-258q-42 0 -62 0.5t-53 6 t-57 17.5q-34 18 -56.5 44.5t-31.5 60t-11.5 53t-3.5 51.5zM287 1358h135l168 -299h-131zM311 174h316v600h-316v-600z" />
<glyph unicode="&#xf3;" horiz-adv-x="937" d="M94 227v465q0 29 1 49t6.5 51t15.5 53t30 45t48 38q23 13 52.5 19t47 6.5t55.5 0.5h254q48 0 86 -8.5t63 -21t42.5 -33.5t27 -40t14.5 -47.5t6 -48.5t1 -50v-424q0 -110 -10 -150q-10 -37 -30 -63.5t-40 -40t-49.5 -21.5t-46 -9.5t-41.5 -2.5h-258q-42 0 -62 0.5t-53 6 t-57 17.5q-34 18 -56.5 44.5t-31.5 60t-11.5 53t-3.5 51.5zM311 174h316v600h-316v-600zM344 1059l176 299h131l-172 -299h-135z" />
<glyph unicode="&#xf4;" horiz-adv-x="937" d="M94 227v465q0 29 1 49t6.5 51t15.5 53t30 45t48 38q23 13 52.5 19t47 6.5t55.5 0.5h254q48 0 86 -8.5t63 -21t42.5 -33.5t27 -40t14.5 -47.5t6 -48.5t1 -50v-424q0 -110 -10 -150q-10 -37 -30 -63.5t-40 -40t-49.5 -21.5t-46 -9.5t-41.5 -2.5h-258q-42 0 -62 0.5t-53 6 t-57 17.5q-34 18 -56.5 44.5t-31.5 60t-11.5 53t-3.5 51.5zM217 1061l186 297h140l180 -297h-129l-123 205l-125 -205h-129zM311 174h316v600h-316v-600z" />
<glyph unicode="&#xf5;" horiz-adv-x="937" d="M94 227v465q0 29 1 49t6.5 51t15.5 53t30 45t48 38q23 13 52.5 19t47 6.5t55.5 0.5h254q48 0 86 -8.5t63 -21t42.5 -33.5t27 -40t14.5 -47.5t6 -48.5t1 -50v-424q0 -110 -10 -150q-10 -37 -30 -63.5t-40 -40t-49.5 -21.5t-46 -9.5t-41.5 -2.5h-258q-42 0 -62 0.5t-53 6 t-57 17.5q-34 18 -56.5 44.5t-31.5 60t-11.5 53t-3.5 51.5zM197 1188q32 49 77.5 84t79.5 35q44 0 164 -52q31 -14 57 -14q20 0 36.5 9.5t26 20t30.5 36.5l88 -56q-9 -18 -28.5 -43t-60 -51.5t-83.5 -26.5q-23 0 -43.5 6t-98.5 35q-69 23 -80 23q-19 0 -29.5 -9t-45.5 -50z M311 174h316v600h-316v-600z" />
<glyph unicode="&#xf6;" horiz-adv-x="937" d="M94 227v465q0 29 1 49t6.5 51t15.5 53t30 45t48 38q23 13 52.5 19t47 6.5t55.5 0.5h254q48 0 86 -8.5t63 -21t42.5 -33.5t27 -40t14.5 -47.5t6 -48.5t1 -50v-424q0 -110 -10 -150q-10 -37 -30 -63.5t-40 -40t-49.5 -21.5t-46 -9.5t-41.5 -2.5h-258q-42 0 -62 0.5t-53 6 t-57 17.5q-34 18 -56.5 44.5t-31.5 60t-11.5 53t-3.5 51.5zM199 1217q0 49 34.5 83.5t83.5 34.5q50 0 84.5 -34.5t34.5 -83.5t-35 -84t-84 -35t-83.5 34.5t-34.5 84.5zM311 174h316v600h-316v-600zM528 1217q0 49 34.5 83.5t84.5 34.5t84.5 -34.5t34.5 -83.5t-35 -84 t-84 -35t-84 35t-35 84z" />
<glyph unicode="&#xf7;" horiz-adv-x="1366" d="M0 489v211h1364v-211h-1364zM543 262q0 58 40.5 98.5t98.5 40.5t98.5 -40.5t40.5 -98.5t-40.5 -98.5t-98.5 -40.5t-98.5 40.5t-40.5 98.5zM543 928q0 58 40.5 98.5t98.5 40.5t98.5 -40.5t40.5 -98.5q0 -59 -40.5 -99.5t-98.5 -40.5t-98.5 40.5t-40.5 99.5z" />
<glyph unicode="&#xf8;" horiz-adv-x="937" d="M86 -63l70 114q-30 30 -44.5 65t-15.5 111v471q0 30 1 49.5t6.5 50.5t15.5 53.5t30 45t48 37.5q49 27 155 27h242q49 0 88 -5l70 111l63 -39l-61 -98q32 -16 49 -33t30.5 -63t12.5 -123v-430q0 -110 -10 -150q-10 -37 -30 -63.5t-40 -40t-49.5 -21.5t-46 -9.5t-41.5 -2.5 h-258q-64 0 -89.5 2.5t-64.5 13.5l-65 -106zM313 324l269 458h-269v-458zM317 174h312v545z" />
<glyph unicode="&#xf9;" horiz-adv-x="1024" d="M29 770v180h329v-770h308v590h-115v180h330v-770h116v-180h-571q-65 2 -87 4t-47.5 8.5t-49.5 20.5q-63 38 -81 99.5t-20 162.5v475h-112zM330 1358h135l168 -299h-131z" />
<glyph unicode="&#xfa;" horiz-adv-x="1024" d="M29 770v180h329v-770h308v590h-115v180h330v-770h116v-180h-571q-65 2 -87 4t-47.5 8.5t-49.5 20.5q-63 38 -81 99.5t-20 162.5v475h-112zM387 1059l176 299h131l-172 -299h-135z" />
<glyph unicode="&#xfb;" horiz-adv-x="1024" d="M29 770v180h329v-770h308v590h-115v180h330v-770h116v-180h-571q-65 2 -87 4t-47.5 8.5t-49.5 20.5q-63 38 -81 99.5t-20 162.5v475h-112zM260 1061l186 297h140l180 -297h-129l-123 205l-125 -205h-129z" />
<glyph unicode="&#xfc;" horiz-adv-x="1024" d="M29 770v180h329v-770h308v590h-115v180h330v-770h116v-180h-571q-65 2 -87 4t-47.5 8.5t-49.5 20.5q-63 38 -81 99.5t-20 162.5v475h-112zM229 1219q0 49 34.5 83.5t84.5 34.5t84.5 -34.5t34.5 -83.5t-34.5 -84t-84.5 -35t-84.5 35t-34.5 84zM559 1219q0 49 34.5 83.5 t84.5 34.5t84.5 -34.5t34.5 -83.5t-34.5 -84t-84.5 -35t-84.5 35t-34.5 84z" />
<glyph unicode="&#xfd;" horiz-adv-x="937" d="M0 768v180h260l209 -542l213 542h256v-180h-119l-483 -1161h-219l245 586l-245 575h-117zM344 1059l176 299h131l-172 -299h-135z" />
<glyph unicode="&#xfe;" horiz-adv-x="980" d="M6 1266v180h328v-496h276q121 0 183 -49q46 -36 59.5 -85t15.5 -130v-414q-2 -43 -3 -61.5t-5.5 -51t-12.5 -50t-23.5 -38.5t-37.5 -36q-30 -22 -58.5 -27t-113.5 -8h-280v-393h-215v1659h-113zM334 180h317v590h-317v-590z" />
<glyph unicode="&#xff;" horiz-adv-x="937" d="M0 768v180h260l209 -542l213 542h256v-180h-119l-483 -1161h-219l245 586l-245 575h-117zM188 1217q0 49 34.5 83.5t84.5 34.5t84.5 -34.5t34.5 -83.5t-35 -84t-84 -35t-84 35t-35 84zM518 1217q0 49 34.5 83.5t84.5 34.5t84.5 -34.5t34.5 -83.5t-35 -84t-84 -35t-84 35 t-35 84z" />
<glyph unicode="&#x152;" horiz-adv-x="1705" d="M98 362v717q0 162 37 232q16 32 37.5 56t50.5 38t52 22.5t61.5 12.5t57 4.5t59.5 1.5h1189v-426h-212v233h-406v-417h436v-195h-436v-448h418v266h211v-459h-1200q-101 0 -166 16.5t-108.5 58t-62 110.5t-18.5 177zM328 424q0 -44 0.5 -74.5t6 -56t10 -41t18.5 -27.5 t24.5 -17.5t36 -9t44.5 -4.5t58 -1h271v1060h-297q-41 1 -67.5 -2t-47 -13t-31 -23.5t-17 -40.5t-8.5 -57.5t-1 -80.5v-612z" />
<glyph unicode="&#x153;" horiz-adv-x="1409" d="M94 242v465q0 25 1 39t3 37.5t6 37t12 33t18.5 31t27 24.5t37.5 20.5t49.5 13.5t62.5 7h262q60 -2 86 -14.5t50 -54.5q28 39 62 53.5t108 15.5h229q157 0 205 -104q12 -27 15 -55.5t3 -88.5v-294h-516v-228h313v117h203v-98q-2 -55 -12.5 -87.5t-48.5 -64.5 q-33 -28 -57.5 -35t-96.5 -12h-250q-71 0 -98 9t-59 50q-27 -34 -57.5 -46.5t-106.5 -12.5h-234q-58 1 -100 16.5t-64 37.5t-34.5 57t-15.5 63t-3 68zM311 180h295v590h-295v-590zM815 565h313v205h-313v-205z" />
<glyph unicode="&#x178;" d="M2 1253v193h260l297 -610l297 610h254v-193h-109l-333 -614v-446h120v-193h-469v193h125v446l-331 614h-111zM272 1677q0 49 35 84t84 35t84 -35t35 -84t-34.5 -83.5t-84.5 -34.5t-84.5 34.5t-34.5 83.5zM602 1677q0 49 35 84t84 35t84 -35t35 -84t-34.5 -83.5 t-84.5 -34.5t-84.5 34.5t-34.5 83.5z" />
<glyph unicode="&#x2c6;" horiz-adv-x="555" d="M25 1061l186 297h139l180 -297h-129l-122 205l-125 -205h-129z" />
<glyph unicode="&#x2dc;" horiz-adv-x="555" d="M-2 1188q31 48 77 83.5t81 35.5q43 0 163 -52q32 -14 58 -14q19 0 36 9.5t25.5 19.5t30.5 37l88 -56q-9 -18 -28.5 -43t-60 -51.5t-83.5 -26.5q-22 0 -42 6t-99 35q-69 23 -80 23q-19 0 -30.5 -9t-45.5 -50z" />
<glyph unicode="&#x2000;" horiz-adv-x="918" />
<glyph unicode="&#x2001;" horiz-adv-x="1837" />
<glyph unicode="&#x2002;" horiz-adv-x="918" />
<glyph unicode="&#x2003;" horiz-adv-x="1837" />
<glyph unicode="&#x2004;" horiz-adv-x="612" />
<glyph unicode="&#x2005;" horiz-adv-x="459" />
<glyph unicode="&#x2006;" horiz-adv-x="306" />
<glyph unicode="&#x2007;" horiz-adv-x="306" />
<glyph unicode="&#x2008;" horiz-adv-x="229" />
<glyph unicode="&#x2009;" horiz-adv-x="367" />
<glyph unicode="&#x200a;" horiz-adv-x="102" />
<glyph unicode="&#x2010;" horiz-adv-x="681" d="M59 444v113h572v-113h-572z" />
<glyph unicode="&#x2011;" horiz-adv-x="681" d="M59 444v113h572v-113h-572z" />
<glyph unicode="&#x2012;" horiz-adv-x="681" d="M59 444v113h572v-113h-572z" />
<glyph unicode="&#x2013;" d="M55 444v113h1000v-113h-1000z" />
<glyph unicode="&#x2014;" horiz-adv-x="1193" d="M55 444v113h1084v-113h-1084z" />
<glyph unicode="&#x2018;" horiz-adv-x="382" d="M25 961l213 485h120l-211 -485h-122z" />
<glyph unicode="&#x2019;" horiz-adv-x="382" d="M25 961l213 485h120l-211 -485h-122z" />
<glyph unicode="&#x201a;" horiz-adv-x="382" d="M27 -274l211 483h120l-211 -483h-120z" />
<glyph unicode="&#x201c;" horiz-adv-x="641" d="M23 961l210 485h123l-211 -485h-122zM279 961l210 485h123l-211 -485h-122z" />
<glyph unicode="&#x201d;" horiz-adv-x="641" d="M23 961l210 485h123l-211 -485h-122zM279 961l210 485h123l-211 -485h-122z" />
<glyph unicode="&#x201e;" horiz-adv-x="641" d="M27 -274l211 483h120l-211 -483h-120zM281 -274l213 483h118l-209 -483h-122z" />
<glyph unicode="&#x2022;" horiz-adv-x="681" d="M49 723q0 120 86 205.5t207 85.5q120 0 205.5 -85.5t85.5 -205.5q0 -121 -85.5 -207t-205.5 -86q-122 0 -207.5 86t-85.5 207z" />
<glyph unicode="&#x2026;" horiz-adv-x="2048" d="M203 127q0 59 40.5 99t98.5 40t98.5 -40t40.5 -99t-40.5 -99t-98.5 -40t-98.5 40t-40.5 99zM885 127q0 59 40.5 99t98.5 40t98.5 -40t40.5 -99t-40.5 -99t-98.5 -40t-98.5 40t-40.5 99zM1567 127q0 59 40.5 99t98.5 40t98.5 -40t40.5 -99t-40.5 -99t-98.5 -40t-98.5 40 t-40.5 99z" />
<glyph unicode="&#x202f;" horiz-adv-x="367" />
<glyph unicode="&#x2039;" horiz-adv-x="382" d="M20 500l244 344l86 -60l-205 -284l205 -291l-86 -57z" />
<glyph unicode="&#x203a;" horiz-adv-x="382" d="M27 213l202 283l-202 286l86 62l247 -348l-247 -340z" />
<glyph unicode="&#x205f;" horiz-adv-x="459" />
<glyph unicode="&#x2122;" horiz-adv-x="1579" d="M53 1257q5 74 8 191q196 -4 293 -4q95 0 291 4q2 -114 8 -191h-82q-9 31 -17.5 50t-15.5 31t-18 17t-20 6.5t-27 2.5h-45v-467q0 -27 11 -35.5t40 -11.5l39 -2v-82q-98 4 -166 4q-62 0 -164 -4v82l33 2q29 3 39 8t15 21.5t4 56.5v428h-46q-45 -3 -60.5 -20t-37.5 -87h-82 zM686 766v78l29 6q31 4 37 18.5t8 67.5v416q-25 16 -64 14v82q37 -2 107 -2q67 0 100 2l193 -473l196 473q100 -2 209 0v-82h-16q-45 -1 -53.5 -16t-8.5 -82v-371q0 -30 12 -38t54 -13v-80q-90 4 -139 4q-46 0 -136 -4v80l13 2q38 0 45.5 13.5t7.5 74.5v258l-176 -426h-62 l-176 430v-262q0 -18 1 -30t1.5 -21.5t5 -15.5t6 -9.5t11.5 -6t13 -3t19 -2t23 -2.5v-80q-43 2 -127 2q-88 0 -133 -2z" />
<glyph unicode="&#x25fc;" horiz-adv-x="952" d="M0 0v952h952v-952h-952z" />
<glyph unicode="&#xfb01;" horiz-adv-x="1067" d="M37 0v180h117v588h-117v180h117v281q0 29 1.5 46t13 46.5t34.5 54.5q64 73 200 70h117v-193h-151v-305h151v-180h-151v-588h114v-180h-446zM594 0v180h117v588h-117v180h330v-768h114v-180h-444zM700 1217q0 47 34 80.5t83 33.5q47 0 81 -34t34 -80q0 -47 -34 -82 t-81 -35q-49 0 -83 34t-34 83z" />
<glyph unicode="&#xfb02;" horiz-adv-x="1067" d="M37 0v180h117v590h-117v180h117v291q0 97 63.5 151t179.5 54h529v-1266h112v-180h-444v180h117v1086h-342v-316h151v-180h-151v-590h114v-180h-446z" />
</font>
</defs>
</svg>
